<mxfile host="app.diagrams.net" agent="Mozilla/5.0 (Macintosh; Intel Mac OS X 10.15; rv:132.0) Gecko/20100101 Firefox/132.0" version="24.8.4">
  <diagram name="Page-1" id="Jng3Pi9Z3H1jsqZPbhEl">
    <mxGraphModel dx="2007" dy="1106" grid="1" gridSize="10" guides="1" tooltips="1" connect="1" arrows="1" fold="1" page="1" pageScale="1" pageWidth="827" pageHeight="1169" math="1" shadow="0">
      <root>
        <mxCell id="0" />
        <mxCell id="1" parent="0" />
        <mxCell id="DoGZ19TO_eujJT3HYU9u-1" value="" style="shape=image;verticalLabelPosition=bottom;labelBackgroundColor=default;verticalAlign=top;aspect=fixed;imageAspect=0;image=https://openupthecloud.com/wp-content/uploads/2019/10/0_3i0MOCi2wHX607Jp.png;" parent="1" vertex="1">
          <mxGeometry x="480" y="235" width="110" height="55" as="geometry" />
        </mxCell>
        <mxCell id="JIUYaBeZ9dW3_DUNBmQG-3" value="" style="edgeStyle=orthogonalEdgeStyle;rounded=0;orthogonalLoop=1;jettySize=auto;html=1;exitX=1.028;exitY=0.511;exitDx=0;exitDy=0;exitPerimeter=0;startArrow=classic;startFill=1;" parent="1" edge="1" source="ohknaUU2VE4TiwLYlM5e-2">
          <mxGeometry relative="1" as="geometry">
            <mxPoint x="169" y="440" as="sourcePoint" />
            <mxPoint x="229" y="440" as="targetPoint" />
          </mxGeometry>
        </mxCell>
        <mxCell id="ohknaUU2VE4TiwLYlM5e-25" value="&lt;div&gt;WORKFLOW_JOB_QUEUED&lt;/div&gt;&lt;div&gt;Webhook&lt;br&gt;&lt;/div&gt;" style="edgeLabel;html=1;align=center;verticalAlign=middle;resizable=0;points=[];" vertex="1" connectable="0" parent="JIUYaBeZ9dW3_DUNBmQG-3">
          <mxGeometry x="-0.3653" y="-2" relative="1" as="geometry">
            <mxPoint x="33" y="-22" as="offset" />
          </mxGeometry>
        </mxCell>
        <mxCell id="ohknaUU2VE4TiwLYlM5e-1" value="&lt;font style=&quot;font-size: 10px;&quot;&gt;Git Push&lt;/font&gt;" style="sketch=0;aspect=fixed;pointerEvents=1;shadow=0;dashed=0;html=1;strokeColor=none;labelPosition=center;verticalLabelPosition=bottom;verticalAlign=top;align=center;fillColor=#000000;shape=mxgraph.azure.computer" vertex="1" parent="1">
          <mxGeometry x="-83.34" y="235" width="66.67" height="60" as="geometry" />
        </mxCell>
        <mxCell id="ohknaUU2VE4TiwLYlM5e-2" value="&lt;font style=&quot;font-size: 10px;&quot;&gt;Github Repository&lt;/font&gt;" style="shape=image;html=1;verticalAlign=top;verticalLabelPosition=bottom;labelBackgroundColor=#ffffff;imageAspect=0;aspect=fixed;image=https://cdn4.iconfinder.com/data/icons/ionicons/512/icon-social-github-128.png" vertex="1" parent="1">
          <mxGeometry x="-89.50999999999999" y="400" width="79" height="79" as="geometry" />
        </mxCell>
        <mxCell id="ohknaUU2VE4TiwLYlM5e-3" value="" style="edgeStyle=orthogonalEdgeStyle;rounded=0;orthogonalLoop=1;jettySize=auto;html=1;" edge="1" parent="1">
          <mxGeometry relative="1" as="geometry">
            <mxPoint x="-50" y="320" as="sourcePoint" />
            <mxPoint x="-50" y="390" as="targetPoint" />
          </mxGeometry>
        </mxCell>
        <mxCell id="ohknaUU2VE4TiwLYlM5e-6" value="AWS Cloud" style="points=[[0,0],[0.25,0],[0.5,0],[0.75,0],[1,0],[1,0.25],[1,0.5],[1,0.75],[1,1],[0.75,1],[0.5,1],[0.25,1],[0,1],[0,0.75],[0,0.5],[0,0.25]];outlineConnect=0;gradientColor=none;html=1;whiteSpace=wrap;fontSize=12;fontStyle=0;container=1;pointerEvents=0;collapsible=0;recursiveResize=0;shape=mxgraph.aws4.group;grIcon=mxgraph.aws4.group_aws_cloud_alt;strokeColor=#232F3E;fillColor=none;verticalAlign=top;align=left;spacingLeft=30;fontColor=#232F3E;dashed=0;" vertex="1" parent="1">
          <mxGeometry x="190" y="300" width="253.49" height="300" as="geometry" />
        </mxCell>
        <mxCell id="ohknaUU2VE4TiwLYlM5e-7" value="aws-account" style="points=[[0,0],[0.25,0],[0.5,0],[0.75,0],[1,0],[1,0.25],[1,0.5],[1,0.75],[1,1],[0.75,1],[0.5,1],[0.25,1],[0,1],[0,0.75],[0,0.5],[0,0.25]];outlineConnect=0;gradientColor=none;html=1;whiteSpace=wrap;fontSize=12;fontStyle=0;container=1;pointerEvents=0;collapsible=0;recursiveResize=0;shape=mxgraph.aws4.group;grIcon=mxgraph.aws4.group_account;strokeColor=#CD2264;fillColor=none;verticalAlign=top;align=left;spacingLeft=30;fontColor=#CD2264;dashed=0;" vertex="1" parent="ohknaUU2VE4TiwLYlM5e-6">
          <mxGeometry x="10" y="30" width="230" height="250" as="geometry" />
        </mxCell>
        <mxCell id="ohknaUU2VE4TiwLYlM5e-19" value="" style="whiteSpace=wrap;html=1;aspect=fixed;fillColor=none;strokeColor=#495dd9;" vertex="1" parent="ohknaUU2VE4TiwLYlM5e-7">
          <mxGeometry x="30" y="34.5" width="185.5" height="185.5" as="geometry" />
        </mxCell>
        <mxCell id="ohknaUU2VE4TiwLYlM5e-15" style="edgeStyle=orthogonalEdgeStyle;rounded=0;orthogonalLoop=1;jettySize=auto;html=1;" edge="1" parent="ohknaUU2VE4TiwLYlM5e-7">
          <mxGeometry relative="1" as="geometry">
            <mxPoint x="350" y="180.0004545351244" as="targetPoint" />
            <Array as="points">
              <mxPoint x="350" y="140" />
            </Array>
          </mxGeometry>
        </mxCell>
        <mxCell id="ohknaUU2VE4TiwLYlM5e-16" value="internal trafic" style="edgeLabel;html=1;align=center;verticalAlign=middle;resizable=0;points=[];" vertex="1" connectable="0" parent="ohknaUU2VE4TiwLYlM5e-15">
          <mxGeometry x="-0.5636" relative="1" as="geometry">
            <mxPoint x="11" y="10" as="offset" />
          </mxGeometry>
        </mxCell>
        <mxCell id="ohknaUU2VE4TiwLYlM5e-5" value="" style="shape=image;verticalLabelPosition=bottom;labelBackgroundColor=default;verticalAlign=top;aspect=fixed;imageAspect=0;image=data:image/png,iVBORw0KGgoAAAANSUhEUgAAAgAAAAIACAIAAAB7GkOtAAAAAXNSR0IArs4c6QAAAGhlWElmTU0AKgAAAAgABAEGAAMAAAABAAIAAAESAAMAAAABAAEAAAEoAAMAAAABAAIAAIdpAAQAAAABAAAAPgAAAAAAA6ABAAMAAAABAAEAAKACAAQAAAABAAACAKADAAQAAAABAAACAAAAAACJBzC+AAAC5GlUWHRYTUw6Y29tLmFkb2JlLnhtcAAAAAAAPHg6eG1wbWV0YSB4bWxuczp4PSJhZG9iZTpuczptZXRhLyIgeDp4bXB0az0iWE1QIENvcmUgNi4wLjAiPgogICA8cmRmOlJERiB4bWxuczpyZGY9Imh0dHA6Ly93d3cudzMub3JnLzE5OTkvMDIvMjItcmRmLXN5bnRheC1ucyMiPgogICAgICA8cmRmOkRlc2NyaXB0aW9uIHJkZjphYm91dD0iIgogICAgICAgICAgICB4bWxuczp0aWZmPSJodHRwOi8vbnMuYWRvYmUuY29tL3RpZmYvMS4wLyIKICAgICAgICAgICAgeG1sbnM6ZXhpZj0iaHR0cDovL25zLmFkb2JlLmNvbS9leGlmLzEuMC8iPgogICAgICAgICA8dGlmZjpDb21wcmVzc2lvbj4xPC90aWZmOkNvbXByZXNzaW9uPgogICAgICAgICA8dGlmZjpSZXNvbHV0aW9uVW5pdD4yPC90aWZmOlJlc29sdXRpb25Vbml0PgogICAgICAgICA8dGlmZjpPcmllbnRhdGlvbj4xPC90aWZmOk9yaWVudGF0aW9uPgogICAgICAgICA8dGlmZjpQaG90b21ldHJpY0ludGVycHJldGF0aW9uPjI8L3RpZmY6UGhvdG9tZXRyaWNJbnRlcnByZXRhdGlvbj4KICAgICAgICAgPGV4aWY6UGl4ZWxYRGltZW5zaW9uPjUxMjwvZXhpZjpQaXhlbFhEaW1lbnNpb24+CiAgICAgICAgIDxleGlmOkNvbG9yU3BhY2U+MTwvZXhpZjpDb2xvclNwYWNlPgogICAgICAgICA8ZXhpZjpQaXhlbFlEaW1lbnNpb24+NTEyPC9leGlmOlBpeGVsWURpbWVuc2lvbj4KICAgICAgPC9yZGY6RGVzY3JpcHRpb24+CiAgIDwvcmRmOlJERj4KPC94OnhtcG1ldGE+Chkf7HYAAEAASURBVHgB7L0JmCZHcSbc18z03KMZjSR0IiQkQEISuhAgeQXGxmbt9bHY4D2MWR/YxiCBjZCEDiTAAiQuG+zFB16f7O/dZ337MUYYzA2SQAIJ0H2ie+67e7r7j6zIjIzMjKzIrK+/mZ6h+pmpiorMePONyCMqq77+evTCn75jJPoZG4sUHS/LcJTGNJDRUZ3d3KjSiA4BNcY0KkUoBqewYls1DaSoDQ2kjQCVFbXUVtsC1OEAoGQg6ajtjJDYJAoyHBMbpeJIyONEFaVLZ+zOUh1ZB+N0dnY2oFoPIkDPy2gB3BCnI7UQRGBboqoEkalWgmR5DYwz2glBcmp2NssyLMAlMXccKcNRGtNA5uZCTtLV6JzSiGRkdNw1cKcjSoQ+GIztZQ2kiKoGEhGXLwtawsWoCaZQ26qEErlBp5UMJJ2rT+dmzGMczTGxSRRkOZtWprJUyOMEdT0TtzhyVhoIi60drjhOA6oaSMAnd1E8WvisSeVoWehIrZgMeaMyoZo5QaZazyTGxwEwMM5cJwQpAQDBMiw71JrKqWwiXogThyS81kCGlwO4U+iOPAhCvvqV5lELgjf1kly9iKoGIkNHWq0lXIwwmMKCSyoNJ2qW7AK9DtLUQMet+4lNoqAmgoWVtDkhj+MtOBMuU7JpBeGxxQjTShdQbQXxZNolG672SvZOic8dLqfLQkdqZWSIK+fgA1ULQnBcqAThpkYmcxLiGqXXHXJAJgFwWlrrNOCgIpcxyt69VhxlEGihGV4OIKfIHYVqq5u+UPPI15QkvGlQY1tEdTAmll1BS+xeVahtVUKJ5L/XSQaSzltY6aDdBwQrHWUR8LooLEmcIkXxaOFLAZdpHnHgjtSKyVBbKhOqmRNkqvVMYvz9tA/IJwAgWOZVMOAaE9T4WBfixCEJrzWQ4eWA1B15EIR89SvNoxYEb+oluXoRVQ1Eho60Wkv8XlVcjSyAhhM1K0IVLHZNM+i4dT9pOFFQ08HNNWlzQh7HW3AmXCZPWkF4bP28a27IAqqtIJ5Mu2TD1V4JFg/TWHr09EKcjtRCEIVTyCfHRAcRa1QyiTHInIS4Rul11T6gNQFAi8VsfDTdPoD3fSGOMgg0MsPLAU0k/IC247q0R/L1NI/ylqak3we4+EgDR9K5+nQ+CPcBfN5ZmbII+F0UFopPRiget1XLQkdqxWTIGWTFA1W4QBGCTLWeCQFaYZ/vA7QEALzKvOLRRDnu+0KcOCThtQYy1BwAVLxT6GTIrsuV5lELpjf1klxdHq9RXQ0kqi5fai3xe1VxNbIAGk7SumQg6ULDpgY6bt1PbBIFIQQ316TNCXkcb8GZcJmW7VYQ5OOHKBuuAdVWEE+mXbLhaq9k75T44hDTC3E6UgtBFE5mSbPtcDKFCx2By1QdMlWrE8ichDp7X7twH1CQAACzmA0PKO91G/EyHDmy5JoGMtQcwJ3y44i4dRM0j9pR+32Ai480cCSdq0/ng2ofwIdoIFMWAb+LwkLxyQjF47ZqWehIrZgMd4bigwzLFzoEkal2YsJZ2a39wDglOaAsAQC7MjYUULDgve7lQpwgHsmFBjLUHBC4hg4nBKsVmkctgN7US3J1ebxGdTWQqLp8qbXU7wPkuKEWuyA90rKthRdg/Ixj8kLYB4jEouWlwD8pfl2HLlDCeWy4VYLIVCtBYmfInIS4Rum1mgOKEwC0WMwG+5gnAy4X4siRJcc1MkPNAZE7ClXi3C5oHrVb9/sAFx+pNySdq0/nfh9AoagRisdt1bJQ1GMpzWIy3BSmM+dWuEARgky1ExPCNMI+eR9QkwCAU5lXuD5iTOVjIU4Qj+RCAxlqDmg6yETPOIgOJwSrFZpHLYDe1EtydXm8RnU1kKi6fKm11O8D5LihFrsgPR7g+wBwTl4ToCAcddrwyQQvBMlUitXxklUJIlOtBEk5Wc2AOCMjLfuAygQAjIrZYExzx0IcObIUKo3MUHMAd20h5ACISr8PcENDGjiSztWnc78PoFDUCNpM5Fh84pCMWSFaFop6jEOjXEMGLbB1ImOUlSAy1UoQJBMch7wPqE8AlaHJZXujL4uOHFkKkgYy1BwALLyDOHyIWGdB86gF2Jt6Sa6uRBWNNBAZOtJqLfX7gChgwSV2QXo8YPcB5J2fOM0kwtmTLgva8CG8UKgcujR3OavCBYoalqlWMiE0K5A5CXGN0mtxH9ApAUCLxWx4Uk3lQhw5suS4RmaoOYA7Be4oVIlzuzAYTL8PcNGVekPSufp07vcBFIoaoWbc8okDMq68dgKFOEU9ltIMQdJyUUOskE/hAkVQMtVOTAjTCEPbB3RNAMCpxiueV2O5DEeOLAVJAxlqDmg6yETSuGaHMDHrKmgeteB6Uy/J1ZWoopEGIkNHWq2lfh8QBSy4xC5IjwfRPgDnjV8cwlGnDZ8gWv4iBPF6TQIank8liEy1EiQmSOYkxDVKr6N9wJhMtxCtmA3lVQBO5cJcolDVyAw1B3CnFkIOgDj3+wA3iqWBI+lcfTr3+wAKRY2gzUSORRMHl366NHVCnKIe49AohyBpuagBGpxPxEQ04UqZaicmHHYY+wAzxGW6Qcv5ixqvfHrHm2V+LMNRqGogQ80BECPvIA7kfNhKSzSPWnC8qZfk6kpU0UgDkaEjrdZSvw+IAhZcYhekR5rBWngBzQ9RJmPYbVsFIAEr8aJytAArnDExvRCnI7UQROSbKmM+lSAy1UqQmBWZkxDXKL2mfYB9BCTTLUQrZoMxzR0L06xCVSMz1BzAXev3AfLwUfrPGPXfGyqHDrW4s4uPLqzunEPgQzSQKYuApQaSAw/02kzklYEJLv0BJUQIcTpSC0F40zk55VO4QBGgTLWeCQFaAbt+YBzMAfDM2sK6c9xc0XUNmzjJszuRwhArVDUyQ80BEC7vIA7nogi2VtI8ajH2pl6SqytRRSMNRIaOtFpL/T4gClhwiV2QHmtmsh+ibLju330AzhWRWLQsaMMniJa/qBy6NHc5pYiJB89IMtVKJjE2mZMQ1yi9hhwAOwDf7zLdQrRiNmmS55rCECtUNTJDzQGROwrV+Q6viNe/D3BhkXpD0rn6dO7fB1AoagRtJhIWrrN87nA5WhaKeoygSSgmQxYgEA1kGDHhNUVZptqJSYA/T/sAfAS0r3MAeMLzaiyXRUeOLAVJAxlqDggcxBFExDoLmkctwN7US3J1JapopIHI0JFWa6nfB0QBCy6xC9LjAbsPoFkSrwZurYhWXm34BNHyF12HLrBChoZeJYhMtRLEu4ASmZMQ1yi6Ngmgifi+zgGUV4FAKheGWI4sOa6FZqg5gDtlPSRinQXNo3bgfh/g4iMNHEnn6tO53wdQKGqEmnHLJw7JmBWiZaGox1KaNWTIGpggB6QUMaFqOUGm2olJ0MTA+wAzoK1L+/xZEDSNMZWPZdGRI0tB0kCGmgMCB12UiVpHQfOoBdabekmurkQVjTQQGTrSai31+4AoYMEldkF6PGD3AeRdtCbg7DHKcNRpw4fwQiEECcuyV54DLlyVIDLVSpCYHJmTENdQrmkH0O8D2iI1Oid3X5tNU4aDxi7+9qQaaRW6djbi9vsAF1+pTyWdq0/nfh9AoagRasYtnzggYz6gecRbLeoxboByDRm04BxEJmkjkUamWs8kgoW122g64fgdgHWp3wfE0bXXnXMA2PvbGRflTCPF6k6djeje1Etyu/J4jepqIFF1+VJrqd8HyHFDLXZBejyI9gE4b/g84gHRhg+vy+TKoUtz19MAsFoQ1r4XK0G8IUpkTkJcI3sd7QD6fUA2UlDQOQfg0LEDiMZRW1MFZfWdzUH7fYCLhrR6SDpXn879PoBCUSPUjFuaOOrdd1GPpTRryJB1xGpB5AAg12kfEO8A3Oq0r98JN/zFbNTkpLJ+UgaBBtK/D6AhzgUlqlhViy0HzMpaS/0+IBs6KMAuSI8HxT4A1yV+623kcNRpwycTvBAkU0lQAwHPqhJEploJEnMicxLiGsJ1fs3d58+CKK8CzVSOOltwpVHJkaXaWmiGmgO4U9ZDItZZ0DxqB+73AS4+0sCRdK4+nft9AIWiRqgZtzBx0h0AzqZoWSjqsZRmDRmyjlhFTKhaTpCpdmISNFG5D5B3ADa4+zwHgCdxkueasujIkaUgaSBDzQGBgy7KRK2joHnUAutNvSRXV6KKRhqIDB1ptZb6fUAUsOASuyA9HuD7AJwr8uIQjjpt+ATR8hchiNe3SjGrShCZaiVITJDMSYhrBNctO4D+fUAQqeiifx8QBcRelg072Za08sygYiP03xcUhCO6wNvA+OjC6s6REV3iuiYcKYtAVQ2E0NqE4tGS2wEgyejuuyO1YjLkUcoqYkI1c4JMtZ5JjF+8D2jbAdjg9vuAOLr2unMOAHt/L+OinGmkWD3AoPGmXpLblcdrVFcDiarLl1pL/T5AjhtqsQvSIy3bWngBxg9RJvt3g1CjAKSNJKeq1aNZIrIy1uGo60gtBNFIQZu2Hc4qYqKDiDUcslioK8mchIyNugPo9wGZyDXqzjkAh44dQDSO2poqKNM6ux0CbxrU4Vs0tQZjYnkWtNTvA9r6NN4BmIXcL9taePkQDWS+8GsgbfSorGa0BEwaQ9Dg+hsN3Y7UasgwD0xrOSZULSfIVDsxCZoo2AfoOwCMuBk3jqY7B22VXtR4xfNqLJfhKFQ1kP59gNitSlTRRoutiBwrtZb6fUAcMX6NXZAea2ZyPO+a3YBfC6A5rY84o6xcOVoiVrhGGWWI05FaCJLlnBQAgRyTpG6skKl2ZWLRyZyEuFl4lOp+opiCOtH4fpfpOijlnGcTGWI0c8eosyNbulSoamSGmgO4a+b+gUgPIgwGgzcNamyLqA7GxMagoKV+H9A2XrBH46MLqzvnEPgQDWS+8GsgOfBAXzNaAiZuB2AnUIjTkVoIEvDMXwABXDNFJnk7WyJT7cQkaAu7PoPjE0AUU4BINf0+IIgsu+j8LAgwfKK1A4fhdhMznV0C5k29JNvJ4zWqq4FE1eVLraV+HyDHDbXYBemRVnAtvADjhyiT/f0g1CgAaSPJqer1bA1ihfOGLqPbl47UOg3ddiaqZzLVTkx8W2ROgi9jOwBU+iCynoYipvf9LtNl6G2ixEasn+Yhrok6W0QApUJVI9PvA8TAKlFFGy22InKsLGip3wfEQePX8Q7ATGk/LbTw8hkXyHxiaSCcTlauGS3EBFcnujTgIU5HaiFIljMrUJmwurIoU61nEqNn9gF+B4AGPIg52YwbR9Od4+aKrmu8YhmIZ6NGLsNRqGogQ80BEC7vIMa9KIKtlTSPWoy9qZfk6kpU0UgDkaEjrdZSvw+IAhZcYhekx5qZ7IcoG65+LYD2tD4KKOUuKkcLsMIZE9MLcTpSC0FylElPc5eTibIRVc4JMtVKJjE4mZPQ1IgTAJpx9hnZ97tMN24/cx2yyVQy6lw2shEvw1GoaiBDzQHcQettSzgKizSP2mHwpkEdvkpUsY3BmFieBS31+4C2Pj1I9wG4RvEZJC4LBcNHCl6noUtkkJs6iaKGZaqdmATIyT5ATgDEHoxzcr8PCCLLLvr3ASwYTBx8+AKYPDN8K/0+wMcilbAL0iOFVQsvQIp3hP5+EGoUgKTUYk3NaME1SiQWrbwdqdWQ4Y4AJc+tEkSmWgnCyRiZzJ0gJwA0kwMajADf7zLduP3MtWOTKfbqXDZCvXfPWwiSQlUj0+8DhJgWznottiJyrFT6z1Tv9wFx0Pj1QbcPwJUqtzhEy0LB8OHBcnKnoQuUOLeIiYPOnmWqnZgEbbB9QFsCyAWU683EdzTdOWir9KLGq7bMVIajUNVAhpoDIGLeQYx1aRDz9TSP8pZs0GogSlSxDQ2khYkv0lrq9wE+VqmEXZAea2ayH6JsuPq1ABrV+ijlJWjKRgvNEpGVgQ1xOlILQQS2kgq5eWKVIDLVSpCYF5lDflL7yVNnPQ2ITO/7XaYbt5+5JlqZclLzDJTKUWeTVSQoVDUyQ80B3ClwR6EaOZa7HAwGbxrU2BZRHYyJ9a+gpX4fkBsLRn/Q7QPAJz5xSMaVKhq6BcNHCl790MXWiYwBrQSRqVaCCM40A6DZAcgtWBNOPSebdO9A3FloUVfVeMUyEM9GjVyGo1DVQIaaAyBW3kGMux4+rYbmUYu9N/WSXF2JKhppIDJ0pNVa6vcBUcCCS+yC9Fgzk/0QZcPVrwXQntZHAaXcReVoiVjh7DHKEKcjtRAkR5n0NHc5q4gJVc4JMtVKJjF4Y+4eAckteBPOPiP7ftfAPKwgFXuVy0Y24mU4ClUNZKg5gDsII0ahKoRSUg0G0+8DXEyl3pB0rj6dmxnn774Tm0RBln6CkapFyOMERp4J3xM4Y3cOTNgFH6KBzBd+DYTh5cWacRswaX0K35FaDRlyiVjh+rkgcgD0uc/RrcEg9uBPTu73AdTZkdB/LigKiL3sNJFiqNZxC5X7fUAcMX6NXZAeaQXXwgtg4h1hkK4KQDgpWa4cLcQK1yu6jFbejtQqyZBHQMPzqQSRqVaCEBMUcAfgkN05qkSXPoiZXnfTzVhoYIQqCcVe5bIR6qPOlloyOoWqRqbfB4iBVaKKNlpsReRYWdBS/z4gDhq/Pqj3Abhq8YUiWhYKhg8PlpM7DV2gwflETBx09ixT7cQE23CPgGgNlFuwhHgQc/K+zwFAri0zlUWn1W/wSSkfag4IHMS42w4Z4KR51ALtTb0kV1eihkYaiAwdabWW+n1AFLDgErsgPZYtCwglzsGFsA/AGRPTC0edNnyCaPmLEMTrW6WYTyWITLUShAhSAgCNQ3ZnqhQJcSiF9df3uwYWYYeXxV7lspFdLctwFKoayFBzAHcQspFCNYxi9mowmP59gAus1BuSztWnczP7/N13YpMoyNJPMFK1CHmcwMgzMVPaFJmjM3bnwIRd8CEayIQAlTUQhpcXa8YtMMH1KqCECCFOR2ohSJ60L0n5qPeX3riRZKr1TACMJwC4dMjuHDWMl2koU42BciDuLIJpyhqv2jJTGY5CVQMZag6ASHkHMeJa8PRyzaMWBG/qJbm6ElU00kBk6EirtYSD0gVPqG1VQknUUnQpGUi60KypgY5b9xObREEIfoKRqkXI43gjzoTLNTPZD1E2XAOqJUw8p4xkw5UpDdXY3SKxaOXtSK2GDFBzw49N50YbslauZKqVTKCNKAEYIrZld84RkQPKen3f5wCMbO4YdXbOL8VvLcRDzQHcNT+Ocp4U6jWP2mHwTlGNrRJVbGMwJpZnQUv9+4C2PvX3/mYym5oH+D4AVyo+d7gcDd2C4SMFr9PQJRrIMGIiNRPoZKqVTNIEAG04ZHcOmnUXxN4YNK2mx32fA4BMW2Yqi06r38ZbFwP5PNQcEDiIEZdZ1Gg1j1qwvKmX5OpK1NBIA5GhI63WUr8PiAIWXGIXpMeyZQGhxDm4v/YBNEtEVoZwOOq04RNEy1+EIF6vScAKGRp6lSAy1RoQMQEAZYfszjkvcjFlet/vGliukUZf7FWah7imMMQKVY3MUHNA5I5CtTWovlDzyNeUJLxTVGNbRHUwJpZdQUv9PkDqSafz9/4HyT4AHOMTh2RcqaKhWzB8XKD4udPQBSbIASlFTDi8KMtUi5nkEgC05ZDdWW6+aYmiacwSjYFyIO4sgmnKYq8AiGWgRC7DUahqIEPNAYGDduBo0VPLNY9aALypl+TqSlTRSAORoSOt1lK/D4gCFlxiF6THmpkszkG/FkB7Wh8FlHIXlaMlYoWzxyhDnI7UQpAc5UjvOeDCVQkiUy0DaUkAQNIhu3PEmy6jmII+0fh+18AIVRLKvALLNA9xTdTZUktGp1DVyAw1B0TuKFRzHkZ6zaOoenTZ7wNcQKTekHSuPp2b+ejvvhObREGWfoKRqkXI4wRGnslBuw/AlQpnU7QsFAYpiBhc1E8izkFkEjeRXMtUC5i0JwDjjW3LnZOmjYIvRjnZQDkQdxbBNGWBVwSR5CGWmcpwFKoayFBzALjpHbQDh1zvKmgeteB6Uy/J1ZWoopEGIkNHWq0lHJQueEJtqxJKopaiS8lA0oVmTQ103Lqf2CQKQvATjFQtQh7HG3EmXK6ZyX6IsuEaUC1h4jllJBuuTGmiJlbY9XQZLd8dqVWSccOPTWcgXAuS+GgUGoiaAAyGRXZne5mcfBBZT0Mtpvf9roEl6FyheUV1MbK5oxodxFGoamSGmgO4a+COQpXi0i4MBtPvA1x0pd6QdK4+nft9AIWiRqgZtzRxcHWiS9NeiFPUYynNECQtFzVEA1lFTEQTrpSptjIpSQDQhEN2Z94qycTeGDStpkcD5UDcmQBqhFavIiCWgXg2auQyHIWqBjLUHADOegcx4pH/HS41j1ogvamX5OpKVNFIA5GhI63WEg5KFzyhtlUJJVFL0aVkIOlCs6YGOm7dT2wSBSH4CUaqFiGP4404Ey7XzGQ/RNlwDaiWMPGcMpINV6Y0UQMr7PSYXojTkVoIkjSeVQSsKkFkqnmQwgQAXB2yO+fox6Fk/Q0mTanvdw0s10ijz3sVmaV5iGsK06xCVSMz1BwQuaNQjaKTu9Q8ytmhvt8HuPhIvSHpXH069/sACkWNUDNuYeLgesVnEMrRslDUYynNGjJkHbGKmFC1nCBTzTApTwDQnEN2Z5FBGspU0+8DxNCBsv/eUDkymeErV85pW8ctGPX7gFzkjB67ID2WLQuILN4d+vtB0wpWHOxYM1pwdRKJRStvR2o1ZMjtmFUliExVAqlKAKx/5BaIP3soIewA+n2AD1Qqdc4BPNHC2NW6KG1Z0gwG0+8DXEyl3pB0rj6d+30AhaJGKB63uR2AnUAhTlGPpTRDkLQ81aSsomyUmkQamWrCpDYBQCsO2Z2jhvGSL0Y52d1yGYtWMLEFpky8YmWxKKd6zFJlOApVDWSoz4LAW+/gAsgBPhheinsEr5Wo2kpFteQGSKth9PsACpUgYD+mR5rBWngB0w9RJu+vfQDNEpGViUA4dAv8E8IWgUg1Ap3IqhokgHQXoTsdEgAAuSC4s8OOz7mYMr3vdw0sBg+uQ6+CovAil41sxMtwFKoayFBzAHcQRoxCNQxO9mowmH4f4AIr9Yakc/Xp3O8DKBQ1Qs245ROHZFypopW3qMdSmjVkyLqdCVXLCTJVxqRbAoDmHLI7iwyIvTFoWk2PBsqBuLMIpimZV1pV+R4ErEx/l+EoVDWQoeYA64hzR6GqBgsraB61wHhTL8nVi6hqIDJ0pNVa6vcBUcCCS+yC9Fgzk9ldoJ+Pfi2A9rQ+CijlLipHS8QK16t0WehIrZIM+QQEckyoTk6QqTomnRMANOeQ3TnHIIopVEs0vt81sFwjjd551VrJFKZ5iGsOghwQuTNQVCmaxeElCy70+wAXDak3JJ2rT+d+H0ChqBFqxi2fOCDjSoXKaFko6rGUZg0Zsm5nQtVygky1YTJIAoDmHLI7iwyimBqzpm1+NFAOxJ1FME1ZE98kD7HMVIajUNVA+n2A2J1KVNFGi62IHCu1lvp9QBwxfo1dkB5rZrI4B/1aAM1pfcQZZeXK0UKscI2iy/2bA8C7HJOs465AjiJkuIHj65Dd2bUYnz117kYg+37XwGLw4Lq4s3kGSuWos4Mm2IVCVSMz1BzAnbJZlzHvKGoetcP2+wAXH2ngSDpXn879PoBCUSPUjFuaOLhq0aVpL8Qp6rGUZgiSlqcalUlqEmlEqs1gEksi67ZLZ+/OYl0exJzc7wPE0IGy82dDwdanXox7ro1yff3wJWxv6iUqDITW0eRqaiCuXutZa6nfB7SFD7sgPdKtpRZeAPdDlMn+fhBqFIC0kcSyytECrHDGxPRCnI7UQhCVPM1dTibKRjpIUsM9AuroBOE5e3emgkjg7DOy73cNLMIOL4vjm8tGNuJlOApVDaTfB4SdZ6+UqGItLbYicqwsaKn/+wFx0Pg17uziowurO3MLLmfnIF/4NRAOmJVrRguwwjUqpRetvB2p1ZAhj4gMcouYULWcEFF1CQCqRyU5gKze2buzWJHYmwYb/9Njvw8QQwfKfh8gR6bTRIqhWsctVO73AXHE+DV2QXqkZUULL4CJd4T+frDpA95mR7lmtODqJBKLVt4C/yS+NWS4PVDy3CpBOFWWAACel/DWSmVn7845OzmgwQjw/a6B5Rpp9MWhSfMQ10SdnWtSoaqR6fcBYmCVqKKNFlsROVYWtNTvA+Kg8et4B2CmtF9WtPDyGRfIfGHSQDidrFw8WnClCsg0tqiJloWO1IrJcHeAAOcWMeE1RZmohgkA6lKJaKcrnb07ixa5gHK9u+UyAK1gYgtMWRPftsxUhqNQ1UCGmgMgKN5BO4RZoLqJmkctqN7US3J1JapopIHI0JFWa6nfB0QBCy6xC9IjzWAtvIDmhyiT/f0g1CgACViJF2WjhWaJyMoAhzgdqYUgIt9Uidw8sUoQpJokAONS2laVxtm7c87YU2c9DZWZ3ve7BpZrpNEXh4ZnoFSOOjvXpEJVIzPUHMCdAncUqjkPI/1gMHjXqMa2iOpgTKxbBS31+4BoCASXB90+ALzjE4dkXKmioVswfIJo2Yv6oYutExmDUwkCVMf8EstZdXSCIJy9O1MBFzj1nGzSkQNxZ45RLNeEhmUgno0auQxHoaqBDDUHQMi8gxj34ihmK2oeZQ35oNVAlKhiGxpICxNfpLWEg9IFT6htVUKJb0SSJANJF9o2NdBx635ikygIwU8wUrUIeRxvxJlwuWYm+yHKhmtAtYSJ55SRbLgypYk6YoUDwChDnI7UQpCk8Vjhhh+bzlClEsTsAIKwUisdnUjsNZwopmCfaDxBDYxal4Ti0GBkc8fCECtUNTJDzQHcNXBHoSrFUtANBtPvA1xIpd6QdK4+nZvdvL/7TmwSBVn6CUaqFiGPExh5JmZKmyJzdMbuHJiwCz5EA5kQoLIGwvDyYs24DZi0PoXvSK2GDLlErHDlLFyg0Nx0DJjJI6CjE56YlVpxiD1Uzsk8SbWCUdMZoSa+SR5imakMR6GqgQw1B0CAvIMY90zMKtSaRy1Q3tRLcnUlqmikgcjQkVZrCWeNC55Q26qEkqil6FIykHShWVMDHbfuJzaJghDkFYCKIyGP4ytyJlymZbsAxA9RNlwDqgUgnlJOsuHKFcd6YoVdT5fRytuRWiUZIgc0PJ9iEJMA0CwIK6F2dCKx13B8EFlPAwrTe4IaGLUuCcWhsWFp6qdy1NlSS0anUNXIDDUHcKfsIMi5Ua7XPGpHwjtFNbZKVLGNwZhYngUt9e8D2vrU3/ubyWxqHkT7AFydonnEo1EwfHh1J3caukCD81EnETY2gSewBHtYYnE0OyLNGZxoOi5QVlw4e3cWTXkQc3KzD7AEW8GCFlavWrR2zdiixeOBtuxidFTwfGrP9BObRnfumDIhtitWG5xCVQOBHDA62oYPZfD7AXMSVcWsKcautwMAR1CJWUsdzaN2U1uqgShRRRQNpIWJL9JawhsTHLRNxo/HjAXQcHyLVpIMJF1oCDXMPZ0/mpuQkFKiIAR5BaDiSMjj+IqcCZeJVQEIH6KBTH4VgHhKOalytCATAAso4W04WxY6Uqskgz7hIOR81AXKJgCwRDN5BHR0giLt7N2ZCiKBU8/JlKQ0sJGzXrD6F151yPNOXjamLaARDfVy796R276988/+z1Pf/O4uNcSAplDVOnuoOYCnW1g47F2EGoL2CppH7dYwfQBAza9KVLGNwZhYngUtwY2JmTt2Gx4uuDQACnDCyEgGki60gisg0NydoPsmmiGlREEI8gpAxZGQxwkqYo+mR2SlgfAhGsi0FkBjGkjAJ3dRM1pwrsARfkz77BgN3Y7UasigQ3YNzzNJ/R49/8e+wbV22Y2Gi4XnFTvIbgi6cwcIZ+I3Kjmw1/3c4T//qnWu/lDOs3Mjv/PHT/7Dpzab/i/4yVG1puyuQQRT9wFgNS/7AHNLIzKoVc4LjAZSRFUDKfKsqCVCEmpblVBCVqIgGUg60ZgpE5tEQZX9BCNVi5DHaTFyRc7YnZ0+PtulqUmxgcwXKw0kBhWvK0dLQIbRi24NO1KrJIMOcUpGkwfxrLDLbR4z+TT5kXRJpRaFs3fnXFVgD0WtR7hNsdbuHID9xCvWDHv1NwxHR970i4edf+6K5n41ICBeiFR9zSZv+8tE6t8HJCExCiWqaKPFVkSOlQUt4SRqhq5Q26qEkrip8FoykHShFVw1sxsnvzkmNomCEPwEI1WLkMcJjDwTtyRxVhoIv8UOZO6XBhLwyV0UjxZcowIy0d03a6IjtWIyrCm/HUGGLQuUTwDU5dYrHlbC7uhEYt+Kkwso15vR7EDc2bYyOTnxi//lCGpyqALkgF//+fUQMR/H1vYiqnFdrbOHmgOADPphjhjrmF/9teZRC6I39ZJcXYkqGmkgMnSk1VrCQemCJ9S2KqEkaim6lAwkXWjW1EDHrfuJTaIgBD/BSNUi5HG8EWfC5dxM9pZe8kOUDdeAagkTj5eRbLgypU7tOppNHMbK1ApxOlILQVzj+hlihQxxRosGwsIFNhjlIKxk3dGJxF7DEXsaUJjeE+Rg5565YuUKwS9iML/C+kMXveD5y02gy/qJUxWYaCBDzQE4XPC4EHJA091NkLSwKFHFQGsgQnekqoKW+n1AGjavOej2AeAanzgk40oVLQsFw8eHykudhi4wsSs5mksg8kKJPoCxX2I9F2EryQsLZBcEdxZNKI5QmpMNFQfiziPPPWFSBBySEjYBzz4GPmLURFIKcdouUU2LjEYDGWoOgPZ9isW4yyxrtJpHLVje1EtydSWqaKSByNCRVmsJB6ULnlDbqoSSqKXoUjKQdKFZUwMdt+4nNomCEPwEI1WLkMfxRpwJl9OZ7G1iyQ9RNlwDqiVMYtTk2oYr0WcUESscAEYZ4nSkFoJkKMRqzwEDlYDICeCAfh+wYlkchWFfL12+CJZt7P6os3NNK4Mg6acIZ6g5AAeNXb/sKWq//lLzqB3RPmLTQJSoYhsaSDsTW1rQUr8PaIvk98E+ABcEmkc8GgXDh1d3cv3Q5RxEJnICoFxq7Sk5Oybm3NEJgnD27kwFXEDS7UdxH8BB9o2MJE3Eyvqp1e9+HxB0mo+ol4IKdKFEFetpIITWJmgt9fuA1ug14cOO4EdaVrTwAjiuTtGR1i7TegFIG0ksqxwtxMcvCNLdd0dqlWSQA/hBrIxPDEROAOh4U9M9RRJj2dEJD28lDYezz8i+3+Hzz9TAvhSQmI04C3ELB8VvDaTfB4ixVaKKNlpsReRYWdBSvw+Ig8avD+p9AF8QxGWhYPjwYDm509BFAnBEVpQD9LUSLcHML7GOiTl3dIIgnL07UwEXiL1psPE/PRoqrSAccBgyBQrATZTL+kmhrIEMNQdYR5w7CtXCmGoetcB4Uy/J1YuoaiAydKTVWsJBiWNDnC0WQMOJmhWhCsZ/0ww6bt1PGk4U1HTdBMvjEKCdI5xPxKoABFe06BhQLQDxlHKSJZYrjvVmwWxMImLRstCRWiUZIhewQnpUlhMO0PcBOXeGp8ee5pkp6uxc08og0Dp7qDkgckehmvMw0mseRdWjS7xrVGNbRHUwJpZYQUv9PiDqxODyIN0HpAuCvQ8IR13B8Ami5UZdFzsgwFnBJIIbVQmd6SiXWkvRQANheKLo7N1ZrtQEji9JqSzfGYlw861EMhglfww7O9dmq9/gk1I+1BwAnLk7CpWch5Fe8yiqzi+9qZd4uZeLqGogHq5F0lrq9wEtwbPDGzuCH2mp0cIL4H6IMpnWLtN6AUgbSSyrGS3yguD207ytjtRqyFBzEavmu4Cgff1REHSTyR5whLDiHQ2BGqEMJDAJLpy9OweF4QXSyB3DutmrGz+3ZffuuWxxU7B69cQFL1zRXgdKTzpx2U+8Yq1a7YCpMG6/IUomPLN3BCqkR7n20LWj4/P9TU+DUR4d7fK1g1Vtjo6Pz83M4BEM+SUpCRA0JC8QYWx8dNf2qc/cClOd/eBT0/RoP2CtrFG4rglHvlgVrC2MUEaE9c9uQjMVnNquls0ynRIzaY/hdKQWgriW284RKzfVy9pHN+zKmyaNMpA8O2fvzrmaaTS5JmcV6X//T5/YuHlvpIwun3380pIEcN4ZS+EffDUQ/E5A7hgh95d9BL6/I7Ds9K/s+cj/3rl3xt2ENQulsBugW0ttWYB45m4K/Q1rAYjeL2XLLi5KLaz2Sw6IWXlvITTaz8J5HwBMobPFo+bEsMph9Td8Msdhtdrj9hE4MCPwQ+ctuewXJhcvDh8+4E1xfHRrkzvnPOY3goHMHwBpIDnwQI/pKlBlLwImjSFocPmyCc+ZdqRWQ8Y1BS2b1sLoa+3TMzVkT5cEagQNJKgsXDh7dxaqNCoxrLnKvb6PQB+BhRYB2Ddf/8Zly5eYuznLDdey9EjLirYsAI54axgsVgUgeqwql92IlV1/wfEQpyO1EEQn72q4uLtrijMpRIEyWBBWqtrRicS+ACcKK0H0Qh+BPgILPwInPnPx+39z5RFr3IMgZBzvADBDuOXAnXPe5W4Ng8VKA8mBB/qaZTdiZe+hESHE6UgtBAl45i8gASTNJQrRnDJYEFaqWgZC1RPB2btzUsEqorDmqvX6PgJ9BBZmBI46YtF1b1p1xNrR76t9AK2f0CkmGYTLt7bsZXoyBMlUCtS4A0iaSxSBUXOxYN8HpFR7TR+BPgILNgLw2uywdeO/87Y1JxwVfqDroN4H8B0AJoP9kgNMAhg3Ly6TJT9RRAOIbvytJykCGGggEWZy6ezdOalgFXwfkKvT6/sI9BFYsBFYvmz0fW9adebJ7ot1gSjez6ZHWla0ZQEwcHWKjrR2mWgUgJhq7T+Vt97AJ94B7Kd9gEkAM/DRRfOTRCJRNNXiA3iyEHIA0EIaMb/+uo9AH4EDIQKTk6NX/+rql54Rcj1I9wF2zWwyR3D/GuaSsjU4jBhchSBJsVfQDqDjPgCRKJsFqZVa6ehEYq/hIA0y64U+An0EDqwITEyMvOV/rHnl+exPeuBalh7phlVbFiACuNpGx2CxKgDRI1m87AIUrZkCvRCnI7UQJEfe7wAG2QcsqPcBOVdTfcfIpkC9po9AH4F5igA8kP61n132Sz8BHw5lPwfdPiC3A7B3seHy3XGlCkFYNL1oEgD+NG8COu4DKJdaryg5O3Bz7ugEQTh7d6aCQYR5BRuESG/bR6CPgI0A5ICfevny1//nZXDrblW4lqVHWlYKZnK0AwBk0NDaZRoqALF8Wk4Fy65pylUTWRl4VwGb6kgtBEEofnTxdW8CBtkHNJwXyvsA7mS73DGy7aB9aR+BPgKDReA/XTh55euWBL8qfNDtAyBCmAmiI2aFfZAD3HcBua6CfQDkgOYIC6NPD6Y8UTij4IyemNRqvms0RCgGCRCDC0fCnYPC5kL/glOycSDuTAV1wpdv2vbV23btnZqeWLyIjnPjSxaNTgVAYz7aUG3H1MTszExQobkYq/n2rtf+9JpnHhtullPEes2OnXO/9+cbNmzeu3d6ZmLROB7rYXSLqdmxXTuVb2QaHdsXX2c2NzvzSz+z5qzT5vkPisIHLP7k/27+969bH5eP7dkxG/fX3N6ZXdPJTNGDN/81duwJfyFLbiGhOjby6pcv+fmfXGk+TjivP/CrwlcvGrnm43umzEyCm3WYqe7WmMu0NhXMZLs04QLFj7RYFYDoXgI92r7otZu9iPu2TWQIRlZgOB2p5cn4JQlJ4g6A7QPCzi5oHxZ901FN94CwX3JAQcCxiidY4FkW9e4Hp/7ukxuT4m1MA2GEFuIfE1zWu1gs1GsKmozqa69Yseiqiw4fxuoPrcFn8n755w551+88/o3v7EFWHY8whLtZgh2O2mYgGYxQMzYxNru3Yo41PLAX4iOgrD9k4vJfXXfqSfHS3I07t4I18XWvWrN8+fZP/M3G3SMTI7Pw605mMVs0Njo9OwfHmdlRGIWwA+dWoSyE0KqEEmbKI+bl5r6ubrg3EfMIofHYyGv/4+RrXql/aS5jViGecQp8XcT4tR/bumG785Yz4TKu4CG7tCW7NOECxY98sdJAUlhBgwNYKBBUEStc+lFpJ4Iz6kgtQ8bF1KHj+fvpfUAz+xq3IbLdf5qRlDcPsHFVNH1s7mbinxwIPFyDImMyMgK/QP8H7zl63m9XedNrVo2/59KjfvaVqyt2VM6eHDTuOWXdGe0i62a2w9IPyQBWfyMU/wCSCbS5O4EABsfnn7T4I1evH8bqj+wgB8D6+O63Hr5upSM8OwKrP5TC0Y8/yZcmkkIIrUooYSg8hoHc1GkCYQaT/tNU4gjObNHEyEU/t2J4qz9Sg9H+7jetNr8qbJf4hA9yc6zo3OKZH6Lm1sL0CxyDviiKTEsLTZElplVz5Z5JY0iXJgewn+CC6RUxBMHKbkSGpsk+ICwuax+mGzoQhJWQykCoeiI4e3dOKhQpGoae4EBgUnxFErgq4tH3sRuIUWenCBe+aPWHrznu8PWL0qL51cBn8l7/X9e9+RcPm6xsijvYPQekzkCEzZ7dpE0rpHUymmaON4ZhhR976fL3vfWwtauH/pTpec9e8sHL1p1w3CKzPMG0KxtqGEmxtgUow2FOJwagSHSsPonNWoFxNMfZxUvGL//F5T/CP7JJdVsF+3tHrXWiwmOeYb4u4vhnsCdUnomZOaZ+w8oaah7xIRrIPBYaSERSvixeFsCcmNiVs7G1YyDE6UgtBIEWm8DJxPETQR0/F4SQSB2c8Ussb6ujEwTh7N2ZCsoFG1zodQfizuUYrGYSX1YWi2kfU7hyOQB663U/s+7Kiw6HX5mJ4YZ2/cqXrfrwO45ev3ZR7VbA5zYX5YE4QmxxnsONBdz7Y6jNTUYRqu8ZJwHIm1+75qKfPwTy3D74gX0A5OwPXbb+R2HFhEEGtGfNg6CSpptICgPTqoSSdlTJQNKFKE0NF/aVyyfe/evL4Bl9WEe/2rhl5uLrt3zqK9WPFuHrIt578ZoTjhkfw3dpjolpkss1M9kPUZM+zEiCo18LDLKBH/THDblCHMOhMSFKYGjkEKcjtRCkbfYMvg/AFwDoTBBWikRHJxL7rjgsxJ5gV7CGVRhfIpoKch+7u4Cos8F89bLRd192zM+/al3ZohE3+Pf/uvmaDz0Bb3fjgoJr2IP/3ruOfO6JdS9Ibb9jQPCioK22KgAF/3ATgAs/ym02QZnNFrOz8ND/Q29b98oLuzy5hhvYv7lxxwMPVS9hQGXxopGLX7f2V39uNS7903uLusMFTxiYViWUBI4nF5KBpEsMzVK0fs3YDRcv7/DQ7NHHp9/6ga33PjjzoT/f8fef3S2At6rg1dQNb159xrNZ0NwwMHZedp64cw6VD9FA5gu/BpIDD/TFywJYARNclwJKbh5x2I7UGJnxY5/9eo6YyvA+AP7kbHOEuIc3LIkiMp8bsV0F/szBz8jcaIQABhpIhJlcOnt3fsk5K086Qb8x+eu/37Bz14whBRTsH9X1BBFs3SGLfvyHD0lajBW3fXvXrbfv8FpAGw0D5ctiiRNAGWNljtBPDue4oyffd/lRp5zEfkMyRspeT02PfOCPnv7Lv9344PemvnDzjjNPmVy9qvqmd+nk2A9dsHJk79Q375rOtiQVcHfmRp0/Uk1dBzMcADAs/Khb2hrYz89/zuR1bzn02KMqH2w1GBDMD/2vzX/9T1s/+aU9aw9ZdOKx1ZEEmOc+a/FpJy++5fY9u+BTN27cqk40kYQpHw8tC1CM4xqSDCSdq2/PR66f+O3fWHX0kYsjvXp5zwNTV3506xOb7Bi45dvTm7fPnXtqXS/AR+QuPGdy0+bZex4BrhA9OJoJHB8prAUe+SE6N0cyvJ3xi1UBiOq+IVk8/OOlgBHjy4JxPR0QOpUmYg0ZPQHw2ArNlbUP/mBk/RLLWZaBcItQdvbNuSoBUH87hrOUpADs0G4JAMgVd3ZCAIhAywBgjnCCzHnuWavfe+mR69d1WWs2bJy54r0Pf+nm7Tj4tm6b+fQXdzzzyIljjqr+xAssvy94/oqj1o/d/M1d8AGcwp/InYFyAMQE/gEPWP3xdq94RhHb/3jhirf/2qErlrftfalyJDy5YebSD2wA90EPH+H9yjd2bdw6c/YpS5FLVLn98rB1ExecvfSu+/c8tRGGXNEktkNCqm0BynAYMclA0pHJCccsuu6iVYcdWj0Ub79rz1W/v2PTDshedmEdH5u964GZDRunzzltSVU3QuVzTl28d8/0t+93oxA6AAdGcHTJstUjcI0P0UCmtcBUKuojCpQsAL0yV+1qCfUlesZZhtORWgOiJwD0ZJB9ACJgZMGxILVSnDo6kdjPjbzk3I47AD/B3EalewIAXmEnEdFICAZc099RSvjZnzj00l87bPGi+L4vwhEvYdZd+u4HH3gUlhg/Yqam5z7zlR27ds+d+fxlbBSJAILyWcdNnnnqsi9/fdfUHnh+UcrKOzU7O1AOAEZNlMwEqNwEwCpx8S+s/e8/tbrDeg3NQjAve9/jjz5Jn9c0vt/9wPRtd+5+4emTk0uqM8ryZWM/+KLlm7ftvfvBveXrSxNJt7Sx/rETqHoeSQaSDpo6+5QlV79+FXw8jDVbJH7l1l3X/OGuXXuANkDDfzPB5uAwMnLvI7N33j/1A2dOVnUKdP4Zz12yctnoLXfOmPGAQyI9UlgzHnH2foi6u1XQBItVAQgHlGUgWTDr3FoE9znm2Ul65DMaGupIbW5u/NgTXl8yi3lsheYK2of3AaajGiAcAXGACkBik+Da2lclgDSyjcbuAwZKAKZbijobKnIaNkRzc8uWL37HxYf/5I+sCbwsvvjHG+Gh/+M74NEUfNQQfkIy37ln93fumXrRmcs7pJb1aydefsGKO+6cemqj8jtcRJacQiaD5gBAgVmEHhVMJ1hcDl09dt1vHfbiM+teYxD/f/7s9mt/b/Nu+HWtZgCTHoSnNsx85qu7n3/ionVrq++Lgdh5py9dd8j41+/YMwuZpSCfYiSFOUiq6nkkGSQ6WP2vfP3qZUsLKPLojIzA+973/+n2afrj702pXwHGRh57au6uB6deeOqS2qF48jMnDjtk9OZv77UfK4JoQu/ER5csE49CmmAKNaTj/tsHyHxcPjDOssGv+Re5ay/Hjz3x9eXpY5B9AHQ5tomLnR8BnFg3JzyCsa9KALleN7NpbvTQtZ3eAXg+ZkDxTuIlXOY0MD5HHr74Q9ccc8rJ+ssMjoPy3r0jf/iJDX/8iafnzMywYTdFjAyIjz5uXgnALxOsXll9TwevBH7w/JVbt0zf9UD4284pG6bxeW6+9gHMI9ZOLJ568uR7Ljns2CPrHjcjCjz0/+D/2vxX/7DVRA/+ST+7ds/e+JU9a1aPPxs+5Vn/A1YveO7im761B7ZlJTkAWmgi6ZY21qKZAHBpT6xAESUDpvvRF0++7ZdWT1QPE/O2/COf2NHcgMQM7AoArYyMfO/pmVu+PXXeaYthXMX1Wq9POHri+CNGvnIHPJCDGwJ3owMm2FO2v5wn7twC6YeoW2dBs7/2AcQzYoUvh40SN8GuXoF/rqo7NwkALspMg6imNqUgw30f8JJzV5W/BI4iCwsx08weunZxl5fALrj2DFFjiToq5JfYNOyNzz17zQ1XHH3o2voJNzKyeevMVe9/7NOf38KRvRySgVcCN35+e7dXAvA67rwzl5u712/umGm2876VjMTzHEzRedgHQEOhR2nL+NAfnrekRarGPPS//qmvfQsWZmVlnp2Z++qt3V8JwKbqpect/e69e57aAG/+VV4meE0lgZdVCSXtsJJBo3v1Dy/95Z9dVfvZM7j3+NO/3fZn/9h81CfjEd0FwhOhjdtGvnLb1HmnTqxYXjfsjz5i0eknjH7x1qlpfDgX7wBwT+CSpeQljwsfooG8kPYBuFDYMRCOf80/7quRXQIAsdh0kH0Ato/UwY0gtWJZDROy4EJVAgj6uJlUXLNuzfh/esVaDi7K8aeA0kphJ6XlqIGmISaDPPSHD1q89Z0Pw6vFzIxr2gnJDPhK4KTjl5xxyvKvfqPilQAOX3McfB/gAiemWFgKBn/o/8hT9v61ZH7gK4FzTpusvZMFP8ym6kXLd++cuvMB6CFoTf9pIumWNlbdUi1hzKyEJWBs5Ff+8/JXv3JF7eoPe1DYNv3DF5sH9NBEngnLASPbd4584evwMG1i7Zq6HADp87znT9x8x/T2XfAU6ODfB/gdAN6wDrAPCG+L7FAPBkV6cSD8fkDKWtbAFIKC3FG26aaFTmr9AR6Ti8fe8ZYj4ZdvWytmC2/83JY3vv2BR58yz+WVxkIysN789T9uuuYDj3b7LQH4PPjH3n1U+W8J8E83m888Zx2qKUhg4LPqH3r74d0+6Q8Nw0P/37zuiQ3bg0xaQvWOu6Z+45qnvnNPl98SwF+9fssvHrJkImg3FwgXPIGXVQklOTDUM4Oxkbe8djV8LXPt6r9799w1/3PLp2/ea97S0w8TSeea9GUbdk5c/pHtHaLn/rK8S5zNvDbvA+DHH11D7hwxoUs+RAOZTywNhNDaBB6itnqmjJjgekWXWMaty6mxHQAC5HM1bwDkQfYBdIPT3MKY+x3/kVtqppgJWaAwnzuAQybmZweAzMJb74j2M5qH/qc9r8tbSnzo//t/8RT/dKYSv4TMQ49O33TrtnPPWF67BwdHli01rwTgI6f3Pbir8DE2dr05DmEfYD7p/5uHdf6kP9y9/sU/bBUdUaLadCq8Evj0V/csXToGn/ePernkEp5rn3Pqkpu/tWeHefKk/zSRhCkf5wxLtYRx0IgxWL509OpfWXH+WdWvoLZtn73sI9vuvG+6WZ5CSnkmfgWYnZveO/Jvt+yFJ/vwbCfg1XoBD1nhKd9/OGvxbXfv3bT1IH8fgEu/n0ED7AOSBABRzvcT7wJYQEzd5ijYlILM//uAqgSAHsWhdG8C1s1vAsB4pe8DZmdfeM4h8Htehx1aMeKRORzxof+npIf+SickOWDjltlP/vt2eKpz5OHVTOCVwEvOXrb2kInCVwL8UZt5pD3g74hhOBqPBv2k//VP3fwt+IXpcPGicAtjnZU5EV4J3HzH1BNPz5z9/Mmar/e29vAM5IdevOzue3c+vtFOMAcsnDGSIi87AJRxEGKOjS2fHH3nb6w67bnVqz98zcMVH9l6z8N7Z2fwHjRpOFFQ2z4HmFvdkc99c3bdypHa37ODD+O+9Kwl9zw09dgGaKm594chATuA4OiSZZ4MsuJDNJD5DasGQg62CclMbKkMTHC9CigBAvyEOCXUpARggNL7CZnSIPsAREQ3wKX5eh/QIQGkoUTN/CeApJNA8ZqfOuySXz1sckl2xZFD32jpoX+ujtKT4YgBEHgl8OkvbVs8PvK8k5emqSrXCulrXwn41Dsf+wD4ep95eOj/xF4zm1qdV6KK4Zibu++RvfAC+ZxTJzu8gl6yePRlL1kBnw29/e6iz1k1kXRLG/UHTeUixsZs/SHj7/vNNccfu7g1AKwBJz782PQl79/8CPyeBC5GuOymS0meCc8BI7NzX/v29PjIzKnPrttFTUyMnv+CySef2PPAk+Pw23qGHfLhR2KVJ+PcMs+HYTWIjsFiVQBCaFkB6BVHnNbMlFjt54IyCcBErSgHBFFNbQpA5v33AzokAOyVqI8huENJACa2trPhof9Vbz7qp390TXHXB+MHHvpf+b7vbdqOd1tBEb9QOsGRIRNQfOPbux54ZPq8M5bDdCJ9oQC/4/qDL15xx91FvyWAQxmPEJZB9gHwJnDQT/p/5OmdU2Pmq08gZElYIveVqGLtubkNm2c+f9PuE44eP+Kw6k0VjAr4daej14/edMf0TPg5+ogMXNohJHiVAABAAElEQVQYpnOQpnIB4yOPWPK+N6858rCJ2gEJNyJv+/D2Tdvcb8nB6o9Pt00aSNJSnkmQA+ZGvnnvzOZtc2efsqiKj/l82gsmt2ydufuh5vdU4h3AAf+5IFypsMfTYzR088E2gyifAMyYKsoBBmUhfV9Q5wSQhnJYCcDEdg4m2weuPub0UwZ46P9nT+yFdaFgcig9KS128MVBX/vGoK8E7nmw6F2oT71d9wHwtP19lx/R+ZP+5ruS4KE/hAkGARzxRwqLKzNnJapNVcifu6ZGbvzq7kUTo7U3s9jW8ccsPueUxbd8Z++OnTN4t4R68dhEMllwiWor4xOOW3LDW1bXfgIHaNx6x663f2z3zp3sS6IwiJQG0lDlmUQ54L6Hp57esPesU5YAWPkPzAn4lqFli2e/fifgNXdISIkfiVWeDLXohyjbDeyvfQCNUZGVKYV/bFlo8a81AYD3LaYUGzNrzAUeBZtSEPdsiz9io1bKQKB65wSATfGYDikBQBNnnrHqhiuO6fad/vah/79vQqpRZ1PAIkGJXzhi0HbwVwKFvyWAA9oOazhVvg/4jy9bdeUbD+vwmAXcxE/63/St+Jsp8a5Rja0SVYwjxHZ27tbvDvRK4OXnTT7yyK6H3GdSo86lSxtDad5aqhJjuFk/57Sl73rD6g4x/PxXt7/74+ZDwMTBC+C4v/tO0pLEBG15DoBfMbnvUfjWoCl4sFP7NgVuC1YuG7nlO01m8kwkVnkyllKzuvGBamW+WGkgPjItkjQTc9UFPi4/RUM3R01LANByzjQhNcg+AMHQH1jXgtRKDZUxGTAB8JgOJQGMjb36J9df/huHw0Ne8qxcsA/97zXfR0bhih785dCU+Ekjj14JnPqc6leCQINeCew23wOj/PjUW7wPgIf+b3rtIT//02uqbg+JB369zyNPCItXM9+bilJYCAEEJapUdXQU9kM33b6n8yuB889eAVxKXgk0kUwWXKKaMIbV/+pfXT0BD1oqhyR8pfMHP7HTvfIlV5mAcbTRTBpOFGRJOcAwmht5bOPczd+e+oEXdPq6iLVjX79zZgY/Icf5RKzyZIiVH6JunY0XqwIQQssKQKymJyJW/jNCkNgZjkitIAE0HZD/TIT3gseWBhsr1h8ozcv7gBeds+rkE/XVCr8O2tMLJYzpvCeAycmJyy866lWv7Pj1Pp/58vYr3vPwpq12wUKSmAaihB9646/EQcCKhZEH3fr1O3bBN7mfc1r3VwK33blnwyZhnfVNw4hpBhC5o+4D4Nf03vPWw19y1nIOUi6br/eBh/7xrX8AML/7gNGxsU2b9t741emTjhnr8EoAyMArgWcePvrV25VXAjaGUm6yA4CNgx972aq3/Y+VAM7WiiAIuYv//c/b/+j/bTcDr+0HHtxId9xkwpiQDgXKAXA5Pjq7YfPIzd/e0+3rIk49fvRzt86Y9yjYo/HRJcs8GUuJDVE+XDlVKeqRZwWX0FBxfwRMXGaiecRxUv+Kn6vpN3DWK9gHgNQcE5tEEUWC/iYLLG1QRJdBNQ0kqNz1ArNouXUJqSOfMfn71x330hd1/CMkH/vLDe/6wCO7p+wfi4AQUaoHniZi+NpNI61QzYDc+MVtF7/j4SeeYs95tYaofN3a8Q9fdeSP/MAq0rQI2PXoTgtV2N03f6Om+kutoWn4ep/rP/b0B/9kY8ZXz85X8JIv5VILVV8NQMbGtm3Z87YPbYLV036FmS8uki544YqPXrHuhCPhd2WVydtEUuBlVc3p1T+y/A2vrn4LBcx/9692/Onf7eS/F5Vh3zSD0bMxTCglCoKiFWBm1jh7//fm4O/JdBiE8LuK179x2boV0FITNM4nYpUnQ6z8EMV51xyJqqlWAEJoWcESy5ZHBcSqfVmIqJXtALCpNH1EFJpLvCFwtwWJTaKQMMzNIPgDxyC1UtVWkBeX7wB2zLTvbMp3AN+4fUcrqZGzXrC680N/+OWaK65/9FP/vgmagB/M7T5ETaxRaW7HCm4c2qnmQOBT3vBbAs89cbLD3Sv+lkDJKwHyzroqPZYYxkP/JrTyAe8Xc2EhGyWqWA86yMCN3PqdPU88vuesU5d2+JwVfHnfhS9cfv9js997oi0f2yEh3ZEC1Ymxud/4r6t/5keqb0fwT+L865fc1qnIbVh2+d03rELhw6Y8SLQCbN058sVOXxcBX9V3zimLbr59z3Z4eoo9Gh8dqzwZ14dQw09DLy+M9wF25cwvC9y/mgRgHI07DiOSHvfj+4CKBLATPrPc5lF5AritSQA5sNf89OGXvuHwzp/0/61rH7rr7h18Zed9jLI/wo3D0HIAvBK48QvmtwS6vxJ47uRXb92tvhLg7vBnQeaT/q895L93fuj/3Z2XXf+k+NA/HcOkaaZSc6Xl19wAICgjOJD7vjdz0zd3vQC+135F3VffAAZ8c/LLzp2ETxbBH2hzC33QCF00kXRLm9MuWTxyyS+sfPlLqp+ewdc8vOsPt37+lt2j4/Dbtg5Od7upinG00UxsEoVDh3b8NwVA3tg1PQq/Kvyco+eqbkRgTkDivODMxd+EXxU235QIqHlWeTLEyg9Rd7cKmuDlZQEIoWUFN1qyFcICw6HZOsT0wmWBqFUmAGiMTMOGoyseW8GmAKTz+4C6BNDqUXkCgF9/xXuayDPz0P/io+Ghf8GaHIXQXPqH/qE9znnsY37LbNeCskETUY2bz4CAeqBXAocuuvBFK76lvRLgTpl7rWYfgA/9XzzIQ/+Pbmh/6B8HgV3P8z6g6dBNW+f+5Uu7jz9qvOprD4gUfK70xGPGb/n2zNR0tLOnKvZGlc/BJZMT1/7ayhe+oHr1h4+fXfrhLXfctXt01Gxigh9lMGHdedoHzI3A15F99taRZx0xWxs3+MY9eJP89TunIPIH6z6gcFnAHqtPANCVRZ1tunyQfQAkaDtqKp8F1SQA2EE3W9GMR+UJ4Bvf2ka3KQR2+GGL33v50WefXj3TwHF4zPoHf7Xh9//k8egvaWBM8IirZJzq8X4kTPjcistElSu9nMkBUAE+nX3TrTvOOX1Zhy8Ogs8a/vAF5ouD1N8S8K7Nzj7vhCXXv/0ZA33S/+82mz+QEKZS76wmQTDsTz4sWEGJqq1kmcxMzXz2pj1TUzNnPG+yAzVYAc8/Y/Htd+7ZtA1GMlF0VN25iaTZB6xcPv7ei1adcnL1H5eGz8te8qGtD30Pf7FDclHSufatz+aEcbTRTGwSBSHwfQA4OjczC18Bfciqsdqvi4DN0w+eO3n3A1OPbWzIcD4RqzwZYuWH6ILZB5QvC+Df+NEn/rLwRWzkX04oCA2Y8tg2o7P0wR9vFvzBKAcjgGokTGoSAHwuxdm7MwGDUJMAthsot1UFsNOft/z9Vx939DPqfpEdW48e+nNKXLZhaaKMvc6PJvoFK4rkN2skD7Jxy9y/fX4L/OmFqp04QtMrga/dths5sya9SO78+MvXDPpJ/9t2Wty8R77hvDT/+4Cmj+64b+b++3bA56xq/yoWMIUnSPA90vBh+ZZXAhjJww9dBF/z8Kxjq8ckfM3DpR/cHL59lQaOpEtiOU/7ALO8jHb7uggYfuYvy2+aueeRmYNvH1C1LIwfc+Kv+HUr6as2RVFnG4BB9gFIAIcvOBY8YiNyIZPKBAAozt6dCbgqATRxt39L8sd/cPU1lxzT4UvhoekHHtrzlmsejh76EyUuUFhAwF6Pj8PdB8ztht9xHeyVwGknL7nptrZXAhOLJy76hbXdP+mPD/0fC79OZ4AcAKb2RwNJRpMz5GcCmZt7+Mm5z94yBV970OEPtMGbZHwlAF9GnftwEXxw6LffvA6+5oG3XyLfde+eS39n+6Yt6QtnyUVJF7bSRBDjaKOZ2CQKQogXK/i6iLtnNm+fg9/7pTolAqTd5i/L7/32AwDZ/AMzkVWeDDUUz7tmPgaLVQEIoWUFoFdyS2ejCqlN+BYjs2gwHJMAjON075ptXCoo8wr5OFaJTaJIW6p6H1CfAJoASM+CqhIALsfLloxe+saj/tur1hf0VOqoeeh/+XWPbNrcLFhlENhu7sg7W2jPqZROYCPGWdgzlOArgRe+YEXtL2oCBOwezCuB7+yG78yJkOFy/dpFg3zS/x//bes7f2/jzp3S8/G8RymNVDPP+wAkMzu7Y+fsJ7+w6/ijJ2ofbSNDeCVw8nHjX7sjfSUwdsqzxt/95vUdvuYB/p77lR/dvGu30DtNo9LAkXRJDOdhHwCfvByFD52PjsB3/jz22J5zT6v+y/KnPWfJ8kUzX7+7WVihFw7SzwVB8Gl9wKxAy4JNAKbGMHMA4A+yDwBuOICQvUzVDbtOCaAJQJIDqhIAcDt03eT1Vx179hkrypZu9Mke8aH/R//40b30pf41i1Qu2xv9cPcBhr95JfCNneecvrTjK4EfWJW+EjjlxMkBH/r/1d9vaf4qchBnf1ETXm/VSGBqfzQQNypd/dwZRgz8GxuZmZod5JUAfI+3eSVwz/SmrT7tnXv6sne+aV3Hv+f+J5un9zaLdY65mZvho12oKelCgCaCGEcbzcQmURACrgBm7Yc6zb8HnpiDr4t48WlLqj5WCyGHXygxf1n+jmmzc+J8IlZ5MsRKnIP7ax+QY+U/I9QsCz4BgIG8sBJSTigIjQGHau5omooGTaIQW4M8hlGWqTYgXROAYRe9E65KAKefsuL97zj2mCOrv0cXGoZP1135gSc+eePTsdcQtbJkQhneuNHEmh8p4cf44bXzP9TSVSuZDZv3/tvnt3Z+JfCis5atXTkKfxgdaQ/40P9t730cPmFJxLNCq0dZK1cwr/sA+JUUWP7Nb4oB/B137bn7kbkXnlr9zQdgC68ELjxn2Yanp+571Ny2/9B5yy79pTWL6h6QGA/N33P/yy2wSjTzwmjyP9LAkXQJwjzsAywmfF3E03O33Dl9/umLa79k5QT6y/LwDg+GxEG9D7DrZ7NEgLPjxzzrV/hSLC+sSb/FiqLONkaD7AOwUVwgwI0gtRKhuZEXn1v8VRA70y8ncJ4058IE8K3btz3nxGWXvvHoDt+lBcThof9FVz/03Tu3kROBULNIifcgEDGjH/4+AF4JfPbL29esHDvpWdUfMoE0d/IJk6ecuPjmb+3+tf/W/aH/Ld/cedn7nnjsybRng6D6i5rweqtGwklkRA3EjaoIgF+6pQd1o6Pfe3TPZ78+3e2VALxJhoS6eGL0pGPHf/2/rql9NAf3wh//v5v//J93G79KfyQXJV2I1+BjK7atxCZREEK6WG3aMnfLd7p8XQQ8c4Ovi/gy/GX5Ofcb9SKrPBliJc7BYLEqACG0rAD0ym4NEYFY+R1AsyyMH3PCr9CNL1ZNw5olwQvKvAqiGjUMaAUg6vuAwRIAIzE3sm5t0Z+EPP64ZS8+13ybSoef4KF/zr64s/ldfyqr6xS2r3RCKxm4hf3KN3Zu2rz3zOcvr113oHV4gvHTP7L6OSd0+YIHMIfvV7j+Y0/tmQIPan5aPVKB5nUf4GY1ZOuJsR1bpz/5xd3dXgnA4gCvBM48pfqjpbD6f+Djm//p33ebTyInj3ZaoyENHEmXgMzfPgD+QN6OEVjHz3nuRO2v18HfsXjBSeOwcdy1d9zMlIN0H4CZgBYHt2j5B4amd4LvtUi6K6sIQbLVmn0AlMJuQPjWDA2EuIEnAEKXLc2JRWNzufdaDapok1GuXOHCmKkgqmF+/e+/3XjtDQ/t3l1wu9psxUWcVImRkY9lOEonaCD/8OmtF73je/DJ8ZSbqoE/jN7hB7/e54//8vEOtsZE86gF1pt6Sa6uRBWNEATGNrwKmhjbs3vm6t/d9Mf/ZzOMln3wA39c+uqPbvn013ZbqkWMOS/JQNJxG7sIoOM2holNoiCEeAWYHXn86bmLb9gGH16iOoXCic9cfMNvHXLEmrkxGIWcT8QqT4YaEmdfQLUAhNCygiWWLY8KgBXtAKAILtnKFRIKuEYwLZchSK4i/CIfFOGxQw5AWPAE+XekmiNn9WWeKCDZ4h0756667v6P/XnNglXc2djHuWPhYqf4r5G5654dv37F9+BPhWRDMH8FkGkuuvbRf/3C9pGxTtkDmWgetfO1M0kDUaLKmQAi1G5w//pfd/7We56EX8Rt5zBgKYzJS65/8uZv2S6zVIsY85YlA0nHbRq5WYswjuaY2CQKQkhXgB17Rt72e7s6DL/D1o2//zdXHf+MZgcADXg+KDsS7kwcIiE3+wKqGkiEKV9qQ45b+TWzsTKXvDiKecA1qNd6UexVswPouA9ABhhlk9Yi6q0EWWHoPitoxGJPYkPlGn6t5o1vv++Lt1TfoRSu3dg8Zkf5WDZoFP/bQeCrjzdPXfbeR+GzmEo4BiuGSQ6ZBv5MgoWZLdhO5Vps9yhn1ei9qZdkAyWqaBSBzI7ccc/eN77zae+mjN1dC9nlrTc8/Z2HzBCjxi3VIsa8aclA0nGbed8HTO2evfoPd8PHWGs3T2tWjb/vTavOfDZ8KMu9D8CI2Lg4T9w59CK4EmdfsFgVgASI4gV1mFgaKmnNBDXQS1bAkFDANQRquwpBcjUH3wfA+wAAR5c6US0jmnOgk/7LN237ld+6//6HYPXv1HpxZ9uwNPVT2c/yVi8UihoZeKf2oT96Ev7Bs4Vh/MB3+r/1PU9s2Q7+OSqDbAKAooPpxtbOJw1EiSq2nYA8uXHm4us2/MsX3NdwdqMoWcEW6k3Xbbr34elZ+giyq2apFjF2NuYsGUg6btPIzYrk77sTm0RBCOkKsHd67p1/vOtfv1gdscnJ0Stfv/qlp6U7gAN+H4BrPi0I0pYZQszyAoQV11kKdJEQgrSYwD4AMkFzTGwSRYRDXQ5eNUtAJ6oR6DAv4e/n/cX/23DMMxaNji+ey/yZb/M9i/P0Y760a55+AGpubjY9RvBii3feP/3Rv9r0hv9ySLfn+1ETdPmJf9j6ua9th+e2pBlQGB0bn5s1j1lQoOPEyMzekXE8DthEYD7epXf++VMbl4yv6vZXJYLW3QXc+//uJ7Yfump21cqli0enp+bqPzHqoLqd4RteMfGgMDaxCC7DY5dAEZl//tKeNSvmzjtD/yNRZALC4kUjb/kfa5Z8Yse/fHXa3hZgSraJ2a1N7sxtIxlXJ+FI62wBSIQpXAKx9IY+qefvlJo1U0oAYBMSGmoOSPYBYWeHTBJ3rAK8ohyQq7MQ9PDXPODfQmByEHD4uR9fBf8OAkf2rwvwxOOaN6yGD2TAo5LmjzntXzoLq/U3/Nzy9Wu2//kn95ocAMtrdMQVXFuj6HYbfAtkfm+tgRTFpSwHIBQyCVdb3ggQYj90r810BWII0mIwj+8DWlrpi/oI9BFII4Drfr/6R5GBgMC/17xyxX9/xYT5fAEsr/DDj/Skq2ChgztUsI6OwbpaABIxFC6RnlAgq/IJAOqHhAKuMpqkDUGkGkaX7APCigUg/H1AaNxf9RHoI9BHoHsEfvZHV7zi7IPwfQBEBBJA6+IaFg41BwCbQfYBHbl1HxW9ZR+BPgLfFxGAfcDrfmoF3rwHOwB7u+1WSXduCUq0A4CaoAnWrgKQFnxbVLwPwB1Aa5thYcBVJ+JqhCBOG58H3wfEiP11H4E+An0EBo7A8uVj/+HUZhXzn1DiewK3wLlzrsHgHUCzTFsNvxHXQHLggb4sB9AjoNY2w8Kh5gDwYZB9gAnBXEg3iEp/0Uegj0AfgeoIwCbg6Gdk3gQcyPsATAD9PqB6QPQGfQT6CHz/RAA+ImW+ZJRuqw+WfUC09LfeO4eFC30f8P0zNntP+wj0ERhyBGAH8MiTrA3MBOmRnuSEqyWz9OJCeB9Aj4CAVpQMPFEvhV4NNQfsi/cBoTvezV7qI9BHoI8AiwDsAG69E75uJFwyDvx9AE8A5BsJLAAkhoVDzQHQ5qDvA4h2TgjdydXq9X0E+gh8P0cAvk/i8c3Jr+inOwD7jMgtK+7cErr9uw/gCQBJ9vuAls7qi/oI9BH4vosAfAffx/92p38BEAXgQN4HpAmAchYJkbvNZVh4sO4D2v6irBSVXtdHoI/AwRQBePLzqa/sufwj23dMp0ulc/RA3gdkvgvI/oIYLPMtbgeFkAOG951xyfuAkFUrTddL8fnl/+GQbTuUL1g/4tBcfGK0btfw3XCbtijfk9l8K7wIHwahaxXR7vRTlsM31olFXHnj57bsrv3zW2iPN00c6wCRccO+MMme9MzF6lfjwYr2tdt2bdy6T/6+zABh2u9xnto7snHT9Odv3fv4RoxVeM+bugZDGjJBesQlVFujWn4/wK+rGkhKStAgSVeQW+DI29Y2w8Kh5gAgDO8DIBM0x7BhKEsUzsHs+fWvPSJbtq8Kjjtq0Qf+4NGNG9132QftmikAbsFPwUofWAYXnZbat/7akSUJ4H/++dMbwr9SolDVyJT8ldO5rl9xCgGFaUbHIEqdLzSPioA1ECWq2MbY2C/85Ao1AcCnWf7s77ff++C0TKyoJTIValuVUEJWTgCvgxXT6elcAkKVrZDYJAqy8AsrqSLBMHSZMo9jjdr2AY1xwRpFg5MPVCPTGlAAEjkhXLIc0O4WluIqJOAYVVg41GdByT4gpBQyCcsW6NWxRy/58DXHrV1rvtDYrPfBEe8JDPOBPMNxaWCUH05AqZovVqhqZOBPsao/o11/0Q8DSkeFqsoDK2getcPYlV8DKaKqgbQzsaUFLeFi1IwWobZVCSVJ+0iYH6MqJSC4MmIczTGxSRTUiL5Y8ZDmcQjQCJ4Jl52xOwcm7IIGJ+gCmfulgTC8vOhca08A1BQJEmJYqIdVwuAOiuWkHPrngqilfSJgDjh07eKgv233+FiGMa5k5jq73YwTaK/ZXqpQ1cgMNQcAc5/n0OF2Z0pKNY9aMLypl+TqSlRlo05arSUclC54Qm2rEkra+UgGki5EaWpg9GwME5tEQQh+gpGqRcjjeCPOhMu0wBWA+CHKhmtAtQDEU8pJDb32BICmWKe1zbAw4JprPtWHIGk5ag7KfcAHrzkOcgA4mPS9j2VZeDJhs3MjU8rUSIApuogKVY3MUHNAkOfcMtbFSW6jecTrpvJ87gNS9A4apf8M4rztAwJ6UsOSLjBCOoZTs1LN+z6AN1ZEhjPhsjN2Zw7MZT5EA5myCNTWQDhgVjYPl3QgqkGCBBgW+nVLqpvVhSDZau2/H9BitlCLYB+AOSDob7us+FgWh0fys2yRmrclUaLgdRqZoeYAoOET7bw53L1zfDC85EPFpe5tcJQSWWsJB6ULnlDbqoSS9uYlA0kXojQ1MHo2holNoiAEP8FI1SLkcbwRZ8JlWm0LQPwQZcM1oFoA4illpCZnFgEdUPuAjLf7TL1j5xz8q2qOcgBYJX3v+72or3IN27mRK55nvUJVIzPUHMATrX3aOrj3mkftLfT7ABcfaeBIOlefzrQDwPvuxCZRkKWfYKRqEfI4gZHfkSCfkJUGwodoIFMWgcY0kICPdIHLegkQNUWChBcW1oWV8EIQUqeC+D5g527nVGqwrzRbtu69+Ip7t20v9qQhBjngQ+86fiG8D5ivOCn+ayvmUHMA+OgTrbuVHdRxzaMWfG/qJbm6ElXZqJNWawknuAueUNuqhJJ2PpKBpAtRmhoYPRvDxCZREELdYpXHIUDzGSf4SY+0bBeA+CHKhmtAtQDEU0oktlYWAWH91qphYcA1aT6rCEFy1cT3AQ8/vD1Xf1/q77p352+986HafQB8+BJywPpDzR+wTvrex7IsPBl37dzIlM63WqGqkRlqDuA3Vv0+QO55pf+MUf8+QA4dahf2PoAlAKCrdzbVIEHyPSz065ZUN6sLQbLVkvcBX/ja1qnMp5xbQIZR9N3vbn3zVQ/U7gMgB3zw2mP7fQD1yFBzALTiE627laWmOwpaVmuB9aZekqsXzw/ZvEKrtYQT3AVPqG1VQkk7C8lA0oUoTQ2Mno1hYpMoCKFuscrjEKCwA4hYFYD4IcqGa0C1AMRTYlKYAKCgCGhB7wO2bJ7+6795gvm4P8X77tv2lqvu65ADfvfdxz/jiEmgnvS97/eivsp5r60vObtYX4ajUNVAhpoD+n1A3KfptdJ/xqDfB6Rh85qFug9IEgBQ1jubapDgPfVSWOjXLV+jQApBWgzofQA8F/r4Xz7x5Zu2tVTeZ0XTMyN33b+7Qw448ohFH7j6OMgBfHnyN1kuLO7cySFt2S0FLcNRqGogQ80B4KlPtC7Kpe7n6mke5exA7029JFdXoiobddJqLeEEd8ETaluVUNLORzKQdCFKUwOjZ2OY2CQKQqhbrPI4BLhg9wFSAgDWJS7h7+C1Vw1x6sJKwQtBSB0J/H3A9N69l1x778f+9PHaW+8Ic34uZ2e754Arj17g+wBcN9mK1RYzpSe1xW6oOYAnWnBHodrmJSsbDKb/XJALpdQbks7Vp3Ozvvm778QmUZBl3WKVxyFAI3gmXHbG7hyYsAs+RAOZL8IaCMMzYu67gJockMkODoKaAiFfNSyEsOJW0YGUnUOQFpvmm4Ls9wX9xV8//v/9vydPP3XZ+kPGFi9bMjczMzo+3mJbWPS61xyxbm0lDuSAe3fCPuAD1z5r5Yp8rBIGRx45+eFrj7voqgcfe3w3FPJeNz3kYlkcnqSBBtSOS6lQ1SElSANGsCtWm5FCVQOBHKB+XxB8V8S8fF+Q+dqgNlfKyjSPWlB8+tBAlKi2tFFbpLWE6yaOCnERsQAaTsJLMpB0oSHUMNPGH81aGfZqoiAEP8FI1SLkcbwRZ8JlYlUAgnNNOJJfBSBEKZ8AoEoREEQT6rVWDQvrwkpMQxBSRwLfBwCr6b0jN98afigo7P3IPL1M09WrfuzQ6gTQ4EIOePMV995w7bPWrKrIH4evX0Q5IO31/Z4DkJKd8No6heFVelIDGWoOQEfInf2eAyBikIXMWqGFBarsox+l/wwLmDVmmuNtAS1Mjp8FKMBxFniWDCRdaAVXzRqFcbTRDFeBPEjdYpXHCShxJlzGQGkgfIgGMq0F0JgGQnzCQJCaBABSfqgGCZJBWAhhlSppumIjeh/QRCKELQaB4QuWHamGbdLV3ffvesPlD27conwNNdVHAXPAwnwfgEMQY2WOZq3Sf5RKGshQnwUBe+6OQlX3tamhedQC40291FJ9nxRpQcFZY/OoNNktgIaTOCMZSLrQsKmB0bMxTGwSBSHUrQB5HAIMdiQiqwIQP0TZcA2oFoAAJS0BQJUiIMRprRoWBlx9bDQpBMnVjvYBcbUyEBi+GOWOVONW7fUjD29/6xV3bdjYJQccfdQyQEn63hMs8yzDrNP6YkPU2NoJX4ajUNVAhpoD0BFyR6GaCWes1jyK64fXzd0ITMb54DIzHyAFGP3ngsI+DK+wR+OjC6s7hzb+ig/RQObrtQYCcAUJAGrpQFSDBM/VS2GhX7d8jQIpBGkxGHwfgJGFNa4j1Qy5ex6ZedNVD3bIAfB9QZADgv62K4InWBweiVz9+kIhAjifmcpwFKoayFBzQOSOQlWKpaDTPBJMnMqbesmVdTjPD4jSMA5KHCHiImKjWh1cyUDShfyaGui4dT+xSRSE4CcYqVqEPI434ky4TKttAYifcWz2BVQ1kLIEAKw1oMaxg20fgLcwdsH1ISiKhe/pVJqdfejB7ZdcXb0POGzd+O9ce9wJz1xAvyec7gDshLdzLHU+0Cih1ECGmgNsv7vJqVAN3MpfaB7lLU3JfO4DBmNieRYEpd8HtPVpvAPAPnZhdeccAh+igewXK2XpLk4AQEFjw2q0Vg0Lg3yVczTVhyBpOWkG2QcQN7vMFYSA2m0XoN9hH/CGt99fuw+A9883vOOZkAOC/raTmfgORrRmaUAa4p1I4fMKpSc1MkPNAdCJ3jV0tb1fS0o1j1owvKmXWqprRfMDorSCg9IFT+htqxJK2pElA0kXojQ10HHrfmKTKAjBTzBStQh5HG/EmXCZZnABiB+ibLgGVPMgNQkAWOeBvEv2sVJr1bAw4MqAFDEEyVVeuO8DZmeffHRnhxywdvX49VeaHAAuJ33vY1kWHjlsbrrKpVyLBLB+ejwIcgB3CtwZJKo+boPB9PsAF0mpNySdq0/nZt3zd9+JTaIgSz/BSNUi5HECI88EdwB4dMbuHJiwCz5EA5mv1xmQygQArWaAOB8nt1YNC+vC6hooIGOrDrIPQAiMLK531P6AArwIfqxTDtgX+4Ay33hYkmzU5KeyxS4cDknbGki/D0hCVqzQYlsEpPQfzFRTA0eLuIhYAA0nISMZSLrQsKmBjlv3E5tEQQh1i1UehwDtfRLnE7EqABFnX0BVAqlPAMBaAvLOWAmRW6uGhQHXBC6rCEFy1QbfB/D3AblWqvVN5sd9wJMb6j4XBPsAfBYEjSZ972NZFp6AeIckF9x3NGOXa/p9QBBfurCTnK7rhH4f4OIljXFJ5+rTud8HFH4KiCJGgh5fqkECGTMhLPTrFquiiyFIS/1B9gHErcP6mKXULAG4D3jTFfc/8VTdt5hSDuCrrb/JcmFx5yyLqMAhRGr9MslDLDOVLXYKVQ2k3wfonZSrocU2Zxfolf7r9wFBtOIL7IL0SHfcWngBUJyDtHaZFkOQTjsAJB4CoS45Hmz7ABPAeZkqSaTgWdBvvO2eRx+vzgEfuGae3wd0znBpHuKafh+Q9HmjGGw49fsAF1VpPZJ0rj6dv6/3AQMkAAigHl+qQQLFnQlhYZCvWC1FDEFaKg+yD2iBHbzoyQ3TF11+T+0+AL5YAnMAX21dlvKxLA7PoBlOvAeB4Bh92WKnUNVA+n1A96GoxbYIWem/fh/QGkXsgvRIq60WXjvXkt2AXwughgMZLAEwoFafDp59AL4JaHV2oMInN8102AdADvjwO49/zkkroO1k/fX97jpdYdh5B4C4aR7imoMgB0TuFEZVCfpgK6/dByhtlBUPxsS2URCU/vcD2voDezQ+urC6cw6BD9FApoUfLBuQgROAA8pRafTElwSpeljo1y2pblYXgmSrJX9HLKiZB6lglQcJ2oou4LOhm2ZgH1D7LAi+ZPSGK489+YTlQX/byexZl5BChIhX7WWSh1hmKltiFKoayPfpPqC2n8T6WmxFo1ip9B+sP6aGG2xCbasSSuKmwmvJQNIJVui4dT+xSRSE4CcYqVqEPI434ky4TCt4AYg4BwOq8AW+hXdknpkoFbCBe9PGtLVqWBhwFdsVlSGIWAWU3T4XVLcDKGMSMxwgB7z/HccNvg8YcAeA7qR5iGsKR50SPztR4/jR9VBzQOSOQpU4tQuaR+3W81k6L0wKgtLvA9p6Ld4BmA2+f3yjhZcP0UCmLGIX5X3U2cSXBMn3sHCoOQCar30fUM0ndEdyWNJBDmjeB3TbB0AOCPrb9q/n3k4KbSVa1TrxHgRQjL5s1LVTVUGGmgOsI84dhWph8MrCUgiWq1ZEdV6YaC3hoHRDTqhtVUJJzjnUSwaSLkRpaqDj1v3EJlEQgp9gpGoR8jjeiDPhMq3gBSDiHCSq7hGQ9dY33UUqYGNTDjkgNhPiEFexblYZguSq1e4D6nYA2GoZk5jh2FjnHAB/S3KQfcC87ACs6824SrORnfBlo06JnwYy1BzAXYNspFCN+zhzPU8wGXSrLqI6L0wKWur3AW2dNcx9gEsA0P4+6mwaDiRIvoeFQ80B0Hz5PmDYTHwsmu6AHPDrb7v3gYf2eH2BtHzZKOUAqB4sUpB6XWzdOUacr3WMcMV7ECjt9wEUoliYl8kYg8bXuQEQ1JsXJlpLOCjdwBNqW5VQEpBNLiQDSRcaNjXQcet+YpMoCMFPMFK1CHkcb8SZcFmdyR6CvYHDedccgSp80TH7sd4yTQcxQMzZHwzvA3K+yfqisAimmzZPXXzl/R1ywIevOe6kE4f59wPMe5Si317mGSiVC+88lPhpQ7ffBwhjyz9OFgudUoutq9d6VvrP2Pb7gLYIDmcfYBbioGv2UWdTmyRIvoeFdamV8EIQUqdC+T4gtS3SFDOJ0FwO2BXp2y8nJ80+4MznTWKX8pXX9Lkj487tYPNQ2u8DqoM4L5NRa7VoAMwLE60lHJT9PkDuMTeNTSmXa2ayMAexsaBr9klnN+0ezPsAv8RiiIVA8wJFbnLAgw88VJcDli4dve7KE844dTmgJ33vCQa9rxBJiotHC89AqdzvA5LINori8MrmZdqiATAvTApa6vcBbZ023/sA/w4g6Jp91NnUJgmS72GhX7ekulldCJKtVvM+oAUEi2SqxUwi/A45YGx0BPYB7337sWeculJYc+drH1AzWpI8xDJTGY4SPw1kqM+CoMu8g+5WNurH6kvNo2pAyUCJKprMCxOtJZw1LnhCbasSSiTHvE4ykHTewkhNDXTcup/YJApCkFcAKo6EPI6vyJlwufM+wEPvn2dB0H6/D+Cd0CZ3yAEARznAxLq5g2BHP0RLhl+WnJ0b2XIqSPMQ1/T7AApUIBSHN7CqvCgaAPPCpKClfh/Q1nvztw/wOwBsL+iafdTZ1CYJku9hoV+3pLpZXQiSrda+D2gxC4twnZWpFjMJIUcgB1z0dngnXPcsiHIAX239TZYj485Rm62XOBahSs1oYRkoyUllOApVDaTfB4idqkQVbbTYisixUmsJZ40forG9u+PVcHJ2gV4HaWqg49b9xCZRUBPyCkDFkZDH8RU5Ey67qNDZmySSnYOJPrS13qa1ajQlLh0g+wCMWqHzMHyHkQM2b90LOeCeB6YKaWA1yAHXX3UcPAuCy2T99UO0qK94w3yEcJnXSeQ0D3FNYS5RqGpkhpoDIncUqkl8ZIXmkWxVqS2iOi9MClrq9wFtvTcf+4B4B4DtBV2zjzqb2iRB8j0s9OuWVDerC0Gy1aR9AE7sFpOoCOvDgitTLWYSwUIO+M0r77nznrp9wOJFI/g+ANGCRQryviPjzlGbmUvaATjQTD1BneQhlpnKRp1CVQMZag4Ah72DteNGiFaj0jzK2VXplagi1rww0VrCQemCJ9S2KqGk3WPJQNKFKE0NdNy6n9gkCkLwE4xULUIexxtxJlyumclyAoA2AgLWW990FylAzAEs9PcBOKVz7FM93sLYpTYMqq1cFJYUeGTz1tlLrrm/NgfgPuC05ymfCxLay6nSsZFqMrY8A6Vyvw+Qw1YcXtkctRpI0ajUQNoIUFlBS/0+gKIlCIPtA7IJAFoKumYfdTa1SYLgcsgMrlorSwBGV2zEfz/A3YzkQGM9ccPMQZdBvWImgdXILOwDLr6iOgfAPgCeBZ1z1iHCmtshltEOACnWjBZ/m8xvmVEuw1Hip4F8n+4DtLAoUa3v6HD0siutJZw1buoJta1KKGGtCKJkIOlC06YGRs/GMLFJFIQgrwBUHAl5HF+RM+EyLXCtIG0JANoIbK23vukuUoCYA1i4+4Dxsbkc6XY9DN8h5ICRnXtmu+WA337bURecMx/7gNyoyOmTMKV5iGv6fUASsEZRHF7ZHLUaSNFk1UDaCFBZQUv9PoCiJQhd9wFKAoCWgq7ZR51NbZIguBwyg6vWyhKA0RUb4T4AvzwuB+b10nck4LoGaUCmWszEt2L4z+7cZfYBt393Z6DXLmAfcNVbj4ccgM0Ga255UKAVcQeArdeMln4foPVYUl4T3sTYKTSQolGpgbjGWs9aS/0+oC182AXpkeZyJrx6AoBWA9t90tmNqwtxH4BpoK0n8mXDeh8wNgY54O3vfqBjDjhrabr45p1IStrHQ3spA+MZKJX7fQALFRNZeDForEwXbe5mIKJNMP3FGqDUQHJ2gb6gpX4fEEQsuqjfBxQlAGgl6Jp91NnUJgmRu81lWCjfXEt2gS4ECYrCi9IdQGiFV8Rtnp8FNd0B7wPe+o4uOeAdlxz/krOWwo08X3Yl+l11NaMlTUVeU4aj9KQGcuC+D7CDquYJpQ+Gl+ReVqJqx3dRLbkB0moY/T6AQiUI2I/pkdbvJLylCQAaC2y1ESOQS1UBYlqMmoW1DxhkB0AewlI7zzmggYb3AR1ywMTECOSAC8J9AFGdH6F4tPAklMqFt5nKsNLIDDUHcKfAHYVqYfQbGASDL/+o/en3AS5iUm9IOlefzs0a5e++E5tEQZZ0U0iaNiGPE1h5Ju4JrdE4Y3dGk4oEAAaB7byM3gAx8MJdUA0SXAk/h4V1YSWcEITUXBhkB8Bx7HSd9/cBTQ649Y663w/AHAD7AEhL87UocWeNXDNa/F1//7mgOI6Za7qlqNkBIJbvGS/JrRTMj7qOlpsBrdZSvw/Ihs5ErwlfeqSwsvDWJYC4a7QR08aSyhgb0iUC8mytGhYOLQdURyzxxSiG9T6geSd8yTvuHiQHiITnQVk8WjAJ5Y6FuSQcDgl9jcwBtw+wtxT1OwAMTb8PcENEGjiSztWnc7My+LvvxCZRkGXdYpXHIUAjeCZcdsbu3GU5c7ZNc9pECjjlLgJEsRLVIEGqFhbWhZXwQhBSO0EpdtWUM3EbxrOgPXvHLnvn/bd8s+5zQbAPuPay43/gxWsU6oMU14yWfh9QFWl7i1S/A8BWfM94SW6/aAJoIDJ0pNVawknk9qxCbasSSqKWokvJQNKFZk0NdNy6n9gkCkKgBYE0bUIex1txJlwO9wFdEgC0ERCw3vqmu0gBYg7ADvJcsdGHOHVhJdwQhNR1QhkIDN/5zwHNPuCK336gNgfAE+Sr33LkheevrfO0qnbxaMntAOyEL8NROkEDOYD2Aehph3cAvPf6fYCLhjRwJJ2rT+dmjfJ334lNoiDLusUqj0OARvBMuOyMZ+FRhDYHAjh24TAaVVcQhhev3UGRvaA2SWit1RTWhZXwWlugWopQBoIrGqQBmWoZSMoEPhsKOaD2WRCsIFdedCT8HbEUcN40NaOl3wcUhh0Wnsml4yWV4etActV8z3hJrls0KjUQGTrSai3hrLG3BdENYANlATScqFl5PdJBmhrouHU/sUkU1LS8AlBxJORxfEXOhMsuUE2+skS9VaEUEOgKErQVIAYl7OJg2wcM633AyAjkAHgfULsPgGdBRx45zAQAfVk8Wvp9ABv5srh+7cRr/tOaj7/vqJ96ufnVbvXnhksPu/6S9S87Z4m9308M+n2AC4m0Hkk6V5/OB8w+YMJShgmZGw7klCRANHA9NoVdQQLgADEocRfUA61Vw0JIrbjOOpCycwhSZpPU0kAo7ZtNgFnwJKoaSNKqVcD7ANgHvOvyZ551mvkD8Qvop2a0YGRyx5Khq8RPIwPPgkaz9802qKNzs3OjfjZUhZq7Zp8JavarV4ydf+6Kl79k+fOevaTqyQ9UPuOUpfDvTTvn/v1rO/7xMzvufmAPbw2CYX+0sChRRRQNxDXWetZawknE9gFxR1gADSchIRlIutAQari7HBvNxCZREIK8AlBxJORxfEXkkB5HZk0CwMHXefkOCOyTzm4cgw6GloPGvcMohYV1YSWsEITUdUIZCAxf7AuZahlITMy8D5i97J33XHflicPIAd1IWZLFowUndu5YOHQVqhqZoeYA7hq405IDlk2OnXnKkldcuOrsU5fCXm2Qn+XLRl954Qr4B39b4tNf3PapL+zYwj43ADeEZsXQwqJEFflpIEVeFLQEN3lm7thPM+/fHAA+NWsUxtFGM6SU90heAXJhyuPEFpxMI5sRhIPPVO3aTwGBriAB1wAxKHEXUAN/WquGhXVhdQ20ZxmqpQghk1xl7At7P8g2V7Z+GUgKvmdqBHLANZcc/6JzzB+Emd+frqQaFjWjxYalmd6pfNDvA846dfIVP7Di3NOXw8I9vz144jMXn/jMda/72XVf/fr2f/vyji/dNg3jEHrG/mh9VDQANBDXWOtZawkmONg76kJtqxJKWtsVlwAdBGo0iyodU5w8SN1ilccJHMNOZUd/C2HTZtd+Cgh0BQm58qdLQQm7WMj7gCAkhnOiYI5YEW9hcATLI6AAJIUFDTwLuvK6+9952QGcA2xYmuGbyoW3L0r8tKG77/cBsDr/6AXLzn/hyrWri97xir1fooTvB7zghSvg34aNM5/6yq5/+syOx5/cY+9ctbAoUcXmNZASkuWTyC5oyV2UpVrEmDOSDCQdt2nkBb0P8AnApc1+H5D0ICqKOpvZVm76XCPQjPnB4TufOWB2dnpsCDnAhcWdkX7lsWZpSO/9ueag2Qccc8TEhecf8sMvmjzyiEWV0Ry0+rq146955Qr4d/tde2784o7PfGn7Tvjzo1ofFQ0ADaSIutZSvw9Qwgi9AD/N0ScAtLFps2s/BV3TFSRgHyAGJexiQe4DMMrpHUuRR2Ybe4DkAJ+kyjxj/cbF4tGS3vtzjbpOYZsKVY3M8PYB69cueul5y15yzopTT1rCw7NfZOAA/3751YfAu+Ibv7zzW9/d3Z5flaja0Hf8vEkQgYKW+vcBQcTSC3oHwIv6fQCPhiDDyCv8aeILXx43YzJB6csfjo19YW9vIwSol6By26wM+4CREXgWdPXbngWb/Wy1uoJ9nQOAHb/rT+X2dQqdU+K3b3PAimUT55+97IIXLh/81W5d1xXUpnfFDz82/a9f2PGpz23bsD37EkKJqg39vsgB/T5A6VuzLo3EOwC0wRlVeDOVNhMMAm0ipeaCJkAUyhvVvtoH5NqP9E183ZfHJQ4kisgaLof3PmB6buya9943XznAjRbga5wo8Cz11WmKRwu/60/lwqGrUNXIDL4PmFg8cd6pE/Bnec4/d1XL72e56Ozn8zHPWPSLP7PmtT+15ubbd33mC1s/e8se85ukyY8SVayvxTZBlRQFLfX7AClwXicngH4f4CPUWfI7gLlu+wC8hYH2cYX1t9mcUsEc4NWt3OwD3nnDff/rd587+CNmN1o8wW6kiFvJ/TtWTu/9uaYER6GqrVPdcgB8wPL05y592YtXXnDuipUrhDVU6LJ61dT0CHyq55EnZ3/4JcvhsX49gGwBnz0974yl8O/1W2Y++bkd//y5XU8+HWcCJaoIrMVWbj7Sai31+4AoYNGlnACwkruz67hfC7pmn3R2Q3vB7APA5ZGR/5+9bwG3q6juv7m5eT9JAoTwDASICCggKhUUBETk3aLVarX9t4oKCALhbXgTIDxFatFWaz/bWostWgRFFAxWUFCUlzwChAAhCUnI+3nvuf81e+2ZWWves/c594abc7/7nb32mpnf/NaaNbP2nLPPPrgDqLMPABBYYZufAzo7v/TZKfVXf6DH1lz5JTY2+sXAZLwkR4t97U81m+E+YPcdu/7sXaOO+sDYbbdu4Ue7+r7+1SIIv/X9ZXAL6TGHjj7ogNE1vzpABxHuSvrEcWPhH7r78Zw1P39o/br1PapCUgAkD7SCdQgJPbX3AQ6/FapQApBXdsXnxXA9m//HhqaPBltEfPHHOpdKeeSF+tpVljf3WOwAKu4DkAmORbnU2vtubk6U/LChHV85Z5dmfQbA1lx4B6hvcwAYSzOQLW8O+4BJE4fBR7uHvXf0Hru18KPdxUt7fv7rNT99YPlrS4o5S+Lgd0+uh/+tJyw//ODRxx46qrnpB25UPWOXoV/4hNhw/PiB1Y89sxHfGkqKyj5ZFtr7ABILTAwlAKyIMyrxYophFycsCPpksItuN5t9QMGm/j6giZ8HjB/bddVFu+w9vWlPhnCsuX2bA2gGsuXE0GWB6ojjyD7Y+V7QqBGDD373mCMPHrXvXiOyntZg9x/QrFnb+9s/rvnpnNWwxAeqQdEby7q/96Pl37tr5QF7DW36hkB9jWDBwk33PrT+579eu3DJpohXkW5fLQvtfYAdHvEEgDNKtKw6TiwIqoIw6gyRlcgTqIF/waq8UF+7ysbNPdbZB+AlDPDB1dZNlZvjJL/V+KHXX7YrXLI5S6spHWvulr0PGNI16N3vGHHon4095EDxlkujt6MVqz/APv18cZ/+r1as3pjzEKJGQ2wInt44ceybR75/TNM3BPC+4t+cNOTTJ455/Ol199y/8oE/9nR0q/noCbE+WRba+wDb+/EEgG3a+wDbd7ma+vsA6BFW28o5YLspI2+8ZOemvO9Pbbd3ADJa4JJLVExITBSPy8lLg52HqCbx8iVCNUgGnha31+4jP/SB0Ye9dwx9WkPTV3+4HfP+/1v5kwfXwRV94ayc1V95t9FYuryjdRsC9ci501Y3Hnx0LTxy7oX5cAey/y/oW38zXhIZP1G5vQ+gLktNADiXRMuq48SGpioIpZ6wrkCf+Mc6l0p55IXui2tZt/6xzj4Ae8exKJfd5M8D9tht5OxLp44f27S7QZQr6DpLZbHy9+17QUDJl43KnJTwURYPB2WlFFyhu+OUoR8+ZPSHDhvX0qc1rFrd+OVvV9/7y9V/enEj+FlYJJaz2n+wIXh64++eXtaiDQHc5oSPnFNfI3hz7WCxjNh/Lt/atSKamFPa+wDqwNQEgG3KWVR1nNjQVAWh7BNyAFRvfx7Qsf/eI6+8aDd6WcrcWO8ksub2bQ6gGciWEy9fWKDazpGhO3li5/sPGveRD46FG+TtWs3SwN2cv39q3U8fWPnw71dv7BlUzsFiLwhdiDxQv6fCoqUre+HjgRZ9QgAc8WsEf33i+PKRc0/0ONKA9G0tmyLjJ7Db+wD0cF4CwBklWlYdJzY0VUGQevnKEFmJPIEa+Besygv1tats3NxjnX0AXsIAH1wL3FSJOUcdMvqcM3aFz+ha9Gevs1Qz8PYBo0cPOeygUUccPHqvPUc2/e0dOkbPvbDh/odXw1Oa31zZXYy1+P4t+haHvgwAONBm1WQyGVu6IVCfFS9b0XPv/4lHzi1ewt8aIkyqmSJakfh3grT3AeiWvASAbTDs3lI5AIgPtH0AmARrQbkEqLdacITwtZgDJx0zCe73b9E61Vt8uIccwq+KYGxiUgMsOXlpoBnIlhND16A6dNjg9+4/uikP4rcMYwp1N+crC/EtflGKVqh61KgyDlRZZYG7FzcE37975X7Tm3/LEHCEt8vwkXN/mrvh3l+vha8RbFBfI+BMKhpkjJ8Lpb0PqJIAdCxWHSc2NFVB2IAyRFYiT6AG/gWr8kL3xbUEqn+ssw8ojQHvya1A+ZGrotXZ8dlPbvupj22rFIkC3F7yxpJN6beK08XIJ4tLsr59L0i7pd7vB3R1dR6w72h4EP9B+41q6dMa4G7OXz686he/XvXHP61zPmLBHj6adJv4XhDtCOKrpRsC6Ott04bB/9+fXPw82Zx1L7xU/DxZnywL7X1AlQSA8YHBl3gxRUMKZbbS9slgF/0OtH0AXsKUy65aYjs6Bnd2nPnFHY4/aoLt+bCmu7vjilsWHPiOkcceMT5c0yili5FPVgTZ6BtA0dPkaPFlI9RHQ3fPqcPh/f1WP4gf0i3cLgnv8zzw0Mr15Xshqe/oUANbtA9QoyE3BKv3m97V9O8QQC/GI+dgQ7D0ze6UL/Ephm4hIdS25H1A9QRQziLwevKENEaIDU1VEIbJEFmJPIEa+Besygv1tatsnHTkIIEmdfYBeAkD4LjmItUhQzoumrHrYQdlP+xz/frei69f8OhvFh/4jqkBws4iuhj55LfEPmDnHYZ/ULzFP7bp98safpv/6oZ7frn6/ofXvrFkA9xC2pe/J2wwMU/9kxFGVm0I4LvNR39g9E47NPm7zfhZ8d+eLPIifI1gzhO9jejXCEwD+HlsJm7J+wD4mkrkK47cl+ZZex9geoSexyIP6zb3+wEjR3XN+spU+MlvSiRFhrsMz7li/jPPrOzorH6rqO/an+o3w31AZ6Ox1aSRR7536PveM7aJ35F2ul3dzfn08+Uv8OLPzVf+TXmablu9D1AWwYbgjvvW3XHvmt13GXbsYaOOeN/o5t5loL5GAI+c++Uj63/24OoXXtUPGlI0UoWEmbhl7gOKHUCNHIDBJ4ahKggbmqogLA4YIiuRJ1ADL3VCHwAAQABJREFU/4JVeeHmvA8ojWk0JozvuuGKaRW+6LvojU1nXfbKay+vqLP6Aw26GPnkzWofMG704PccMPbQ94x8z7vEryW36NNyQKZ3c27q7sUhM14r5wDBnHzU0aLPAwy2Ysp3dDw/b8NN397wrf9cdvC7R//5kaOaviGAz4pPOmIU/KtHzm3Y2FtlteHT2bSlCEpQygXNUbtUOUpsMKpxNXDpaBtBB/4KD5ev9o1NfpD0xUq+BVRv5W3vA/jg8TP/ONF6NfcBMATbTBxyy5VTp0zJfszDvPnrZlw6b/HSTTVXf2UOXYx8cv/uA4YP7XzHvmOPOGhEHzyIH1euBx9c9ubqXrzYV46yhco5gKZbsYyB3230XE3ysrBibQc8Bg7+W7QhAOLqkXPwrYg7f7riseeKJTLLooSZuKXtA2QCAD8mD7btc5k2q4OwoanBRHNjiFpNJBVAwaq8EN8uJCBpIgcJtKn8ecDuU0dcf/muFb7o++Qzay+6at7ylfqOwwC9xCK6GPlkcY3TH/cFwW8cHn7wGPgCVwVfJZqP1eBuzl88uOInD65+5VX9S4rOZ8YZsJVzAODQdNvHOQCtaPWGAN5ogucswa8RqF+uX7ys+EJZYr6LzUSc4HJBc9QuVY4SYxiNU1cDl443gxqt3QeQBIA9JfqR08QzDL7KiYR5o49yABDPvi/IZXqCjpnnrV9tH/CufUdX+6LvQ4+suuS6lzbAT34bf+D/2n90MfLJfZYDpu4w5ND3jcePdlv0dDZ0GNzN+dCjK38yZ/Ufnl4Hy73443OqpTmAptu+3wegB+C1pRsCfJtO/XL9H55ad9/DG+Y8uk68NZTylzATt5x9AE8A4L4aK69Mm9VB2NDUYKLDgCFqNZHUShesGiwkaEExGSRrH/CBg8bNnDG1wkdw981ZcfUNL9f4ZC1orIgC4dvwK5S3NAdsO6nrvQeMhVta6ecirXijH5LKY0+svXfOql89umb9usj9iy3NAeBzmm77ZR+gIoNuCE48fNQuOzX5liHoCO53gP8vfGIc/HL9XfA1gpf594oVFSrEZuKWsw+wEgC4qd7K294H0Egz5VjkYf30fcBfHLdNtS/63nnX4pu+udCkV+E8ZhFdjHxy03MAfrT7ofeP2W+f1j6tARyGd3P+7IHlb64kyTQ2iVqaA2jSFRkY/F5hZI0mMYuM6vQUNgT3zFnb0k8IHF8jWCGuP7x/sbiFhlvCPsCVAMD0GoONwSf8XhWEDU1VEEFA/TFEpaWCipVg1WAhhQvJySDRfcCnTp58ymcmh/pylcG16jf/deF371gsFoUmLAziIj6AQxcjnywgmvF5wPDBjQP2HXH4YVvjg/hd1jdNJ+7mfHjlXfetfP4l8TMsg+Crd8ZfLHRbmgOAC023/Z4DcOhxQ/CP/7nq8IOGn3DoyFZsCOQj58TPk937SA9sy3z3XIXjFhy4JewDPAlAWN/+foAxoYtTWOzq/wVXTAUf2AfA3D771CnHf3iSqpwowBd9b/r6/LvuXV4uV2lM4uAxHLoY+eTqOaCzc9/pI478wLjD/mxci554qjyg7ub81SOruvFRSEVZb48rMmKTqKU5gKbbzWEfAH6CnQi4ZMP6TXfd3wO/ELD7TkNa8R0C6Eg+cq5j6bLRP3t43d0Prl+02P6kK3LtgoM+sPcB/gQA1sfCFx3kfMXgE0VVQdiSUhWEcWOIrESeqDkcryqbVD0m92DvA4YN66z8Rd8rb5z3y/9bAUuw5p3MRDdhkmwvj6xQntDFyCeL6Zi5D9hj2sijDxn5/kMmtvRB/GgEXPLf/+uVc367ZtWqTYMGde62I7vdFjS9vQ37VTqgPEIFQyNOm/WhRLNwHBSFalDn4N6GeJsLBfXa1dHT3TEYXz1NPerBnZAG5vxmdesetYSfFX/s6NHw62nwEzqOz4qDcQu8B/Y+IJgAhPXtfYAnduurY5GHPRj7gPFjBl964bQD9s3+RV9Yv86a+eIzz69mqz/2kcbEb7FsL4++mr5rf6pPzAEH7DfutE9PasV7CD7y8MMmx39oPPz7KrT1m60HIDPutfswuAMYPiv+0c9X/cfda9gtQ7G4BbsG6j4glgDA9Bo5oL0PiEyJhMhDBNwHTJgwdPalu++xW/atFPKLvqvg6k1fZlNyyUxoIyLL9vJIirTou/an+pR9wIxTd4DHtGncttT2QMwDuDuCdwg/cdzYD753xDnXLRNfIFB/wbiFWgN1H+DakCqnKAFyQI2/8pKzKgjruyoIo88QWQk5Qc8kVSWt8sXkHiZvO+Lrs/essPrDF31PO28uPOahB/buxZs/GM0m12QmZsPyXLaXR0818eEkFAVfNUEb7JS/ntxe/X2+betTPACPOr/6rAnDhvPVzw41Cwv2AaArQtdRu1Q5SiwgpnA1cOlYI3FS8Me3c8Wr1cZSKAQ1wbgLVLkt1Fh52T7ARk7QMENqMNFdMUStJpKqoQRS2FwxoYfddhn+j9fvUeH5lM/OXXfGBS8sfGMDrP7AGscCIlhFADMlgQmrb57I9vJolhfn9HrfJ8tLLtGAgk3ZbvjHTsh+xrWTRlu5JXsAbhY64dDhpgdoqJll4hxnjVzQHLVLlaPEBad1rgYunW4hpKIGroflqmi1sRQKAW1JTgCiOz+YQvULeMVXGYT1XY9JyZEh+nijf5Kq+iCS9MEe3vXOsTfP2hM+zkqCIpXgi76nX/D8MvKYB7yEKZddtrTKZkEmslLgKNvLo69qcAcgL7IkiDx2HHfE+BZ/0unj29YPKA/AzdDHHjrKYZIKNUdZqRpI+wC4Esz5q7HyyrRZPZEwqjWYaIMZolYTSdVQAilsrujp4QPv2+raS6fBJ5C5vd1z37KvzHpp3XqGqy78cf1VpwyctWAlaSeyvTw6W/mu/aleXnIJAATbfVfrqs2J3la2PRD0AFxGwBtB8C5QeWFKKwfjFioOpH2AWFZi9lLfQO286rxx+c5vZRDWdz0mJTGGaJBVp/22DzjhmG0vv6DKYx6+d+eya295ecMmr3mwzoZygDK9oiD7lUcfDHIIvuokBWCjR4o3stp/bQ80xQPjRg7SF6YUMRa3UHdg7APK68oEe4l7aqy82t1VQRjVqiDEmJQEqPpUAgNwnuh1y1nsU5IePvWxKed8cfvcdzxgb/vt/1h02zfn4Zv+vn5Aj2MBi29FqgFoUSQtkUdndeQQfhVQQRAnclvZ9kAtD8RCDoNSLmiO2qXKURLm5Wrg0nGUogauh+WqaLWxFICg31hwlfIu6Fm9lRev+Ab8PqDiutXo6OroPfWzu1R7zMMNX5v/re++TkeWjhuV458H0NpVZBlT8ujDCO4AzM8DfCBtfdsDTfZALG6hu7f6PoB9DwDs1Qkh6kvIAXgHUrSmVUGmTXEVWg2EUa0KwngxRFYiTxLCQVZVR8gBGCJKExUGdw26aMZuR7x/XLSmUQGeUnD57Jfgi76lPmaRyk9iEyCGJJuqQcB1KknIo6tOuRfBqPC9FvuAjPB0dtRWtj2Q54Fg3AIUTiIMWnFmraClylESJuJq4NJxFKhRLKrq1abEQcwZVQBwzMAZLBo1/t6a+4Bsg9U6m9JyxOiuWTOnVVj94Yu+Z1/wjF79sbO08YHwxbHIoppiTlFHkpBHX8OkfYCvcVvf9kCLPBCLW+j2rbsPMBMAGJNgL/F0jRwg06ZMWQQ1UWRUazDR3TFEra4pJS6s48cNvvGKaQcdKH6cNusPfh3pzAue/cOz8FhKywBL4UTGsRBbARvB2aBQ9qb6XJKQRyckcgi/Ohu2lW0PtNYDwbiFrnHWyAXNUbtUOUrCxF0NXDqOUtTAuVnOUKuNVLC3gBQKlDoygyo2BOij6ntBgCQWHUCoCsKoVgVhBjFEVpJ3wnHAwsB7QVA6ZbtRxS/6Zt/mCM+jP3vmiwsXrZP0eMegtRSypj4CNzEG4EAZzbqsOZIkIY8+VIwH36uvFdWvX99735w3k0I4I8ppD62Xa0yo1pML9QADFyruq7J99hwGX/VqZm+xuIW+cBKVC5q1gpYACTictquBS8dbFXRg5sNw4KoopjYfmkLhTgDQ2qpu4VNFjZVXpk3osmIiYVSrglBrMo1nTdkJYwao3hwwfdqoq2dOgxuTWfOEE/ii77mXvLBsuXjUrf3cUA3AmWi9lIAbijJ8ZUEzj5KEPDqxyyQk4lVkJOPV2cRQrt3QuOH25N+6adaClYbDp6BBXFwNWSqmiP6mPNTudT5wlMG4T4yk666Uq41ZlIQXA7G9dvpfb9XkBABEg3FblOtwddYuAWI4lk9cDVw63hBqFIuqerUNgBVXLLueP2+Bs74fx1ndUJYXDlVBGNWqIIwSQ2QleSccR62zCgQ073z7SPiib4XV/3ePrxVf9C1WfwA0nhuquigFzsQslec6H0tNU4+ShDz6wDEe7Fdf/er65GixyVBNYB5RbhG7Y2Tg9wOif/Cb8tE6zgpGuq2IYkDHLDKqG6flyh8DaQ5Vo2/naUJPb63PA4rc6fdvgr3ET34cUskt6nWnKgijWhWEkWOIrCTvhOMYOeCwQybOvnLPCl/0vf+h1Rdc/PS6td0GGdgHgKZ45R2D1lIYbfvkVJKQR2enxmIkuDdlTD2dOdWG0kcJ9SIZpDEM2i0v2Yy+yWlLcwD0o7Naszye5hZiohZ1Uy3pUipFvEqr1pRjPeEEl85z1C5VjpIwM1cDl46jFDXQe6UPWRu5efL7l1Xn2I4zP46jsqXC4EucSFZrvr7VY1KC5xlvM5IajqNywNGHj7/03KnDh2d/uxV+0feyq59f1yOHT/YDx6bsAwheK0TpDnn09aEXI7kw+WrW1SdHi00JNeWET8OJ2B0DaWkOQEOUORGqiX6PWRSGae8DpH9co+HSyfrqWCwU6EfxqtuIguiyq6srwIBQY7Bl2oxfB/n6Z1RrMNH4DFGrsyWOAzngUx+fcv7Zu3Z5P4Vx94Bf9J1926u40LsrlTuAAbgP8NnbBH1atND1kco6MSTihBnHQFqaA4AaNYdHbpi3vzRmkb8luSCMgTSHaoCKKor19FbZB4gEkLLsxuxVjimE2Djx2uZZNCGZDfg5o1qPSQnMEHlnWWcSZ2jnoC/87Y7wRd8Kj3kovuj7WnlN5O99oO4D/BY3oyQ5WvT6KNdKmgzIihViJcPBUydGpqU5wDAnQtVjgamOWWTW5+ftfYD0h2s0XDpZXx0d+wC9A4guu0ldqL5qDHZKQlL9OAVGtQYTDc4QtTpbanTA6n/RedM+9bFtc9vCF31nznrpR3cvIRu4CMbA+zwgYnD94rRooesjymZKSMQJE46BtDQHADVtlJ6TYcax0phFgfa6qZbc1Zs1Wd3oVBvrafPfB+gdgB5iv39j9lLfVH8bB1GiCYl3Zp4xqn6LzGaBc4YYqOcv6uwYNazj6kv3qP5F3wfh9vbiL41MX+wD0pj4nSLby6OvZhkPvmKuj4Hx2sZZcrTo9VFuo2liaO8DDL+Wp8nudTZP3Ac427ZEmRBqm9l9QSKxC1cUr4VUOIZGcyB2E+wlfq4x2CkJifTkEBnVGkw0NEPU6kRpwrghN163V/Uv+j61lnWUTKbl+4BkJoy/PpHt5VGXEEnHA1EGxCBYoF1RlBYtdLmn00fLiThhOjGQ9j4g7L9Iacy9keZQHAu1zWwfIC/NC8N1AqDRLGz2+yVmL/eYH4fXc5/hXAqQcTeTWka1HpMSkiHKbtxHUrWzc/ttBt92/fS9p4901/VrFyxY//lznnturvqiL6lKeiBaUxxI+wDTtuB5mns8EMnRgiFKpw+VE0M3QjVGpqU5wDAnQtXjTlMds8isz8/b+wDpD9douHSyPjkaOwAs0RcvcO4fpMQuyt78OISOW8TgE2VVQRjVqiBucmGt8G/Z+bQdB99649477TAs3MIuhS/6nnLWs0sWrTW+xa1rMvO02pYy9wGJuKQaEe3eEzSyvTwmNPFXkSDy6K8ZKEmLFgxROnFMOREnwASKYiAtzQHQvzZKz8kw41hpzKJAe91US4HqsaLmgER62Tz3AXoHgPRZtgeV3zV5U8uPE3FbUYzBFyATBmFU6zEJd8RKoSPIAZ0d0/cYdcv1e1f7ou9Z5z21fFXPRrj3k9nA+gkVkYpb2D4Ap5uwP+A54h6PmBwtdOLYcmLoRqjGyLQ0B1CjwJwIVY87TXU9mGbuA+oxKe1KcMrm9nmAmQDQEp3t4dzvmgR7yYj7cUglt6jjrSoIo1oVxE0uoG003r3/+Ntvetv4sdm/545f9F2+Fr5fCknEPUy6Z2aeVttS5j7ABohpkpl4gGR7efRUS1H3dQ4ATnTimHJa1EXsjoG0NAcwA/WcTBkLf52YRf6WZGWqAaLxmwOi8ZzS5rYPcK8sLNuDHX7XROLV8IEfx6joPH3L7QOOOXLS7Mum5X7VC2yHL/pefuWz6zaVlzhOb5jKtJHYcvYBRbT0dQ6gE8eWA/OIjmZkJGOTqKU5gBoF5kSoUqsCcj2Y9j5AutY1Gi6drC+O7gSANeglTCB2Y13Q7kK5hNdznOl4qxoxjGpVEAczl+rTf7VThS/6AtLt31k4+7b53Y3s50Okv9nRxH2AXmKpE5ijaUGiLNvLY2IzWk1GiyZYAywvbunEMeW0qItQjYE4c8DhfzbmEydNGjVqKHqp8jPjoLk2SnqZer6KHLMogKmbailQPVbUHJBIL5vPPiD0IAIcXD3E4BrPJSnEayiTGN7w4xgVnacQfIJSVRBGtSqIkxhVTt5ueOVf9BVf9YIFx//saNqRKTPzzEJ1bu0D+OhFlh8FUwpuqmlMTCx9LtvLoy5JkzBOZLSU76JVBSu6TI4WOnFsOTF0I1RjZCAH0GdHg/yZkydMmTzkk8eNu+/Xq+748fJXX98IOaDas6OpUWIfgAkhbVy8tWIWeRsWBbAyAUCib8NQTQKJr4kQlGLu4IJmraBlAETiwDbF1cClw5Z85ttoNNtDqfCx+89b4Kzux3FWp0oMPqGpCsKoVgWhlGw59xkPgNDdLb7oe+fdiyEmEFAJNn5Iw8wLVQztA0LtzDIRwZIzK0tmwlrpE9leHnVJgsQWKZFPyzbymABhV8mJFlwV3a9pOBGqMRC6D/iz/UfC6g8GwZMHj/3g2G9dv9P1F23/vgNGio+Yqv5p0/ScrIqF7WIWBdB1Uy0FqseKmgMS6QWDUjrPMRClylESRnY1cOkAJbQDwE74RArlWOgink8Uc3CxZz+hqgQEsegAQlUQRrUqSIBebhH8iNUFV7zw20eXGx4EC+OfANudMfPs4lIT2Qd425kFZYQ4qaYxMRH1uWwvj7okJmGE0FdFMB+MdJYcLXTi2HJi6EaoxsjgPgBeT/rwVsSGDrhAeefbR+y714j5r2y4894VP/vV6vWbaHmSTI0CczavfUCSBcFKMd8GG8vCyPiJav27D0hdsXW2B8rgGs+ft8BZ34/jrE6VGHxCUxWEUa0KQilVluEXfU+d8cxvH11WIjBm5No1qwMOEmjalH0Ahoe+zKb9JTOhjYgs28sjKQqJdHmS0aIJZoLxjnKihU4cU07DiVCNgcDqP22nLljruQ3iDNLALjsNO/Pvt/m3r+78mZPGbTW2q8IHA9oo6WW7ozxNzKIAmmqa/GvVAbDqawsDjYxfOcGl8xy1S5WjhPVjnbgaWLrUBECnk+hJeTqpW6uSUvhxVJWAgMEXIBNoC0XMG/WYhDsKlOIXfZ95bg3bPjFmrc0B1j4gQNZbBOGBY6GXWFqXm0NL0mTZXh5TWumFCTxb7DWLV00wB8zqMDla6MSx5cTQjVCNkTnhqAnh9yThNuVPnzzx37+60w7blR8RWwZ7FdQoMCdC1QvDC5oEw0ErnTWFSYJTcKNfhqjFtARIwOFNXQ24LjUBIC6ZSJtFDtDxVnWcmDeqgnCnZ5zNm7f2CzPmLnhtlXjnB0JAfJJVJAI4ZcxamwOAcf19AI4FmKCXWOoJbg4tSZOz29OFicrCsxJMHtMoGLVyooVOHFNOw4lQ9YNsNXrQEYeMNbg7Txcu2vDaQvHj0hX+tFF6TlaAIU38FpFKdcWeHviNzYhrE5N0hEq0k4KGdJ6jdqlylIR7djUgurwEwCfSZpEDwHoMvsrjRLwRsijs5gql8Iu+p5799JIlazs7u8Toi3VJcsGjPENwXZrVGQfxNa2/D8BLmDJClCG0vzQmtAWX89rrJUlGCNFoX+aBckLpIUcnji0n4kSoelbMoz80caj49Df+998/WUE/N443IDWoUWBOhCppGBKbBBPoYvDgQeJ7ltG/pjBJcErf7wMSjLe8QyZSaMVMsJdA13CxjreqIIxqVRBiTFx88DfiF32XrxY9C/7l5X/xRgroYFhwZBgzkiHiPZAaHIQUmCLZB5hF0XO1pmJ4qFPWMJkJa6VPMtrTJcmWMd8icAaoZiKlnGihE8eU03AiVC0Q2FIe98ExkmvouGp1Az4KhhoVPgZQuNooPSdVYSXBsqgSircR7ADw9lFvDVXQFCaR8SsnuHSeo3apcpQook7B1aDQVUkAdDqJ3vyucXXr5Fco/Tj+NroEgy9ARld1SYxqPSYueKa7694lMy9/ds0G1adYLbs64D4M8v4JKaSN3QsrreGUFZqzVCr5PkBqM48QHjgWbqppTDL7dFTXi5FjB4C7Rk2wFqnkaKETx5YTQzdClZP54EFjtpmY9BiSH9+3fMPGErtyDqBGFdc1jnHJVnGLspsHG8AOAMsjXi0rJdUKdiguPKJ/fbkPSM1/Nmk6wQKxm2Avwa4x2Bh8AqsqCKNaFYQY4xa/+/1Fs254cWN3Dy9ubGyUE1U4Vq6hZR3GrI/2AZxe3hmOBRiil1gKwM2hJU2U6WLkk/t4H3DCkWPPPmUy2EjnDpUTQzfiPxK6J354fIpL4Tsod/4cbkPQf5VzAEBoi/Sc1MhVJGJRleb+NsVnAGVxxKtYqylMYj3hrJHOc9QuVY4Sv6mixNGg+B4AWFXcJhFubZTSSVWAe0Gg24yNRiUyiptYdAChKgijWhVEkbGFm7+x4L9+8KqlB/fItyKBOyybsBWA3ukfYyZyAF4m0CpxmYP46uM+wFeaogduYgwKE9xU05ik9BWug/EQflW+rEUqGC3jRg8+43PbHXbQaGD7xDMb7v2l+GW30j/opSLlC00QRxkboVpgvn366LdNS3oC+YOPrF6ydIMCRwFywID5nrBhmjodOgh2PXpxingVm6UNkOrCLST0hJOoXNAIyZIFLqoJOJyA2UAaX0QMr5p0BvygHr6K2PX8eQuc9f04zupUiZNKaKqCMKpVQSgllOEi6+KrX/rh/7xiF5WZWfZVrOyub9UwZi3fB7h4pupgGcOqGBjqlLXn5rCi5p0YiywA2xrhf0lGHisxkCNoNN5zt5H/MGsXXP2h6Mt/v83UHYbgJRedPkhMaDw4BmyU6kc/knTzD8B+/+6VBjieDvh9wMbeoeBuajs7oQVUThsg2sIhx3rCoJQLmqN2qXKUOHojKtZAJgAor2QVnU6iDz8I65bQcYt+HHd9ro0mJF7dPGNU6zFBaPii74xL5t7/yzc2hh/x1mgM7ewpBt7aASAQY0bWLdOC4DkHCVatWwjh0e85AGyg66xHbkkOgNkF9+B/7cqd8DEM6E14GMPML+8wvNx7i8HQS7+UA/OIDklgJCdv3XXQAWLDEf178rkNz7/Af22UtKmcA9jKgCcEtqLYjMlIu3beBRTwqm7bFCYJPeFGvwhaR+1S5SjRTF2SbkASAFSsahWdVAEQ3a2LlKmrSqawQ3ZVFUS2L0hVBUGLlq/kX/Q17WTnIkOEu2PM3ho5ACyECNFLLLWYm0NLmijTxcgnQ/Sra8FapOTwwds+V567PXzP1n4eOHz/9gufnoSbeDV3kJg6jYSB9I6P6nFHjLf7lY3Y8Qd3L2fn1knlHABI1BwfVavDoEK6N1gptRDvArJrJ1FtCpNYTxiUMoE6apcqR4ltFtWUDXgCgAqVrKKTSnTiB8nj6cehpvhkDL4AGV9D1DOqNZhc/7X5zzy3SiwuDNHXOY5IsCov1OuWD9Kp5yDOKnFlAghewpQR4nRBAkicSUINvRjRhYnJ2pe1SDUa+04f8Y3rdz3oQO8tmB85fML73yuu0NXcQXrqVBiUFnU21eEjuo45Iunj38VLe371yKqo8zAHTN6q42MfGRetTCsY5thUaeVUOc0tKWjqLiC7chLVpjBJ6Kl1+wArAYAnqlpFJ1gAJMFeMhxVyRR2yK6qgsj2BZ+qIOd9aefpe4xx3tdP7FSi6lMJqogIvFCvW6RKXOQg8frOGjEQxa1c4PovB9DFyCeLLC0tkken2X5lZ+cJR0+66fKdw/dfwuX5OadMnrKtePQCXfrpJBJyWtQZVI88ePSY0a6pbbH+n58shx5Svv+19YQhN16y42f/auJfnTjBeN/cQjUV2ij0u1mef57mliguvQvIrmx41a4gNE1hEusJg1I6z1G7VDlK3KylFu4lcf5VsopOKoHqB8nj6cdxcjeUGHwBMkZ945RRrcQEpuJXr50ucgD+MUSjN3U60PYBYBiEB46FXmKVuaKYnrRQ1ouRXHktjSaYS2r8+K5ZF+0Mb/uEn72D5kFgXHDaZOgdJ07pnCLG2FRKizpNtbPzL45hz/70eRM+mrr7F+XHv+EcMGnisFtmTobftQa7/u6j4z9+Irx/lfFnmKOpZmBYVdPcYjVjCuMuIFZWnCRRbQaTlPhvxT7AkwDA+KpW0ekUAEnyrBqQqmQKO2RXVUFke4wIdqYIhoVRIwfdNnv6/u+Qd2XEMVQNJbh64IV63XLV9eo4iLdauCANRK10bqppIGEiUNprfMWCN6CLkU8W6UiSkUeO4jrbd69R/zR7t/e+0/HcTVd1odt7+sjPfHQilirnwCmdREJOC12keuA7R++4XdLDH+6ds2LNOu0sXw5Qqz/yhFfIAfBe0ADYB8BdQFHfJgVA2gApB7qFWE8YlBgnziumEiCGQ3v3JwCoVckqOqlET36QHJ4hHGqPT8YZFSDja4j6PKouLLj3Y/aVe+bkAEAZaPuAvvs8IDZg5gprr7k5OQDQ4G2fGy7ZeeKEpK/d0gD51F9MPOAdYneIlOj0oXJi6ILdHz1aXmfQbiy50dvx3z9daSz6xik0sld/RDrlkxOPPapMXRa2W2GYExsiN4ip9S8vZs3AeQwkiWoMJNC/Lkroqbn7gGACAF5VraITLACSYK92TgCHVHKLGHyirKpFeVRdLHQOSFjYCwDVpxJcuLxQX7u66np1HMRbLVwQA1HcysVOXWZT2BgIreuVwcNBHLoY+WQBIUHk0dHhhPFd131lJ+fdPo7aLtXuO4q0gTToxDHlhNDdeYfh++0z0tWJqXvsibWvLHA8+5PmAHg6NL7zYzYuzs/49FbHHZZ0pyltro3Sc5KW58sJbgmAFl9kii8LgQDQ4PWYlDixnpq7D4glACBVySo6qYRhfpCYvaVbyoMfh9dzn2HwBci4m0ltHlXZih4hB9x0zfR3v2tCqUxCTEgXHEevW7TvqMxBotXdFdJAIDxwLNxU00DcBFCLCDEcvRjJC3BLowk6weBtn2/M3u2AfZPWXJsw3CJ87lWvfe8ufSMmnTi2HA3dk48em/LxAzD5r3vcX/6CIswB22w9/Nrzt4P3/W3aSvOlv9smNwdQo8Acp1cVfqpQAwaavuVyALilWfuAhAQAvVX1L51OAZC8IKhKprBDdlUVRLZPjUy7Htz+MfuyaYcdtnUZ/HFEVUMJNiqMEVPqdYupYyccJFYby602lsKJg+ZDhLippoE4kQulbC+Pzpp0MfLJwrMSRB4FGDD/209sC3f7VHjbB8n84al1f3/2vMf+6LgLk04cU/aH7tjRQ444OOk2zVde3/TI770JAOjBtf/NMyOrv3DCoA7IAR9+/9jc7wpoo8ppgC6p8ep3SxiUfcISA6EB4IWNgXgb0oJYTxiU0nmO2qXKUUK7SfhN4LI6WFUmStY+fEInlajpBwGeabmo6NCPE+aDpRB8glg9kJSOfHUgB1x81i5Qev/9b4g6ScaDe6BesCovBAvxMkF0kf7HQdLaWW0shY0D3MQYwCgIq1xUE0BsWKKR7eWRFDER4yH8qggiGNztc/EZO1S+8If337//w2Xf/LfFgOb8oxPHlp2hC/HxkQ+OhS2mE9BQ/uDH4mFEvr8dpwy94aLtExMb5ICzPzepe1PPfQ+xx8n5wFFPjRJRgAkh3CZamj+jxTeB5RiUmSAGEoumgmUMJGqKqJDQE06ickGzVtASIIgT/1F4zbWqVXRqOWMXuwjy1CxKqSoZaI7BJ3BqgJQ0qh5gol567lRoff/PF4nMGjceauBfsCovdC+sEsh7VF15a7AC+BWBHvCkEX+WgrUpFn3UYHi4qcZADEzrVLaXR6uCUNDFyCcXfMt8esB+4y7+0mT4GUUnWlQJPwE96x8W/u6xFdErKjpxbNlo3tnVefLRSV/+gkf//3ROse3wxP8h7x2buPqjsZADZnx+243di+Y8kpEDoC01ql9yQM/GTWoHIEIY/zxukcUJkxWqxkAUWkgIxq3oRHBRC5qjdqlylJTdZlx2ixbaSWX7lAOdVGEQYU36XyUyCh6CT8j1QBRaBQH2AZADjjl6m7JtkvE4XsGqvBBDpAK99Cby6aG8Y2hvKZyYEB44Fm6qaSBO5EIp28ujryZyCL42ujo7/+4T21530faVV3942+dzM174Hbztg+HnY4PUi+Ck04fKNHQhLA4+cEziqg2P/t+4Qd796Yr/f//vJd+7c1mQmlkIwXzRadsevP9wsyB4bpgTG6Iglip0WaQKDWHw0CFG9XJYDK3RLDG0YyAWqkuR4BS8MClC11G7VDlKRHeZCQBaVLWKTq0AiIenyzU1yBRNZVdVLfJwylDDtDn/7F2POUp+rUYy8kOoGkpw1eWF7oXV1a6ajvyOGO8Y4CyFswtcCCBC3FTTQJzIhVK2l0dnTboYOeVJE4becsVOcNdm4qesRi/wts+/3rH07EtfXra8OxD/Ris4pRPHlGXogmUfPzbp7k94Ku3/3recpR8JQrv+p+8v+9G9+qNpWuSTIZi/csaU3BzADES/+zpI17sscrYWzwLiS6BuqiVn07TQjoG4oQ1tMG6hLs4a6TxH7VLlKKmQAESHLiSDtHVKJ5Uo9IPkoftxLAoOBc6oABlHm6aqYDXJzAHQ/ea1D+C/I2aNnqWw/YeXMGWEOGdWAogNSzSyvTySIlM0F9liCX7n3mO+eeNu8L2taqv/shXibp9v/8ciOUtD8W8QohPHljF0991j2J7Tkr6ABo/+X/iGlYGsSQQ3An31X5ZUyAEXfSk7B1CjwJyEITI8VOvU2d+Wsw/g6S/dk063JTSnsyuw7OYFQVUywFfHWw2QBLtDVTAHnHj85JSFvQBS7lGCC58Xui+uXe2q6ersAxQ3DA91yphwc1hR0olsL4++RnQ9Armrq+vTJ0+85YqdJ4yr+Kb/7x5f+9mzXhBv+ht/OSFHJ44pNxonfiT1O1l33r3UYFGeWmQwB9wF24WcP/gBesgB+70t6YdoKLA2Ss9JWt4q2dgBYDfaGVpyE4hFU9EqBuKGNrSxnqrtA6omACBXySo6u4SBfpCYvdw9fhxez32GwRcg427WPC3kgBmn73TiseL3AsVfkvEDbR8g7N7MPg/YetIIeNsHbvcsRiX7Bd5vgbd9zrlivnjbx/mXHLd04hjytpO6Djkw6QtZz72w4cm58NPTnj+LDOSAm7697L45VuryAKAacsDV522fmwOoUSIOgl00sTDQ05awD6iRAGAQAs4LDpHO9kGQvCCoSqagILuqAUItXvTGJrjuo5oUGXLARz+6Q1lTMvI3VDWU4KrLC90X16521XR19gHYI859iJDWUJXukEenmcjhfQeM+PZNU+FtH2edqBJi4OzLXv7nf1sUmSY5IUcnjpJPPGoCvP+e8veDe+DZnxHLTZxG49rb37j/odWmPngOOeDKc6a8fdrw/n9eUJjnIMd3oVUL7SotqUImBH0qa8ZAZL3gMdZT7j6gXgIAqpWswijUsegHidnLneXH4fXcZzijqllkIPZs6rng4qcfSnjSutHwzM9N+fSndiqVScYPtH1A/PMAw2XZp9Kt8mgDQCR84TNTLr9gauJDlW0EGPpTznnh8afXON9hMOsnxy2dOCgP7epIfPQ/3H76i4fE3Z9+uwteFhlQXP21hbk5AG50nnXedm+blpc+qYEwEyNUTT9mn2/sji+AA3sfELc/7tSqw6QuYUQXfpC8IPDjRA3R8VYDRPWyZk33hTOffvA3eZdO0PyUz0wWOSBhYS/6Uu5RgqJABF7Ymotr3V2dfYDihuGhTjV6EyTpDnmkkNtNHn7rVbt8HJ56n/SdKtpUyPi2z4XXvLJitQvdrC7Pc0KOTpyjDhufmKXugMv/7pJShJlFBhSQA3IvaOAhuJAD9th1s94HRDO0doaW5KjxY8SrWDkGwiE9Z7Ge0vcBuVs0H6EYI1c7lu2hgt81eeh+HBcLU4ezK0DGbOA/37ixd+alT1XLAX//NzuXwEnGJ6QLjtOahbWkXP++IACC8Oj7HLD/XsP/+QZxt49/VEMl8LbPqRfNg7t9QpV8ZclxqyYO+OfPP5z07IeNmzp+9sByGgJUdjCyyIDi8lsXP/yHdY7KfhXkgOvOm7zbjuJ3b9L/lIGiCZ6kN86saRnqbj9Q9wHFwhGJBbdHTG2iI81m7DbnwLKbx7EqGWCn460GiLISc0Du9hmawwePX/jszqVD4sarGkpQFIjAC1uaA6DXOvsAJI1jActca6hKd8jjbruMuPbSabBmEZdliJDp4W2fZ+Zmf/aj+8gJOXDLfvuM2mmHpPtt7v3l8qUr5Ze/ZH/SbnluHC0yGzf1XnbjgtwPt2CDcs2F2+++Y9rHFIQDpn/xquckKW6SGN0BYD/aGVpyM4h41YRzgyRpYz2l7APk1IphpRGqgoKDq4fY7988dD9Oii0YfIGElAKCdSAHXH75U7m3UkDbT31s2y+cIh4XIf6SjB9o+4A+/jzgrFO2g08vK/zB2z43/9PimdfNf7N42ydprHzdJMctTJmTj5WPlfWhFXr4Dtodnmd/RqhaZCAHXHz96/B95mCHZiF8cfrqC7bfcXJeDmArg14gTPCa55aJIbyBtw8QS0Z5eRWJhZBfdFmWO3WzAbgPoO6EHHDJVc/ec1/e1+vBPZADTj91WldHce1GEYnriKhqKIEUKpEXtubiWnVWax+guGE+VqcavQlS6Y7ddx5W7Z2fBQs3ffH8l+66e6FYo6Rv5bESv7RJNHWHIe9+R9KXv+DR/y+/ut5HJULVIgM54KLZ2TkAvkVx48zsHACcW70PSNwBoPe0M7Tk9mvEqyacGyRJG+sJg1ImULM2XjP2fw5g2R7s9vvXtCDsJD9OuB2W1twHMKrdjetueP6ue5ek9EvrwKeRXz5jt+TPhKHpQNsHgEkQHuVYUNc0TRYDNX2PKu/7w9s+XzzvhWdfWLOpV7pdjro8VmKZELcnHp36UIrAo/+RXISqRWb9hka1HHDdhdk5gK0Mchmr5FN3I8s4dzWqHUj7ABG17PIqEgvUD365glMLMJ3t4dQPksfRj+M3oCzR8VYVhFKFfcCs2S/edc/iaL9GhROP3ea8L++asrAXDVWfSjDweK3yLFjZBZCla9bnAVmd5lRujBk1GN4qSf8Tb/t8Y8HF18x7c6X4khcJ3b7YB4wbPfhD70/6+Fc8+v/R5eWFnt+8yPBb8Q854JIbF/5p7gY/pKNkm4mD4Udmtp4wJPfmE+1ePScd+BVUWTsAxNfO0JK754hXTTg3SJI21pNvHyACQ7m0jNwYVhqhKijIRPHZHHIAGIvBFyATdghzRKMx68Z5d96VnQOO//CkC85OzwGCdcGKdW7y5IV63TLrBc85iK9q/fuC8PMAH35dfWfX0jfWZt33Cd+9GjdGPBwCw4OHrvZlmns89P3ry9GHjsl69H8KjUgdi8zqtT3nz1oA3y72sHer4SfGLj9zm67BeZ+0M/fqBcLdRZbWMiu19cDYB+gdQBnH+C5mJBbSfFTVtTrbQz9+kDyOfpyoMTreqoIwqo3G7Fvm3fmj17OuN4HksR+adPGMaUO7istUhui0QNVQgqsaL9TrlquuV8dBvNXq3RdUkVuADS1qdP/uT925IyLu1PrMFIShQVvImm+yeyghKbtCDvATH/7DHv0vIQPHCFWLDOSAGVcvmDsv9H1au7s9dhv2wfclbV+MttrJek4aVfruVDtDS+7eI17FRjEQN7ShjfWEQSmdJ2rrHYDUtj8PMJxanmLwBRKSu5nUsqGBHHDrK9/5Xvbd4kcfMeGiC6Yn5wDoe6DtA6Q7m39csmT9Lx7Me+gNkIBPaC46Y3t4YBxOH/oKFy94NQXV2OjncudLA4zowe8eHf6pXtUDPPp//bpNZe8cR9UxhAhVC0TsA656Zd78vH3AkQePMvpNOWXuVQtWSstAHcuiQF276K2+D8AFgr6DKWwsIzcSC7Y3XJqq/tXZXhDyUvEWuLgEcJzVqbJ+vDGqjcY/fevl734/Owcc8f5xZQ6AoWOIlKySVQ0lqCIi8EK9bpEqcZGDBOrX/zwgAF6n6NZvvga39OQiwIhcee72I4eJqUSDtpC1L5Pd4+qfxD/gfPSYpF/+gk8pxKP/KSuC4+qm1EWoWiBvru4954pX4ZHXAUyjaLedk76+YLTCU+3k+nMSEGEJtyxy9utU6qZaclZMmKzQLgbihja0kfErl3d0XpkA8KRUFUmt33MApSQM9LsmZi93jx+H13OcYeQ5CpJVjGqj8fXbX6rwrVFYcS6/9O1Du4qnEzNEHw8c5WDVYKEP19SngdT/PMDs1z5PY2K0W76y+6zLXq6QAw46cMysr0wdOXIoDVqURZaWZOTR6DbtVMbtnruNTLxdFR79v2CReHOGsgrMI8ojQlWSwSaDBnV8+qMTsx6XPWxYZ+7vyCt6hjkRqqqZT0BbuEW+uj79W3gfQE3CBU4Grozcug4ueqjqX53tAcYPksfRj0O9YcvKM3ZRusagCvuA27+zML051jzkPaOvvnQP8V5Qy/YBuZTK+oZ5fpSW7wOSmVCOry9YC7d15r6pDQjvfPuIWy7fGX41DGQatIXczBxw8kdS3z3HR/9bZELziLoi4j85iYYP64QN0PEfStqUKPwFr4u3jCrnAObkmtOyXLxT3aJMoIJ0Rhwk4lUE1XC0k0w51hMGZbkDkP2KRjRi2vuATK8nVWdD02j8+3dfghsKk1qSSnDVef21+4wq3nlQ15ik3Bbb+wDbJw4N3NZ5+vlzn3wm+4kO8NnmrVdNhWfJ0UtUuTo1JwdMHD/k0D9LSgBwc87jz4jv6xpkcHYHrqWoR1ig0gKUG42tx3fccukO731n0vfRFAB82P7w78ufj6+cA6hdpZGqgyyBrrZUzgIpKr819wGWncyzEEC4ukRiwUJxKqr6l+akQOzmcaxKxmlZrpJS7W4M+q//nD/71vm5IAfsO/K6WW8fNaJY2SmiG0jVUIKrXrDQ1cClSwbZHPcBjcbadd1nfWVuhaf4TZk85LarpsIzhcApNGgLuQk54Pijxqc/+t/FoVwqBZ+0+A+M5O5Th3/1yqnTdsl70BuwWrOmccdP9VNyK+cAZqDMtKDM+1M7AGyW5hZnF7qplpwV0y7YYiBuaEMbGL+iJtsBYFsrcPs/Bxg5KRC7MXu5e5riYg6ZfmZQvetHr0EOyL0TEd55yMkBwK69D0gaog3dnZdd+2KFJzhNnDD4liumTt9jNA1auTrVygHDh3clvtMCn8feV9zRZHPA2V3ySYt/I1DRfXAn0s2X7ghf7EryJqkEH01fddvi5SvYnaOVcwA1sExupK8k0XaCrUkCKiu9tfYBjgRAfVoGSnsfkBMB6XXp1IJ9wJ13Lbzha/PTm2NNyAE3XrdXk/cByST0kmY3oebZpUTT/H2AEdfJTDSpRmNTT8cVN71S4Vt78PzLWy7b+cADtkI0ekWlZhIU5ZI6/H2j4KlqmqFf+uHdS9TMhVqUAOq1Jm2xM6h+7PiJl5w1JfGbaJTmmrW9F9+w8NE/6st/VVo5BzADqdkKOiwYOwCsnOYWJ7BuqiVnxbQAiIG4oQ2tMX6k1JgoukSHiAygfn8vCAdXD7HfNX57tYFa8uPoOi2TGNXuxp13Lrj6+hdz9wFwW8itN759/NhiNBmijzeOe1JVHwTqI1/QTeuh6fcFDWpYtySmMTGNbTRu+ufFFT6lh8XxmvO3P/Rg8bROGrfFtNJJM4vUycdOMum5zuHR/z/+BVthLQKMUmA/TeGRamdX5xl/t80pn0x9DBFFWLy05+zLX3Gu/litcg6gBmbvA3zT36enJvnlt8o+wJsAqE9RBmP7PQcAB5qZArGbNbUCOP4hblqJQfXHP10yc9ZLuTlgz2kjbry2yAEwpAaig6mqoQRHpRSVXsx8tZN7aOI+oKfD9aSBZCbMFPiU/r8Xw6f0uSMCb9bDZfJJR4scoIJWTiXttkRSB+w3bpedku6dF4/+X+74NgNyQAKKT8ktbbEbPqLrihnZN/ygM+GpQV+8+LW589k7P8zPxUnlHFAagq5OM6fs3bkDwLIsnBKuPOimWuI15FlSAMRAJFjw6OrJmwAQyQyUzSAH0MwkSPpd47LX7yA/jr9N00oY1UbjgfsWQA6Ad0uz/iAH3HbT2ydsVSwTDNEH04R9QGQHgD0nkelo7j5AL7HU+jQmtAXK//PjJfBbKLkjAg8X+tJnp8DjIlTQkgmlCaaQ+oujxtqsnJof/eRNp54u/YoP1EQ5MI8QbcrWXV+/cvvcG36wLXycfs6Vr725fGNvwuP2KucAapTTA25leOKHS92IWrv57wMiCYD6tAyUzSAHgIPJRBqAOaB30OD773/j0uuyc8AuO4249bo9JkxMzAFq5VGCjt1ESS9j4QbJPTRrHwAR4uaWzMQw6IE5S86+7OX16xPWMNIScgA8LuLsUyZjxNIJpWYSVA+TmrLd8Pe8awxB9Yrwc13Pvxx6KgMSoNNHy/7FbvquI2+7eufEXx8zyP3o3uWX3rwQnh6K+pbmAOgCzTE41Dr1uyUKq5tqyd0oHABlmxiIG9rQ8p4iCQDb6hCR/i2nFscyOko9rWQVn0gDMAfAFdmcX7w245K58JZu1h/kgNuun56cAwC71j4gaQeABqRFS2QfkOyLMkKcS2saE7urJx5f8aWL58ET1uyisObYoybhI4OsqaSTVAD0L48bn/ik0uij/5EAnT5Udu4DDj1o3C2X75D4+TP1A2yY4IfSbvm2+RsYLc0BaA6l0QS50hql+t2c9wFJCYCGiPJvv+cA8C+dTs7YxTEITC01SFqoN9gap5JEqfb0dv3+t2+cd2l2DoArtdtv3FPkABheiuimpGoowV3PqdULmLPYUCb3ENoHGJj+03Kxc7ogmQmFh0+Wn31+1RlfeQl+/J3qozIs3/jIoOHFT07SCRXdB8Ddn4cfUt5QFO4IHmIBj/4P18Gu6cQxZR7/H//I2K+csW2FX8qENHn+Na/9789XOvm0NAc4e6yr5G7JQtNNteQGSIrKGIgb2tDKnpISALY1A0VFrsQyusg7rWQVn0ib2T6gkkXgNOpOuDf0kYcWQQ7IfedhypTh/3TrXttvg+tNylBU3Adk7ACQBTXPz6sp+wAIj6bnAKD8wotrzpj58oIF3h9Z9JmlHhlkTSWdRm33nPihsYm/U//9u960mzvJ0Iljy3At1dlodHV1XnTqtqd8ZnLi5oN2BAny9EtefSz408FbVA4A52ye+4CMBOAIlM0gBxSeFVbgpNq89gHNyAHwecBvH14y4+Jnc3MAPDH41hv33n7ykNbtAxo91t2WdBnwyYmrVPj3A3zgXI9BC7Ghl1haIZkJbQSyeGTQBfMqPzJo/Hjx8+h0QqmZJPSkM2B+3FETicIrwi32Dzy4LBD/dksrD+kt9ZjRg2dfuD3sWuxWUc2Tz2049cL5r8CvEMfif4vKAdoZWnL7kgaAuwZoYyDehrSgAWtDJpAdNP3+XhCfSCHXJHlWOSjTM6odE6qCGFQffWw55ACY5Aw8dgI54Gs379vSfYB7YY0RY4ucv3L9fQBuUMoIcfZqONpPhpV0dsI9LZUfGQSPi4BHBllTSftSkTr4vWPh8RKsa8/J/9775gr8cCI55OjEofLkrbu+esVO8AVDT1ch9f0PrZ5x5atvrpRXBjEyW1QOAMdtbvuAYgcQGyQ64DRQUIbSfs8BhWcH8j4AbPv9H1eeP/PZ3E8g4cv6kAOmTc29L4iOeUiGVUyvW6GKVpla5KwSQ1Hn8wDFDVdbdcq6SGaiWxVTBh4ZNOPSeQ89skrr0yRY0z9y+FauqaQJIqmTPpz07j98R+HOny5DGwWFnBlt5KF9p4/4x2t2qXDDD3D41zuWXvnVhRs3yNUfvREjs0XlAO0MLbmDJikqYyBuaKItEgCcZwIZQSMA8PIqiTXp3ylmkkEMOp2Exg+Sx9GP4+RuKMs5WRWEUW00Hv3dsjMveHa5urwyOvOcQg648Zq9k3OAB8WjLt3uvLj2NNFqZp5WGxLfBxiFqafAE8dCL7G0aRoT2gJlyAEXXvPKPfcts4sCGrgvXv0OhDWVNMHdp45IvAz/v9+uXrR4I45F2W9yyKmJA2vB+w8aN3vmzvAoiwB5ZxHcq3btbYu+819L3fMuRmaLygHgwM1nH1CMNNKJDRIdeBU0oFRh1+85oPCssCi67ObN9xzPUC9R57gnhlHbdUqpgl3PPLPqjHOezN0HiCeUXV/kABhriujqUeh6UiqxxnrdYurYSXI/uA+IwZXlgzsc75VhoIIP3VSTmRgcAPaa2xZ8787UHAC36l9903xohVGKrOirupr62PHiW8Qpf3fctdRRLSdugcxn/nLryjf8XHjta/eGf1AzRmaLygHaGVpyDCCokqIyBuKGLrRFAoD2+TkAmmME09d+zwF8Ig3EfUBHx9yXN5x21hO5+wC4jxtywPQ9it9iTQqrQNi4i9wLq7su0aaRwX0AaRYSnY+CaNXnATB94MfdvrNAXdQHmMFj+i++et7a4ltRGKt0+hC5MWF8F1yPB6BUkXj0/9Pl4/WVshSSlwZ4ws+nT67yhJ/5r274/PnzfveEIBAZyRiZLSoHgLs2h32A3AGosVGCGUqOc7raolwEQREGkVhwoDlUOWRoczKRNoscoJzThH0A+KS7ATkA9gFLl/E3W6kLXDLkgJtn7Tl9evGd0qYMEPTCcVqaA1w2uXXuHYDkiuHhpsrNcaM7tY3Gv3z/jfAjg+A+/XMvf2k9+QoBMLEnEWpOOnpi4t33P7gneO9/2iT6+YMrcr9yCG6An80567JXF7yhH1oS8V+MzBaVA7QztOSMLRm47kKpjYHIeuzIdwDtfQBzjnVSycUKBdedJuQAQIQc8NKGL5zxeG4OgLd3v3rt9AGfA5w7ADUQsMK2KAf8yP/IINixzbjyFfi5MX01IC5OSibIR712dXUde2TSjywC7Jxfud7/UdaCkBC38PNhN9y+iDaKynf/YuWXr1iw1PpEqp0Doq6jFfp3H1AkAKCDIaICRQmUqUfGgKavAg+TViQWPIiGOocMbaqmk1D6QfI4+nFo105Zz/yqIIxqo/Ha4k2QA+Apu87ufEr4VtFts6fv/47i4WIM0dciQc9x3BfXURgOEq0eqODcAdD6OBYQIW6qVZnASDzwq2XwECfjSxtw/+6MS196/RX2lGbkQyeOko8+bEzib6zDU+rWb5KzmFpoyAkhd+8v30z8JANv+Jl9+8Lubren3FpFKUamL/cBEaqKc+qPJ1wAAEAASURBVFiIWRRorZtqyV09iWoMxICWoYNpiL7mAhVt6Zrb7zlATafSZr9FSZ41PFf1FF0USEhhYEa1u/Hawk2nnfk4vLcQbmWUwtPqb5g1kHNAeAcA3mjV5wEA3Wg8+JtVZ1zysvqgHh6Jc+Gs+c+9tL6nvNgzRsPxWdqJH9narOQ6hzdt7rpvhbjcSvnzx79q/c1/Wxz9IUy84efbcMNP8C/CKUam73IALhNBW5IKYxaFQcrQiIFEvIp9xEAoE5kAsA19hVo5QHS1VS7t9xwARtCcFLAoybPUc1Vl5ZwAmTA2owr7gIWbzpzxZO6TCeD95dlX7vnudxf3mTDEcOfBUo7jvrgOAohCDhKt7qwQ3wHIbjA83FRrMHnmmZX4yCC4WL7ilgXwFDknT1Qac+ede49J/KHd+x5cuWy5fv890EVZFJvRYPHVX10Anyr7oMQbWZe/DHsFXwWqj/gvRmaLygHaGVqivtRyxKtYMQai4GQCQAXdAaCcDCQBBCBdc/s9B9DZJUj6LUryLNpZ+7WZ+wDMAef9KTcHwD5g1ld2G5A5oKcxSK7wkaGC8GhRDphXPDIIfkXggTnwYT2faBYpOmVOPjbp2Q+Acefdkctwq59Q/GPl9RsbM69/xfnZ0rz58IyHl+FJD6Kmfx7RTiNzKgbSBzlAzcQIVWpVQI5ZFGgKRX2/D+BxiezpK5DKMYmutigLAJyLTXFwDhnqazrBAhY1hSPt1ycr5wTI+NqinlEtcsDnz3hq3vx14VZGKeSA2ZdNgxwwtKs3ccU0EBynjJkcfUe9oIqDBKs6Cgd3Ft8DSAPBsYAIae4+AD4PWLxg7YNzlpSLf5CMmjjwiIj3vXu0wyRL9Yen1j3/Ut5wlxixSbRoSfeF175ifIwBX18485L5CxaVXzcTEyqGg90F7Y4vL9VyQK/9m6CWA0t6hRVoToSqB8FUp7nFbFWc66ZaclZMm6wxEIDmCQD7au8D3D5vvhbTUuJEsrtn8dpoLF3e86Wzn543b61dM6CBXy6EHPC+Q7YRdRhioFGsiOO4F9YYRh0yYgeAf5yJs8/WfR4Ab/qLD+jVPIyT6fz4MWMTn755xw8XOs1JUipKntrPvbh+1m2vw/tX+HfXfcvPu2bBitXCGgza8gomhoPNI3bHQKrlgJJ67GCYE6EaQyvLYxaFYfpyH+BKAMievgLfHJPU5UzRrnTpwNkHqGkRHsaE0nIWZbqXArN4xRww40+QA7I4Qg649Nypxxw1SfBhiLSrTJnjVMTlIOkMyh0ANoiBKG7lWuB0QQzEzU3PGtleHp31Rw7rOPKDSR//wvOW/+8x+SNbTqyoUnNzV53z8Mrv/mApBBI84eeG2xf2bBIfNoCLMGjRV+I1hoPoQbvjy0vrcoBtToSq21uWNs0tVjOh0E215KzojFSrZhDElQAQob0PsDzZIgXOJTLsef2weC1ywKlnP/38C3lvDkAOOPfMXQ8/fFvRN0PMI8Nqcxy1zrI60RMOEq2OFfQOAM/TQGAtwLFwU00D8TOU7eXRqAldH/XB8YmP/v+PH76JK5cHzMD2nAaXBmjznf9844sXzP/2f74BcukZ5aKiLXJIDN0I1RiZ1uUAsK50JnIorfI4LV0dsyiM1Df7AH8CkL4QLJUlSghzL0qpT5VLy6kViYUEdMoqrbqqhaGMr9o0VSyFpnCUYKGjck6ATKi9sWI3GstXNk4/6yn4lma4lVEKOeDyC8Q+wNDHToN+4oXuhTXWQYWExHYAiM+Z+PrEsYDYcFNNA/GB64Hy4Hzs+KTLf/hWwf2/XKLc4gHzs6AlwRkNyM++UEaR9kzRhE4iIQdxVIcRqjGQluYAIKmN0nNSca8kxCwKgOqmWnJXj3gVG3lA/AkAm7X3AW6fN1+LwZc4kezuWRA0GmvWNc674MncHADvPl94zq4nHj/Zxg9qWOdmTV7oXljNNtY5B7GKTUXx4CCrjaUwm8ESUHwqhtPfTTUBxIYlGtleHlXR+w4Ykfjo/5/94o3l4tH/mqAFplATBM/SYLTE+ATPKAEqlI5ChDScCNUYSEtzgGFOhKrhIN9pzCJfO9S3eh8QSwB0aJUlSghzL0qpT1EGdRm5TXFwDhnKV2d7QchLxVtAsZohK+cEyIT7YVRhH7C646xzn87NAdDF2aftdOC7kh5DT/iwzom+EHmhXrfMesFzDhKs2iEfHWq1sRQGjuJWLnPqMpvWi4HQui5ZtpdHrHPSscX7b64GVAdvyn/vx+KHdguGiq+TKG0XlP3xr5qp+ESBTh8tJ+AAILdb9SCFGEhKDpBYVY7UnAjVRPiYRQEY3VRL7upJVC2QWALAvtr7ALfPm6/F4GtWDlizoXH6l5+AG/iyiMI+AH5KLKcJRlEwAnmhXrdyuomtHBqLPDqUdwxVLIVuRiRY5nAs3FTTQAieIcr28rjbLiP222ekUcl5+ptHV72+UPwcsVyRNUEJ5mwXU1pLg69B6ZaiPnKgr4mhG6EaI9OsHNBw3SxhmBOh6nOToY9ZZFQ3Tlu3D0hLAMievgLBHJOoT1EWADgXm+LgHDLUuTrbBy1qCkfar09WzslyL0VjVLsbG7sHnXPeExV+tYpixmTVpxJcLXihXrdcdWvqyI+IARLv2KVwdodjARHipmqhOkH8Stm+OH70mK0S7/783o/EDw+wuJUzCfQS1N9toCRtEim3GDQ0pUScABMoioE0Kwf4fh+DmlPLq8rMmEWqoi3oplqyawlNElUCkpYAsK/2PsDt8+ZrMfiic8DXMQsCmK/djUuueLbFOQC49NU+wGc20asfEav8XlBhj7AI17uW5oCtxnYd/oGk336B7+Lio/9LVsVMLqJFE2SjT3ySJJKlIVyfErDlxNCNUI2RaUoOEL+L7vqjRpVB4KqWp4tZFEZrxT7AbbybB7Knr1AvxyTqU5QFACatSCy4GZnaHDK0rc72gpCXireAYinZj6Oq+ATlnAAZX1vUU6rdjUHwmfCFM5+OPucrjBkrVX0qwdWCF+p1y1W3vg4zQZEGeMcAbSmM7hQ3DA91yqrFQFhlx4lof8KHt0p89P8ddy3B2KARK6NFE6xFKiduKQ1TTsOJUI2B1M8Bvh0AjpU2SnrZMYZZqphFATDdVEvu6hGvYqMCJCcBYLP2PsDtc5c2Nk6uNlqHwdeUHAAgsA+4+OIn7n/I8URi3WUTJIyoYATyQr1uNaF3EwJ3APIjAd4x1LUUZvviHJyHY+GmmgbiRIa3coYMbhyfduvtshU9P59TPlQOlyN81YuUvJpKtsxNKj3kKA1bTsSJ+C82iewc0DsoY1nz7QDQNdQoMYk8DstT14Np7j4gnP9cdiF7+gq1ckyiPlUuLadWUxycQ4ZaSCZSnkUUxJSrkimcKt1RFUS2F6RgH9DdMfjyy5+6Ty4iJtXmnKs+leDC5YXuhdXVLldHdgB4axDvGOAshbMLDFSIEDfVNBAHcqNx+Ae3hV9sdhRZqh/evQR/S5IGqqBUhIecSppgZVKi55yQM/hAa61Jw4lQjYEYOWBQbwSPujZlBaTmZEDTbgw5ZpFRnZ7qplqi5VpOoVqkypSKGraQtux9gOGMyGlsnMLNMfiyJiQFZGPbaGzc2HvVrGfuuS/1F8wpVI68ee0D1EcChQnMJUJjKWxLW/f9gD//cPHLPHaXXAM/KlA8+l9o6YoPsl6e+vzeUORo8DEYJoZuZBBik8jIAUgs5TW8A7ANLL2fAh2uE7Mo3LpZ+wC5V4q43yKD7OkrVMkxyQ4aAYBzMZeMxU4ocshQADqdKoNQwDpkCjukO6paJNuXpOC+oCtnz21xDlB9KsF0SeEWptTXrkzdtBNya5DFylIYvSpuGB7qlFWLgbDKxcn+e4/cc9oIW29r7p2z8s0l4u5P9acC1TWVNMF8UqqHvEmk+EB7U04L3QjVGEi1HJCyA0CPaKPQ48RPFcWYRQFY3VRL7uphr8oEAG3DFZ3g7X2A0y1OZWycnI2UEoOvckJiYwtMGh3XXPvsXfcuUfitEQbaPgC8BHMfx0IvsdR3zNG0wC3/efKXruHR/8YPiql1Xy9MbOXVBDNJcarJcav4QHtbTgzdCNUYmdwcMLh3U8oOAD1CjSot5K6qchazKIxZfx9AEgB0FXG/RQbZ01cBkoFCfYpywaJAyICxiClFDhnVCAQ6qbIsoiCmXJUM4CjnVCbD3AkfCXcMnjX7xRbnANWnEkyXiHNeqNctV936ujr7AOwdxwIixE2VmxMgvNX4oQcdkPTof/g697MvrHFCCRpFXNmvwrOSjDw6MWLKnLilE8eU03AiVGMgWTmgZ9CQ9B0AukkbpedkzIHh8phFgda6qZbc1X1e5QkA2voqumELbXsfEHCOURQbJ6O6cYrB16wcMH50xy47JX371KCReTrQ9gHN+jzgzeUbP3X63DvvWmz89Irt3u/99yJbiRpYhfSSxC9cCn1f5wA7D1FNYuhGFqHYJErPAVk7AOVwEMrFvzz4BidZH7MoDFRnH2AlAGFcuDurFNnTVwGSgUJDRLm0jNwMGIuYUuSQUY1AoFMryyIKYspVyQCOck5lMsqd48d3XTtr772n104ACtG0U52rGkpQRUTghXrdIlWaKNbZByhuGB7qlNHj5rAicvL6grU3fXPhSX/zp5u/sWDxUvFzK/afePT/79ZhX3YpaOzpQzViPksy8uiEiSlz4pZOHFNOw4lQTQOJmdRRYQeAmNooPSejvQUr1LBIN9WSuy/bq64EAG3tim5Aom3vA4gzImJsnMLNy7WgKgiMLaz+N1779ias/kg0KVoG2j4ATIe5j2Ohl1g6ckluEQ3g5s7/uWfZX332qUtuWGA8vA+eVQPv/kNH8EexqawXI37JQvSaoBeFIvpkPwejBbL1vSZevkSoJpMxuNHTCjsAbE5NKzMwxa0m17Oo2j7AkwDAgIj7LRORPX0VIBko1KcoFywKhAwYi5hS5JBRjUAgEynPIgpiylXJAI5yTpZ7FYEJ47tuu2GvxJtPVKuIEB8gVUMJLkheqNctV936ujr7AOwdxwIixE2Vm+MlDMHQaGzq6XhgzpJTz5t7ynnz4Pt6+JiyjRt674Z7doM49sSxNWI+SxB59NIJFeTELZ04ppyGE6GaBhIwp/IOADG1UXpOBnpLKKphkW6qJXeP1Ktd7iqohYr+BOFuCGkIuqeveOqu7dCKuVRcWKlXiFzxrmsFMjZ8JhkEoNPJhqyuqURGdYeOKr2ttDFh6wlDvnrDXrvslHTrYQyMlycNEMQT1AtW5YXl6POu4mccxFff+n4AD/cEEIhMsXjDUBZLLH48wLpLAGH1Ozqef2blFdesvH3KyL86Yfza9Z3w8z6iQgzHnji2BmdSApjBiJ8mxy2dOLacGLoRu5PJcBv0GXxgMKijkfXlYdWYGiWiADyuyioL9SzCpTfqW+XVYAIAG1TFRHuKmSC6F22LVxSSPUN9irIA6O8cABzUdAK5aX81Bls5JzrYii2s/v94y9unTBmuNE0W4tEiQyIcWBynSg7ARJM2HWEfAJmgeOUdg3csheEx4IYaDA831RiIgYkfBcDHAzd8XT3Hu7AkiGNPHFujZlKCZQYpfpoTt2riAB9bFheLsb+g3cU6kwDi62TQoA6RA3or5gCApUb1ew5Qi250WUCvxr0vI9znQJcex4O+al6u+pYOfAo6+lrONGBd/y+TDHZIp1N9ChqhEhnVHF2kc60qsIQdpwxr7eqPPSYNEEZdsCovVOusZZZHgc05iKdqh7UP4BXTQHB1g5ZuqmkgvGN6JtvLIy2jMp0yHlkTjIFRYEtOjls6cWw5JXSh7wjVZDKWGWL1x7+sB0hQHGoUmBOhSlsG5HowZUKMgQBVz3uXBrNcm7Bj+gqAMTa0T+pT5dJ+zwHAsFxwKdf6co5njN6Uc8LuhdX/5mvf1sJrf0orHi2qhhJoeynzQr1uyfLQUV3YcJBAk83l8wAvRWmJPDor2hPH1tAkFQRz9kCUOXHryUbFhErDiVBNAyHsHWLlHABY2kA9Jx1dZKhqWKSbasnds5goSVMr4n4XOt0BoBxjY6Bon0r/9nsOSB/cPIdlesbpKGcOgAGG1f/WG/fuo9UfmSUZ38p9ACVAZcNx5LT+PqBZ3w8gpAxRWiKPRrE6tSeOpdGTPgamUF1CctzaeYhqnKFr9xehmkzGRlaayjnAMCdCVfUXFupZlLIPKK+UdDgECOXahOzpK4DnmER9irIAwO1gLhmnXTlknABhZR7HGmSUc2z3bj9l2Ndv2TfzJx7DZqWVxo1XNZTgQg4WuhoUujKuZXkySJ19gJpEuNqqU0miOCYzYa30iWwvj7qESPbEsTVqJkG7IBjBdYo5cWvlIXbh7IQ3lBGqOWQAGW4DtT/+rZwDAFAbqOekYUHmaaZFFF031RItF7KeKO54NepH3G/ULk4H4j7AZadbl+cw/zi50bkWg4/mgD12GwGrf+LThhXYqtUN4250VZQnJBmfvQ9I4mB3bWtcQPX3AYAKc7/fcwDQ0IuRV9aTPs09LpcVBnsKTLWdh6iGhq7ZkpxHqGZOIudy71QSCl7RMCdC1QvDCzIt4o0hDAqFB0QnAKilw8HAoKe5NmHH9FX0lIFCfYqyppoBQ23gcg4Z3jLpLI9jDTLKOeheWP1vuX7vCqv/mRc8O++lpN+NGdTTHXFB3HhVQwkuyGChowGLa1meDFJnH4Cd4VjAEuyeU8lMJHXjKNvLo1FMOdjTh2ropA+COXsgypy4DWWmNJwI1TQQZG/vAFBfOQdAc22gnpPEVxXEHIsMeN1US7qKOVHc8arrF1LE/Ubt4rS9D3B5xa1zjZO7pkuLwYer//ixSb80omDg2h9W/+f/tFRpmiAkRUt5lRLqLglHAAwCo32VfXrecf19QPvzAO5RdkYzkC0nXh2mjSTr13kSWOgDRU4opaRGgTnNoVoPxrcPMBMA2NCSHIDs6avoKcMz1KfKpSXVDBg1RpaQQ8ZqHFfkcaxBBpyzx+6jvnbjPrmrP/zi4GlnPfH0k29u6o19OyRuLq8RN17VUAJHwLNgoWrQ21PEsCO0iyppIFC1zj5ATSLMx+pUkRRCMhPWSp/I9vKoS4hkTxxbQyd9EIzgOsWcuNWXyfSSGeU0nFpUJX/fDgDLK+cAaK4NVAuW7LTiMc0tTnDdVEuionuWuOPVAK7g/vY+wPBh4JSPU6AiLRo8qHevvbf6h5v3HTPaPbK0MpWXLuv58ownn3thnXzLkBY2Q06KFuQcqBoo0iRhByDmXqBuoEjDtL8fQHyRLibHrZ2HqCbx6jBtJEPso0t8tIIP3TCnPlXRUbJ7nazsfYD3Wg9ygON77QYq2JS1ziB7+oomlbwMdMcp9SnKAmAz+J6wg6tLlecwcFSyZ7C3/fafOPvKPYcPH+Tq3KuD502eftaTryzY4K3RlIK48WqO+KomRVvnoI49djWfdTFocFev/xMLKG2KiU6QQUCoT/4Gdea941eN1KDBTTNnUM6vt4fZAlRvbwNfoeZW41IHtLe3c9AgFXjuTiAHhDcK7maFFq5FYKXC183we8IhN7UkB4BTxNXZQHteUCACjCLf2mZUK0/Tc0Cj8a4DJ11zecXV/7WFm9wEmqtNMh5WeajnrArK+B+89/XPt74tXq9do+0B4YGGeBRELKlVzgH0mhXWvX7PAWAwLsC4CEcuqVryXhDdAaAsRiFpbovxEnVFZfoqTsWSIQ5N+Msh4+3OD5LH0Y9Du4bVH679R42MBTJt09GxYKG89k/rhbeudBY3XtVQguooEq6qXltoeyDZAyKo1AMhAq0qvxcEmJvt5wHBt0oLZ7QkBxQuEfD4Fge+Zq5B2qfSv1tmDoD3/d91wISbrpme+87PggXrz5xRvvNjr7XF4LfmJakzXOuNqsZpa+i1UbcsD5RB1dIcwK5W8aS+kzMXTKPDcukV2ti0akkOQPb0VTCJUSFGUJ8ql26BOeDAg7aF1b8r9GYe8ZoU57+64fNnPNXy9/1ld+YxPs6qhhIAo70DMB3ZPq/tAR1ULc0BInyLRVe8qgWrJvucBdPoCpuC8cUEo7PMqFictiQHAHKZhooxQDnTJO1T6d/NJwcgt0BWi3mdj4Tlmc7GxsOP3G72ZdNyV/9589ed9uUn31jWJ+/7cyP0WZLxODlVVSVomLbU9kA9D7CgamkOoNesm0MOAL+RCcb84HBpS3IALmr0FXq2VjoHG6miPlVpdTPJAYpPwKKY16WdeOSeOeyonS89d2qF1f9LZz/dz6t/aQ63znGm3IMChqujXlvV9kCzPNDSHAAk9TWrXiDqcefLQhaWmlHFBFPTzYPRkhxQuER0SHcDmSZpn0r/bg45gLJqbg5odHcfd8zkCqv/s3PXnXrGE28safEdn574cahjIVc0KaJUvDTWbTbEHba0VW81D2zYIH8NgDNvaQ6g16z9vg/AqYVpoP9yAC739BXGIycHUJ+qtNrvOYCyEgHmtyhpGVQx2miccMIO55+9a+61Pzzi7awZTyxbXjzAx09G9dNHQtx4jExx6/Drr6/rI1btbga6B9as7V2+xp0AwPSW5gDA11eHasGq6fBKM7pY+qElXn23Pw8IjEG+f/UYy/GunwMGDx503HFTYPXP/XaRWP3PfRpXfyQWIBNwg1mU7xYTAc7jOaBo1Gg89ofljuZtVdsD+R747R/XhFf5cCl2WPneUHZ12H85AK/95cWpSAN4tRVxZ0veC8KlhL4Ci5z1hfpUubQf9wFOPgGLUpbBE07a8cJzslf/Pzy17vQvP7F29Qa4Z7Rwquwqx73emGgOiBeeFvzs/jfhE2yqacttD1TwQHd3x/fuXBKYjIjZ0hwAXehrRLVgVTCGNsmcjDIBsDtw+i8HFC4R5gygzwP0GMvxDoSdXJjpkJZyZ0f3X35y1xmn7+QoC6p+9/jaL5/z+KYN3T29g+Bf1X0r7gM2dvdecuVz8NRSZUVbaHuggge+9i+L587bKBrGVsyW5gB6jQhMmhPWOTBFAoDVFtvoZbdgEqOzhe4DMsONjrEeYv8g+bz+0U/ucebnpmR23vHQI6u+fNbvezZtoks/gqSQyejOb1EOSLRuY+7Lm+Cppc35yZpob+0KA84D8NTby25edNcvVmrLYqHb0hwANPQ1op6Tml0VKWaRwiy+PqRqo1CewkJUfE9YbhJUGypADmj+M+OgA8xJ9BVYYX6i3ftl8Ck4k76WVAuz/O1aVUKZoCySrscigyNc+3/6/00/5TOTc8nB6n/hzKcbDXbhb4BEyRj1jVNG1W+R0Sp0yhCdFUUOOOWMJ/ffZ+ze+4zfdmJnZ1cwRp0Ym6GyGU9Gy/1kyHADRKShiZ76nyWQAJVQJUogvcLq1Y1n5216+PerN27oMVvFQhdywIB8XlCRAOg6S2XxeUA/5QAYD/ijr3jqWTHN4RRNBQJ9FadNfG6o3WVQQ5mgLKr7w44ug5VX//Mu+OMm+LJX0GkpZIKWYZTIKn6LZI2EIzXeXV0M7u+fWAn/IkQDf7wwfrHihOIgziqW0mpjKawmTOGmmgnCEMWJbC+PVoV0BVw54AeGCjS9LakZDE5SLyam4YTsjoVuS3MAmEevEfvsmXGFQ4q1kq222hdippXj7B+ClrwXVLhE9IlDi69I1c/EKBFBWnhWvZZUC7OMyn1wavMp3e7qu1gGuz/3+d0rXPs/+JvVYvXvgWUkFPOqWyQWIKNqOgXmzswxcgJGQ65ohaaxzk00XpgUqCZEPP6xBfkBGVDwjl0Kux9c9HEs3FQtVBskqJHt5dFX2Q5US0OuHHwoKfrkaLEIiBUTesDXxNCN2B0j09L3gug1IpgToZriW6gTgyGrA64Uar3AluK0YBKj445Xg2UMxKheskcmyhIlmLUd59SnyqX9mAOcfHyDBK7/wqlv+9tPbOswLKi6b86Kiy76g7j2T/5TzvGRiSKxsc0ZIy8yQ3TWUjWU4KrGC5MC1YbhIHY5aOgPSRbJwGpjKQwc5IZjAeuam2oMxMC0TmV7ebQqCIUdqLZGrAwSRB6dYDFlWrTYBKhGpIFEnDCdGEhLcwBQ01kNzQuzTSkNWkQSANaDV5oJysbF+MYGWYdDgFYMxNGU8kE5aJKNoH0q/VtSrUDGRs/X2HwcsdtonHf2bp/6WPbqf899yy6//InoOz9O1kjMQcZZ21Iyd2aOkQVWKBiiuwoMabwqx0kKVLs3DmKXowb3AZgMyosnWjUBBPcB5eqmlthMEFrdkiUJebQqlAo7UC2N9mUMzNdJoU+OFotAuWKWq2UaToRqDKSlOYBmtTIPBz2XVOi3iCQAhYS18VUvvoXTIp4jlwQKzRZiIGYLykdZogSztuOc+rQMFHX1kkvGAZ+tcvKhyy6MygUzdj/+uO1yoWH1n3XN0+nv/Bj4yjmGPv2UuTNnjLxdMERnLVVDCa5qvFCvW666Xh0HcVbDpZ+8HWS1sRQGjuKGi506ZdViIKyy40S2l0dHlbfUPkAnhrSoC9otLHc6RClbmgOgF2pOhIriFBY8FhkJoDjVi750RNm4YBKj445Xg1wMxKguTimrAb0PgDG46Pw9Tjx+u9w7Ou68a/FVV/9JXPt7BtvhVUuFkWepMxRsbGsw0V0yRK3mEkZysCovTApU3oc44yB2OWro20GONmkgkI/7PQeAOXox8sral2mWedyWHC02JXpRlRj/EaoxMi3NAYY5Eaoed5pql0VGAig6wnr4ai67WMFENs51OBgF9DTXJspKWaIEiuyRqU9Rhool1Vwyni6y1E4+uPofe/Q2WVBQ+c4fvX79jc/39Mhnm+R4hvalPEOVPlm+0WGWM3dWZcJAGSIrkSeqhhJkCT3ywqRApc1R5iB2udLU2QeUXRXeg/XOTTWZiaLEBdleHnlpeWYHqq1RMwnaBMGcPRBlWrTYBMyUkIhDenaIMZCW5gDgo43KmpYOS6TKsshIAFivUNKrbGxWNi7GNzbI7niVNMpjDMSoLk7NhAThloeifSr92485AA1UlECY+ZW9clf/Rq9Y/a+94QW9+iNupmewUbNe2ag0hQlD9NHEeA5W5YVJgWr3xkHsctTU3we0Pw/w+Rb0auKAbKeExJUhMpKx0G1pDqBGlRYG3JFYxC1yJoDCJ1jPXnCFBitEOkyaWhH3W10gK/oKVbhJVhumoD5VabUlOSCZFdIYMqTjiiv2OfqICYxuwsm//9ciWP3dFZM5uJvX07KxbQoThugkp2oowVWNFyYFqg3DQexypamzD1DccLFTpwpcCMlMWCt9ItvLoy4hkj1xbI2gIkHkkUCki2nRQgnQZKDlRJwwsRhIS3MAUKPm1PKqMpNY5EwAWLEowqr2az/mgMIlgiJNTsQkZB9+1T6V/i0jtxkOhkty8Yf0wjyK0q7OxrBhnTNn7nPE+8clVGdVvvv9Rbfd9jxTGSeZnjFa1zxl7mwKE4boY4dRHazKC/W65YN06jmIswoo6+8DAAQWOwxaN9U0Jj6GOofEcOyJY2k0wRiYn05hcLBYF5ZuKaKLpgSUE68OI1RjodvSHECNavo+IJAApE/oOkvlfswBOB70NSdiirrCOuZZdfUi7dYhlimVH97GgkahDh7SddVV76yw+n/7PxZ9/bY/KRyvkMzEi1CjgLmzKUwYopOZqqEEVzVeqNctV12vjoN4q3V01NkHICyGK6x3bqrJTDwkZXt5dFajU8Ynq5kECEEwZw9EmRYtyi3Q0spGhSYRh/TsEGMgLc0BzDQ02EExU1VYFEgAEg4tN17Ly9tifGOD7I5XCV8eYyBGdXFKsxHKsUEyQOxwKalWIEOgyx0A0fhEvPa/dtY7DnnPaF8dn/727yz8xj8+3+hI+zH4TM/4Oq2mZ+5sChOG6CM10PYB7c8DfCMNel82KlfLtKiLhFUMpKU5gBrYxH2AfJxHwLVYRFfbwt9CLZSF0yKeg0qxGgJTQGb84XjQV2gcGySKT31aBopgkWQRxTFkfftmjEzX0GGw+h904BgDIXwKCWb2rfP/9VvPKM7h+mVpjEwSSNVKbGybwoQhOmmpGkpwVeOFSYFqw3AQu1xp6uwDFLfyTQ/nhElmoihxQbaXR15antkTx9aomQRtgmDOHogyJ1rsSzqtScOJUI2BtDQHgFOoORGqxIUBsbhKSkFCy+GVZoLSHUX7GIgK3wCbKpFC+aAcGySDgPap9G/NHMB2AB4yeO1/4w3Zqz+Qv+Fr8++840Vx7S/eDcj585DJgahel1FtChOG6CM20PYBYCesthi07jmV5BafuwR8WSaPvqr2xLE0mmAMzNdJoU+OFjsPUU3i1WGEaoxMS3OAYU6EatCpWIjTQw96vAnaj6968S2YxOjocAh0EwMxm1I+amyUYNZ2nFOfogyV6uQAvQPA3lxkho4c8Q9f2/+AfUc6CPlVeO2Pq7/ykxL87UiJiwwpbq3IqDaFCUN0klc1lOCqxguTAtWG4SB2udLU2QcgCAYqLLhuqslMFCUuyPbyyEvLM3vi2Bo1k6BNEMzZA1HmRIuVh9iFMwH1ihGqMTItzQFAWhuoFiyvKZECmQCgWsRo0a8A04s+NCnalO5AWVQJ/Lnj1WgQZ2I04Kz6ex/AdgDIlEQMXvvfetM+e0/PXv2vueHFcvUngNBDnsN4W8uVrVUwqk1hwhB95AfaPqD9eYBvpEFv5yGqae8DqOtgYpAJRERaScpFMU5afKXJQMhYQVb3HFuSAygrtawowcOEqmmIqLRaUo24hcII2dwBYLkkg9f+FVb/mbNe+vH/zu9uFG/7oOdJz3kcJRkC0Hcio9oUJgzRaYiqoQRXNV6YFKg2DAexy5Wmzj5AccOLQXWqwIWQzIS10ieyvTzqEiLZE8fWCCoSRB4JRLqYEy36MllcH4orAP2ahhOhGgN5S+wDrCujiNHCjWK8cAFCF9DXfswBihVyowwF46Q/HSIyXMrIjbtF4zt2AEVho7t70qTh3/56lWt/WP3v/+nLsPrrbiwphyNMybzqVm+1FKzvpjBhiD5uVrTbFTmOXrfsmgENB/FVbH8/wOeZkD45Wuw8RDWJ8R8ZyRiZluYAw5wIVY9P1YJCmhPR1aooRsvpUqtlrOBqSnRJUyvChMChiKzoK+hjg0RRqE9RFgBpWU3huHcAHR3bTB59201777Rz3js/3d0dZ188l63+fovyHObHUbbEhaogjGpVEEaPIbISeaJqKEGW0CMvTApU2hxlDmKXK02dfUDZVeE9uHZxU01moihxQbaXR15antkTx9aomQRtgmDOHogyJ1rsSzqtScOJUI2BtDQHgFOoORGqxIVKVAkANKQ5EVVVLhQN0Xj7NW3FdMcr74aSMkq8pzoV8Z2Kt4FZoH0q/ZuVA5w7gEnbjMTV35ceTBLFOaz+My6Z+9tfvQpnlFUgq8WHjvYUC19a1ytXBWFUq4IwVgyRlZCTgbYPaH8eQAbXFO08RDWBeUSBImEVC92W5gDDnAhValUh0wQACtKciFYrUtNebVHTjzkAx4O+Cr4Re6iN1KcoFwYXCAkw9hIPq/83b9sXrv3tItqvIW/cpFd/8dZ/YYLiE7AogSPpKsczpBkXq4IwqlVBGBWGyErkiaqhBFlCj7ww6WKFNkeZg9jlSlNnH6C44SWCOlXgQkhmwlrpE9leHnUJkWiI+mRBRYLII4FIF3OihV48mXIaToRqDKSlOQB8po3SC0SSK40EAG2IpUT0gqHlxmu/54DCJYIzzU+xQTJs1D6V/tWRa1Tlp3QH0NXVgav/lCnDs1b/9et7z77gmV8/IK796Vv/lNVmkgOQUoAMd495xqIsc4xMLDxniO4qMKRFQbAqL0wcfbM/DmKWyvP25wHSEznH5GjxZaNytUzDiYxkDKSlOYAaCDMxQpX42E4AUEiaE5G0skS6zgqAoplQFkIMJGlqxUBMTsiBvipiZlX3OfWpcmkKVbrQT9xmDFz7w+rv7sOjhdV/xsXP/v6RhVBOV384paxEa/9Y5znMjyN6Cf4p5wTIBAFowIUsCoOw0rjxqoYSGEB5wgtTRt+BwkEcFaSqzj4AMXAsICW7qSYzkYyMo2wvj0Yx5UAD1ZbFyiBB5NEJFlPmxC29eDLlNJwI1RhIS3MAeEobpedkxIHOBABtiKVE9IKh5fBKM0HpjqJ9DESHg7cPRipQixVRPijHBok1pz6VslHBPsUdAAzBHruP/uY/ZK/+a9aK1f+3Dy2EDwBKf5I+9BgrPn6LYl4nuCD6cXg99xkSqwzCqNZjUvJjiG7O4MKiIFiVFyYFqt0bB7HLUVN/H9D+PMDnW9DbeYhqEkM3MpKx0G1pDjDMiVAtPOVLAMJd2pVE1EqnhPbjq158i/YxkKSpFQMxSVE+amyUYNZ2nFOfouyoxFW4A5g6bavrZ79j262H8MLI2arVjS+e+The+9urPzR28/FblOcwP06EtyQmqlUFYVSrgjCeDJGVyBNVQwmyhB55YVKg0uYocxC7XGnq7AMUN8zH6lSBCyGZCWulT2R7edQlRLID1dYIKhJEHglEupgTLfYllNak4USoxkBamgPAZ9ScCFV5BeTzNGlORE/tIpfoRV8uBKU7ivYxEB0Onj6EOgbiaEpZ1d4HOPAt1ZixQ79+y74VVv/TvvSHuc++Kd72QZ4WMir0GMvxDiy7eQ6Lha+HUalGYgEy4eaMaj0mZUcM0df5QNsHgJ2w2uJYuOdUklt87hLwZZk8+qragWppNMEYmK+TQp8cLXYeoprE0I1QjZFpaQ4wzAlTDewA0N2kORFdQ1EUo+X4ai67WMHVlOh0OBClKUaYmNXLQaXcoEpskCgK8ykt8MhjRndOnDDYU+hWw7W/WP1fWGm86e+sTfmgLKr5LcpzmB/HSYYqU8jQ+rbMqNZgopEZolYTSdVQAilUIi9MClTVVgkcRKltoc4+ANFwLGDBdVNNZmJzKzSyvTw6q9mBamtEOpEg8ugEiylzosXKQ+zCOdaTKI9QjZFpaQ4AetpAPScdZkUTALc0YrToV3RCr7LREaU7ivYxEB0OAsvzFwNxNDMTUmjFdDSXPnUW1VQuW9HzxdN+/8zzq1NWf9WXHmPFzR92FRymOsoVkFggIYUBGVW/RWEQVsoQWQk5GWj7gPbnAWRwTdHOQ1STGLqRsIqFbktzgGGOj2pKAgDfkeZENJ0qzotitNxecIUGK7iaEl1LcgCyoq+Cb8QeQgrqZlSmDcPy0mU9Z5zx2HPPr84iU3AXfNhIF+e+7lrC3tWZdlRVjzGqVUEYNYbISuSJqqEEWUKPvDApUGlzlDmIXa40dfYBihvmY3WqwIWQzIS10ieyvTzqEiLREPXJgooEkUcCkS7mRIt9CaU1aTgRqjGQluYA8Bk1x0k1MQEAFGlORM+4FLBovP2KUDEQHQ6ePoQ6BuJoaqel2CA5QJqngtX/C2c8LlZ//Msno8dYjncgkVRwWMjWIFskFiATQjbGNthRGEeXJhmPMyJYlRcmBaomISUOIrXmsf59QYAIay6OhZtqGhOTmT6X7eVRl3DJDlRLownGwDi0cZYcLb5shPrE0I1QjZFpaQ6gBoo4MBwFK4alCShIcyK6Gshie7VFTT/mAHQCfQUDHJ5xmdVs3aI3Nv3tKX94bf4KBpxJho6xHmI/iBwb1mcrTlLIhPtlVP0WhUFYKUNkJfJE1VCCLKFHXqjXLVonKnOQQPU6+wCExbGABddNNZmJh6RsL4/Oanag2hqR9yWIPDrBYsqcaLHyELtwjvUkyiNUY2RamgOAnjZQz8nSrKwEwC2NGF10gJYbr/2eAwqXCH40P8UGqbCnmS+w+n/2i48vWrBK3O9v/OWT0WMsxzuQ1VKGzmBU+RSJBciEkRnVfLc4wBmio7xQDbR9QPvzAN9Ig97OQ1STGLqRsIqFbktzgGEOpZqbAIS7tCuJqJW2RNdZAVA0E8pCiIHoSwIbWWliIKpiKSAH+goFsUEyQWqcL1iw/v997rGli1fBsyLcf5lk6BijLGD9ILkOc5NM0KaQCcMwqn6LwiCslCGyEnmiaihBltAjL0wKVNocZQ5ilytNnX2A4ob5WJ0qcCEkM2Gt9IlsL4+6hEh2oNoaQUWCyCOBSBdzosW+hNKaNJwI1RjI/2/ve352y5GzujshhEWk7PghEEt2Uf4SxJodiyigiCAg2cIS/hWQiCKBFMGWBSIoLBKUBAnQEAWEhgADnfQkMz3TlF2u8lOusqvOOX373vvN+6l1XK5yPX5cLtvH7/vdr9/pGUAxw+Eo1RsHAEGpuxG388IjpyeeBCMcHQrwQpCZDqGZlRlI4Ip8WM4mKQC5rvrW7333537hN7/zv7+gd//g9V8Br5OZcyzz/SGcATQgJnYgo4MOBTO318MSYBrEwN5Vb+0eQIOi3ZbnIl5TpbDswtXgh03KXVOfqE4zCWZgu066vpwt/hxCTTF1E6oZmXd6BizDYar3DgCKLIwUxONUtOxrDfg5N19WZq7Y465tnQkjIB+dGxV2vTzT0+7/C3/nt779P/7wtPVrFxfJ4Byz3JD2IFcDpryuChUyZ0xDdT+iM4ixGkRjkYq2UEEsWFrj3LewTSpbkEPzJ/cAhuW5oA03plpmsiEp/lKGzXyiek3bZAREyhAsU17JFncOmRfnrKdmT6hmZN7pGUD05gB7xCkJbv+AK4gbuH7SzE1fdqURju6fgcx02PTR1BlI4Iqs3vE94Fvf+oJ2/z/49hc8DQEZr8oyxnvMOZb5/hDOAOI5Rn19RDxGM7d3QUy4DKKxQOWt3QNe3wfA5K6iP4dQc1hHCJSkVZa67/QMWIbzGZyyOISiDCMFMXLuZh45P9dtlxtErqB7J2cAstK5UQF6fyj+x//03b/xt37r2//9/13GuUgG55jl1uMeJJm6y3S3DhUyW+duMFT3IzqDGKtBNBapaAsVxIKlNZYSFd1ZtiDerpon9wDlxuexVhW8CWUmxmtWxF/KaQHJJ6rXNCoCIiVA1MUr2eJfoaamhpNQzUDe6RlAMdPh9LebGeF6OLUljBRENVsB7gEcAnzyPGcgJbIZiGXVa+uBdNoxA/dMRbv/z/3N3/jeF9/9bPu17xEiyxjvrHNMJpY/hDOgQsaPBTVmbq+HBaGGbBADe1e9tXsADYp2W06MeE2VwrILV4MfNil3TX2iOs0kmIHtOun6crb4cwg1h3WE3SdUMzLv9AzQ4XBa4ymLQyjKMFIQI+du5pH7DbdpuEHkCrqZDqBcxYTJ2nxMKnPTuVHBNb+k+A+/+wXt/j/4/pelz/130BfJ6BwTHssNeA9yNWA7mqm+QuYMYqjuR3QGMVaDaCxS0RYqiAVLaywlKrqzbEG8XTVP7gGjqx492nBjqmUmSskK4i+ltY6aT1SvwR3qCBb2AMor2eLOofnifFhH0JmegagDOSPzTs8A4kEDlAOAanEKAN2TCJMC4sajd8qD98/3eAYQXX8sZZO0GeNU0+5Pf+fnu3/0PVLNvW/ar0jXyfgkPuQuT931Tq4MQdqO3LvbmcmyuyDCpZcG0Vigwuvl2NQab64qCwIEjPj83wm/vg8wAbUVfw6h5rCOECaZySx13+kZQMOBA4BY38xWHi+MFESMhchi9rvtOJB6A2klXmtZIpuBOFDuGp7UIpukFQTqv/GbX/z8z/86vfsTyJffk49ioMFl8SIZTFmWW497EBo5vhVcpld2qJA5g5m53Y/oDGKsBtFYpKItVBALltZYSlR0Z9mCeLtqntwDlBufx1pV8CaUmRivWRF/KacFJJ+oXoM71BEMcEPxSrb4V6ipqeEkVDOQd3oG0AFg6cUpEEbRKwEKRN9uaHjky/O9nwFEzp9M2SSFY6Td/+/+vX//ve/9kP6jj/45tHPjC30qyutkZsr2e1/rZA+yt0TkrrVeEZjYgczqYOsmy54xGcAG0XY2a2/tHkAjo7TkuYg3gFJYZoCcJP5SugZD4RPVaSbBDGzXSdeXs8WfQ6gppm5CNSPz7s6AKJVnhI8RjI0wUhDjtqzF3ZY0HIum7P4ZSIlsBrLSYw74VGJr02393/y7z3/xb//6dz//Y8pgumjrAts6XDJkGbOAYcqy3BrsQD775MsfLADH6g7n6MTGnEwGYub2AZPZj0GcapC0hQpgVNEaS4mqvipYEFV74ck9gNF4LihbY6plJp5b14i/lGEzn6he03YGAZEyBMuUV7LFnUPjNt/0NZyEagbyjs4APgAoUpbejHAWxMAOUCAGDVnFI6cnngQjHN0/AymRzUACesiH5WySFIT+xucv/dJvfO+Pv2wv/m1ow0JyW2BlHAUMhOsgPonD3BWyQZ9b1XUyCMXEQjLYbCebuX3GZHRhEHfdcpyOTa2xlKi+Nwvi7ax5fR+wi8xJX84Wfw6hppi6yUxmZN7FGdD+Eo1sSUQP1j5lK39DdIrfzgZQIO5aDz2Pn598rvKTWGUgJbIZyEoP+ejcqLC2NvWf+IlPf/nv/xWj+qgqP/szP3WZL0WGj8nLnrR8aG76z10QM7d3QQxxg2gsUhHO5+y0OKVElQ5maUGm3kl0D6CToD+dj1Ms3no+8YYQU81AFkxXFX8pXYOmwL11J/d7wNihjmBhD6C8ki0cmd2zkv8J1YwMnQGffgrkI/HTr3741aewk0dtVNcOgLn8llSOU0B9zwKMFMSND9Ht2wePn570H/3wk1llICWyGUhAD4+icSAFrRYV/S8h/9pf/fOL8u1XefrujnO8iNwFMXN7F8RwN4jGApWeusvCAXMTLU4pURcEB+LtrHH3ALsRWCY7ENoQ3vsZQNx2+yzq9S21NrLNiMvZsjuNxhZaw0moZiBf7xnQ8oMCqs+erRAmylaoXRTBFcQIpJtp5PTDT36XnE82Ra6gK5FNmAAci8iKZdfkpZgReBCi+SJyF8TM7V2QORaSDKKxSEVbqCAWLK2xlKjozrIF8XbVvL4P0FBUhSvZghvmKtdwkpnMQL7Gz4La1o/HWo+XpXczWznyAAXiZlb62wpv+hwCfPJazEBKZDOQgN48igLjS2UikKWvaewqvKLk8ufMmcLM7TMmoyuDuOu+p+75uLA4pUT1vVkQb2eNuwfYhgWQ178PsCEzNdwwvVxM3WQSstT9us4ATtw2PDzK1jefm9nKUYORgmgiOirdzCPHDXfK3CByBV2JbMIE4FhkVtmsOLcfVcWDQL3uAUnSlFP3yT1AFxFvC1o13MpMjNesiL+U0wKS32G9pu1XAiIlQNTFK3mLG+Yq13ASqhnI13IGzAMAw9ojZunNCNfDqS0BCkQ1W6FT4sH754dwD7B0X7U4Aln6xl6i5RVVfJkSp1maLHvGZIAaxNmRld7aPYBGR9vCez8DiMa6wwaauUOV5srO3KyVswU3TC8XUzehmpF5fgbMA4BDgIF+n/eAPueN0nz9F/k9ngHZfHAMX88RgQfh4hXVcO6CmKV1F8RMpUE0FqloCxXEgqU1zn0L26SyBTk0f3IPYFieC9oZYqplJhuS4i9l2MzvsF7zugeEoSMl/V7QzrQeABjW7mM94xTYgS96gAJxaTSrvGiXJ58H7/EM+OST7/xR9ntYcwxvWfrhV598/nn7A0enn2c7L7+OfFRnAAXjrd0DXt8HHDIcN0wvF1M32Q6zRfTkHrAeADzUD+AeIDHHGwDpOBZN2YOWRI4aZS0apvRVK7/1n79De9/r5/f+6xff/34hDFn6HiB4RbUGd0HM3N4FMQwNorFIRVuoIBYsrbGUqOjOsgXxdtU8uQcoN94WtKrgTSgzMV6zIv5STgtIfof1mkZFQKQEiLp4JVtww1zlGk5CNQO5fQbEBwCGtUfM0psRrodTWwIUiGpeBR45PfEkGOHo/hlIiWwGgqz+2a/8t89ed4BPPvnVf/UdDMtJztL35Cuf9n5UZwAN6K3dA2hItC289zOgRbZvBcfnXPRXVrZLw3Le4obp5WLqJlQzMvfOgPgA4EhgiNcjfkbYRS1XwEhBTPx4/Pych0H3z0BKZDMQpfe7v/Odf/Fr39bqj6ZA/2/LX/mn/+XC2LP0PUDximoN7oKYub0LYhgaRGORirZQQSxYWmMpUdGdZQvi7ap5cg8YXfXo0c4QUy0zUUpWEH8prXXU/A7rNa97QBg6Ui7fB5wOAAxrh7PTEqfArt9FD1AgLo2k2knOTV82grGSu38GUiKbgQifT/7RP/7tf/1v/1CrP2rC7/3+n/ziL//On3xfr9q1ADzbefl15KM6Aygsb+0e8Po+4JDruGF6uZi6ySaULaKr94Af+3N/9q8fhtRS+LPPvvrqK35+8gl9+A0ff3z1yVefYv2MtFgBCsSlUa/2T9x5ZPykw4CE+aSgfbpQ8zglsgmTgfqDL3/4L3/t9//g/37yl/7Cn/7pn/5Tvq+3qqE/cvdPfvV//oN/+Ft/9PkfU2pQtGoBk3jQrKV/ykTaLiUl4dDcBTFU74IYVgbRWKQinM9xsjilRJUOZmlBpt5JdA+g0fen83GKxZu4sYY3hJhqBrJguqr4S+kaNAXnw/nZ0lN2qCNY2AMor2QLbpirTNt3If8TqgUyaSdtu+yNPv3Zn/nnMNCiaO8N4y8yFX2XZgAF4tKoV8ksfy8oMo+3rQSEXsmyFgReaKIU/sxP/eRf/os/qdWvUaDs+RrRLkP9+I8Zly9/8H8+/+p/fftzVv7wE/rfG8yfa0QfjItiwu9W4zuhSaEqGaoPmMz+DOJUg0QtOFrHptZYSlToY4gWxNsjjfNxisirvRryXMRUayAhcleKv5RhS+Zwfrb1LCBShmCZ8mvJFuqkhpNQzUDSM4CI0N+Mqx4AGOIeJ0tvRjgLYmAHKBCDhqqiwdNZ6p88zxlIiWwGolwGjVkHSRmCbhE1sKynFaWaJtP/SID+3lVfafRcfK9VC+7UBf2/AL78hP6/9V9+Cf+3uKFvdLYctoaQ5R4nbB4r74IYqndBDCWDaCyucmxqjaVEdR3oZuctqKEbgPzdUHrjtB1TO6dAX5QpNzhRUTnkMkjg21TiL+WmWUU9Y/kIrJwtIyyycpd1fVhHOJiEakamcgb0v7SMfW5kGgBZ+Nmb4Ptfe7+x9Q1KrAZXEOO2nBP8QZh/MosMpEQ2A1np8WTQEwU+pdampq6BJUFlasHyXALZZBvQsMLhCk2ipE7bvs/PrmwnQiczzoM9yLWA7XGEy6lkVu0l4NaPcbsLYno2iMYCFV7Ox6bWWEpU6GCIFsTbWfP6e0G7yJz05Wzxaxk1xdRNZjIjQ58VpT89KZN+JggvvLH8lj3/ZrYyODAAcXY8JTHrPksmlL/5M4CngZ5EA6fEafglRF9FVOgjaBOB4WWZkoYEkzozFNclpFfz5q6RmBmjBZG5sdpd7ToZRWJWrXoXxFC9C6J8OhNTiyrapwrHVt14c1Ude8Ben/xekHIbubpsCNxNmQmyAln8pQTTFHGB7GR8Sz2CTdhYupItuHBWuYaTUM1A0jOA30pacCo/GNze3rppRlSw1jYABeLaSus88uXJJ8E3fwYwKyLDZ0B/fvbZj7ftSU+FFrs2MA2SCk3ZB+KfbKLUIRMnEHd1/9k7uuqOxJrvHqQydbP3Pc5ss5dGQO6CGKp3QQw7g2gsUHlr9wAamiYnpvQccikss7mTxF9K12Ao1h02eKOaBDOwXSddX84WXDhePqwj7D6hmpE5nwFyAFCHST+TEgZ6dZsRnu3LEjAA8eTOOz4/qR3HolW7fwZSIpuB7OjR5yi8++NJ0ELHWzk+BWLsaL2KQeYFhgkkHrfKLGN2oEjpkLvXAnaXDJHkgDS2d0EM1bsgJlwG0Vikoi1UEAuW1lhKVHRn2YJ4u2qe3ANGVz16lCEx1TITpWQF8ZfSWkcNF8hObjuDgEgZgmXKK9mCC2eVazgJ1QzkcAaePRCiAAAmhklEQVTAAUBDTvoJAt1V1m1GOAtiYAcoEIOGrOKR0xNPghGO7p+BlMhmIJMeM2mbe/9/bfaP8PUkIJI/pG9Yx+s8/7+Cx8c7MprZE2bwxG/fi9kpQ1tdHiGqO7SWK6U9yBxGpYc9TsWbV9RHdQbQsHgSj3GyxlKi+nhZEG9nzev7gF1kTvpy3uLC8XIxdZOZzMjszgC3myT9zIDgUbYeHTezlcGBAYiz41Di8fNzHgbdPwMpkc1AJini0Lb4L0kztn7cteUGwA10N1eBvMaO1hFVxrwpntOTUihlGRM6kdLM+x6kHrDW0R5nR0P1HJknIIbqAyZKqTBB2qcK03tK1lhK1OkskgURbVA+uQcoN04PrZpuykyM16yIv5TTAhKulJ3c9isBkRIg6uKVbMGFs8o1nIRqBhKeAe4AoMEn/YzwYHC7yrrNCNfDqS0BCkQ1W6EPYW76spuMcHT/DKRENgOxrNpOSRre2eclgFj1ewBfEbRfFchl7mgiY7qMllfJrOR6PcuYjVPre5Lcg1zjuMcJaSxKDtHtg8RQfcZkEDOIC1mt8uo7NrVGzBNFyQULsmv//B5AyJQYPBcx1RqTHUOCHyYpdy1xyWzkSTAD23XS9eVswQ3Ty8XUTahmZPwZQCkYYUa6MAwY3BVqRjh0PSuBAYiRTzfzyPmJh0GTuUHkCroS2YSJwBEN6rc/l0vAZ/Qb9qJvoaPVIh/pqCAos8R0Ie2gWiQzYSKJIxZZzjoz73uQaxz3OGcyZOUQtWZ3QQzVuyCGp0E0FqloCxXEgqU1lhIV3Vm2IN6umif3gNFVjx5lSEy1zEQpWUH8pbTWUcMls5N1JZHPESzsAZRXsgUXzirXcBKqGchyBuzfQZJ+gkB3lXWLUwBidxIBCsSNRx8Ib/0cAny+1zNAd3xi3r4DaMW4B7TbgOSeCn6Aa6Jo5uZh8WBOk2WMc2gKXFRcD5u1ljtDqL9FRpE4UB/VGUDc92tQB2aDeEgV9QgECxI06Krn9wC59bb+Yqo1JjuGM6cyHL9wnGYSzMD2dNo4q964cLxcxEk6y8jgGcDJ12fKDzDpZzpgWOf0sH1GeLYvS8AAxMi9m3nkfAysT24QuYKuRDZhInBEpr/j83N8LUw3AFrxcg/gpm3BHK8CQaLo0iqSEVJxmWVM7NU+5Wr5w89D7l7jeJcMMeFANbZ3QQzVuyCNgP4YRNWioC1UQKvI1lhKVHGdpQWZeic9uQcoN04MrZpOykyM16yIv5TTApJfOF6jK4n8jmCAG4pXsgUXzirXcBKqGYieAXoAbIaf9DMigWHtKusWp0AYRa8EKBB9u67pw+HB+yfPbwZSIpuBDHrEQc4A/taXbwDzHkDtWuz6hUDSb0dgTRTN3CKZTcgm1XODyLrOO8c8bBkpt7o9ztYFDByoj+oMIPa8Eo9zaY27PIFIRKIFiVo03fN7AIFQevBcxFRrTHYM53ad4fiF4zSTYAa2p9MHfDRPIy4cLxdTN6GaLSI+A/AAaCOYHFWKdGpEAcO6Qs0Io0dRBgYgRs5iXl//22tqb98bSKsIoelKZDOQAU7TIGdAe1XmXw/lZ78H8G2ghQ4uASGxIFGUapFMiKvKLGO04SKYed+DXOO4x1l691UOVNPfBTFU74IYYgbRWKSiLVQQC5bWWEpUdGfZgni7ap7cA0ZXPXqUITHVMhOlZAXxl9JaR80vHK/RlUQ+R7CwB1BeyRZcOKtcw0moZiB0BiwHwGb4ST9j/BjWrrJucQpA7E4iQIG49eCRL8/3fgZQgPjXQ3uOzdtA/70gOh4qEVoTRTO3EpZtvMSQZYy0M+U673uQaxz3OKb7TYUD9VGdATQSeE3ZjGvZnyo5EyDVZuL5PeD1fUAQfFHhwvFyMXWTmcwWkT8AiF2EGelkIKbEHWqFupmtjA8MQDR9LxXe8ce+T1y6W6t2IQMpkc1ABiPqmvpVPu1q3L8M6E8iNu8B3YGXzTIargaJ0sZTGlEIuCqzjFnbS93M+x6kGLCBuseRbrclB6qZ74IYqndBDD+DaCxS0RYqiAVLaywlKrqzbEG8XTVP7gHKjdNDqwrehDIT4zUr4i/ltIDkF47X6EoivyMY4IbilWzBhbPKNZyE6hEkPAA2w0/6GZHAsHaVdYtTIIyiVwIUiL7d0PDI6ak7LxlGOLp/BlIim4EYMsKVfz2ULwTt3Z//hTD/jhCmobRfyjVR1KVIZoFbqseMWdpqdZ33Pcg1jnsc7fogcKBk0g8NY5Oh+ozJ6MAgxp2+vXsAjZPSg+ciXlOlsOzC1eCHTcpdU79wnGYSzMB2nXR9OVtw4Xi5mLoJ1T2Z3QFAY4gwI10YBgzrCjUjHLqelcAAxLPPCCJHYR4G3T8DKZHNQAY9IkC981MYj98I4mq3cujEHpdBorQol0YUIy7afcYsDZeqmfc9SDFgA3yPs/Tuqxyopr8LYqjeBTHEDKKxSEVbqCAWLK2xlKjozrIF8XbVPLkHjK569ChDYqplJkrJCuIvpbWOml84XqMriXyOYGEPoLySLbhwVrmGk1DdgBwOgM3wk37G+DGsXWXd4hSA2J1EgAJx49EHODd92QhGOLp/BlIim4EMejAN4+PR/tbfPhEiE/3Ht4HNYBb1miiauUUyC9xSBaqL5VBd530Pco3jHudARk0cqI/qDCDuvDaPcbLGUqJqUFSwIKpehNf3AUtAStVy3uLC8XIxdZOZjMicDwAaY4QZ6cJw4A61Qt3MVu4HGIAYcehmHjk/8TBoMjeIXEFXIpswAbgu8qdA/PHUlOX7gLV1VA8S5QM4A4ipmfco7Xg01wK2x4liY3QcqKa6C2Ko3gWxnEwtqmifKhxbdWMpUT3MsQds/uQeoNw4PbSK+OF+YxokFRmJlGFzv3C8RlcSIRzBwh5AeSVbcOGscg0noepA0gNgM/yknzF+DGtXWbc4BSB2JxGgQNx49GHy1s8hwOc3fwZw78SHtnt+0QOZvw/YDCRQr4mimZuHJUBbVS5j1gZRfZ33Pcg1jnuciMWq40B9VGcADYFX6DFO1nhzVVmQNXZSf34PICRKD56LmGqNiTDypfhL6Vuwxi8cp5kEM7BdJ11fzltcOF4upm5C1ZKpHAA0hggz0oVhwLCuUDPCoetZCQxAjHy6mUfOx8D65AaRK+hKZBMmANfF8e7fuQ2Zm9h5Wt2gHiTKB3AGEEEz7/vhXAvYHgdCEoscqGa7C2Ko3gUx5AyisUhFW6ggFiytsZSo6M6yBfF21Ty5B4yuevQoQ2KqZSZKyQriL6W1jppfOF6jK4l8jmBhD6C8ki24cFa5hpNQBZDiAbAZftLPGD+GtausW5wCELuTCFAgbjz6YHnw/vle7gF8DnW64xdDxxvfZgR79Zoomrl5WPagaoGMUV0qrPO+B7nGcY+TUqIGHKiP6gxorPvQjnGyxpuryoLs4vn8HjC+AOtTGVOtMdkxnNt1huMXjtNMghnYng5ZynmLC8fLRZyEqpCpHwBtBMH4Il3QTBbeWH4L1Ixw6HpWAgMQIx8xr6//jVxv3xtIqwih6UpkM5ABTtNAXfdne/1vSWL/P2JdNRofiyBRlGqRzBG/mHYeA5fTAeQaR0lf312q4UC1ZndBDNW7IIanQTQWqWgLFcSCpTWWEhXdWbYg3q6aJ/cA5cbpoVUFb0KZifGaFfGXclpA8gvHa3Qlkd8RDHBD8Uq24MJZ5RpOQrWDXDoANsNP+hmRwLB2lXWLUyCMolcCFIi+3dBw+JbnB3AGEL3x60B0Ne7nQdukBrHtaNCwJopmbiUsCBTKHLHQtFeu874HucZxj7PnMi0cqI/qDCDy8Joyh2IlG8Sbq8qC2A5m7fk9gLAoPXguYqo1JpPTKom/lKtd6n7hOM0kmIEJaFiW8xYXjpeLqZtQbd9BJk38ICKHSOc9SYNhXU/TGeHQ9awEBiCefHhj1e2VJ6ZVu38GUiKbgQx61DX125+87/MFmT8Uam0eJE3zro1okDkXZSYLjJn3PUgxYAN8j7P07qu8opr+LoihehfEEDOIxiIVbaGCWLC0xlKiojvLFsTbVfPkHjC66tGjDImplpkoJSuIv5TWOmp+h/UaXUnkcwQLewDllWzBhbPKNZwz1f5OcW4CzEWMHCKdtJ8lhrVrrVucAtP9KAEUiFsXDh898SQYMe3+GUiJbAYy6OFc8uu/XgK2A9ga1kTRzC2S2QJ3A1I9twTrOu97kGsc9zjQ+VbkQH1UZwCN5a3dA17fB2wTtL2ftAWxexZT97CmOJlunGgRZqQLx4Y71Np3aVsNUVugpgHEqQwl3kT4OQ+D7p+BlMhmICEpVuonQmOma/udTxdCG1QfkJk8azRme5HMvO9BrnHc40i325ID1cx3QQzVuyCGn0E0FqloCxXEgqU1lhIV3Vm2IN6umif3AOXG6aFVBW9CmYnxmhXxl3JaQPILx2t0JZHfEQxwQ/FKtuDCWeUazo6qHAB3RhNhRjo/fAxrt1q3OAU8TKgBKBDDpuNlam76shGMmHb/DKRENgMZ9Khf/iyoMWtTo98J62dEm4EE6jVRNHOLZAJIUNXSDhyauM77HuQaxz3OQiCscqA+qjOAxvHW7gGcHjwX8Zq6lhN+qsVfSt+CNX7hOM0kmIHtOun6ct7iwvFyMXVDqnAAEKWwyWkIkUOkCzEwrGvfM8Kh61kJDECMfLqZp4GfeBg0mRtErqArkU2YCBzR6BzG1i8nAc3xuA1Qw1reBInSxlMakbA5ljUaHsLM+x6kGLCBv8fxBBYNB6op74IYqndBDCuDaCxS0RYqiAVLaywlKrqzbEG8XTVP7gGjqx49ypCYapmJUrKC+EtpraPmF47X6EoinyNY2AMor2QLLpxVruF4qvYAuDMaj1kNCYa1h8RCxSkAsTuJAAXixqMHgbd+jiM+aztmiWzOhMPQzwDiQzT0mwD5YoCVm4EE6jVRNHOLZAJIUNXSDhyauM77HuQaxz3OQiCscqA+qjOAxsHr9xgnaywlqg+QBfF21jz/vSC5+Lb+Yqo1JjuGc2/KcPzCcZpJMAPb02njrHrjwvFyEWfpzB0APfBHvt64YPYGkc57kgbDOqeHm84Ih65nJTAAMfLpZp4GPgbWJzeIXEFXIpswETgiQ//JGTAFVUrDtAwSRZdWkcy5D47buU1kNfO+B7nGcY8TUTA6DlRT3QUxVO+CWE6mFlW0TxWOrbqxlKge5tgDNn9yD1BunB5aRfxnr9yEJCOR0oBLxS8cr9GVBKDif6m8ki24cFa5hoPjjg6AO6NBTBl6pBPbLDGsXWvd4hSY7kcJoEDcuPRQcAT985u/BxBLotHPAH4toqr5Trg22TzYNVE0c/OwbKKF6itM1G+d9z3INY57HO36IHCgPqozgEbz1u4BNCRKD56LeAO4lhN+wsVfSt+CNX7hOM0kmIHtOun6ct7iwvFyMXWV6uYAIEra5EgbjJFDpAOXKWJY175nhGf7sgQMQIzcxby+/rdLSm/fG0irCKHpSmQzkAlOaSGfAtHuj/9KYLCq5U2QKEq1TmbSclKNhnOjQbTY8vOQu9c43iVDTDhQjeddEEP1LkgjoD8GUbUoaAsV0CqyNZYSVVxnaUGm3klP7gEMxnNBuRFTLTNx1Ab80B9x/MLxGl1JBHgE2xBR9ZVswYWzyjUcpro/AO6MJhp+pNMhq4Bh7UrrFqeAep8FgAJx68PhW57v8QxgonIM6HnQ1ERyENuOBg1romjmVsKCQKFcS7vFdZ33Pcg1jnuchUBY5UB9VGcAjQNeU8JRkdIG8eaqsiC7rl7fB+wic9KX8xYXjpeLqUszuTldlWNtsrX5mmJsKIPgDrVC3cxWx6BIhjdW3V55Ylq1+2cgJbIZyIgqdU398rML7YMg/HmQNAQzqBbJYL9eLjNZXM2870GucdzjLL37Kq+opr8LYqjeBTHEDKKxSEVbqCAWLK2xlKjozrIF8XbVPLkHKDdOD60qeBPKTIzXrIi/lNMCkt9hvUZXEvkdwQA3FK9kCy6cVa7htLeGOLJK7vJoIodIpz2ogGHtSuuWEFWYUAAoEMOmTcnhoyefAfwcMe3+GUiJbAYy6DGN0TtRa382bnwxMFpcKNZE0QQokjl3JSTPrRbrOu97kGsc9zgLgbDKgfqozgAax1u7B9CQKD14LuI1dS0n/FSLv5S+BWv8wnGaSTAD23XS9eW8xYXj5Urqcrp8QGcABQDD2nYn/JkRRm1RBigQE2eeDH7Ow6D7ZyAlshnIoEcE+ut/e3Ya678Ro3a0Tsb6P40pSJQP4Awgxmbe92ugGLAZt1MwTjYOVGuxJ3PyX3L3LojpIh+8tlDBAIyKNZYS1cNYEG9XzZN7AIPwXFCGxFTLTJSSFcRfSmsdNb9wvEZXEvkcwcIeQHklW3DhrHKG0w4A3jXiyCqly6OJHCKd9qAChrUrrVtCVGFCAaBADJuOl6m56ctGMGLa/TOQEtkMZNCjfvkM4HqXze8F7ZZHNLw1UTRzi2QizKnL0m62BGmd9z3INY57HOh8K3KgPqozgMby1u4BY4/qUxmvqWs54adb/KX0LVjjF47TTIIZ2K6Tri/nLS4cL59TtyWK8lUh5nV5NJFDpAu7w7Cup2lCNMRTJTAAUc0gdDNPAz/xMGgyNwCPSCyRTZgILtHgM0Ce5uOgcsYQXJAomglFMkIqLq+QQQQz73uQaxz3ONh1KHOgmukuiKF6F8RwM4jGIhVtoYJYsLTGUqKiO8sWxNtV8+QeoNw4PbSq4E0oMzFesyL+Uk4LSH7heI2uJPI7ggFuKF7JFlw4q7zH4TeF1vnrHhBOgbkHcBzx+R7PAJkyOhLGx0E8gP1k+wGuiaKZ+yhtpZ8rTMTHnExNuQe5xnGPo10fBA7UgczBtw0Czc+YDCSDiOgov7V7AI2Ndluei/d4BhANv3CcZhIszRXOG8rlbPHnEGp2qTsPAOWrAtKY8uXRRA6RbnYBEoZ1WUe0qsowgDhEcAXRtxud8jSsN4CWCNIgcgVdiWzCROCITGeiXwMsHwS1drW8wRRhublyXItkhFRc1mh4XzPve5BrHPc4nsCi0eAUA7u4U9VQfcBkIhvEqQZJW6gARhWtsZSo6quCBVG1F57cAxiN54IyJKZaZuK5dY34Sxk28wvHa3QlEcIRLOwBlFeyBRfOKkc48wDgDl/3AAg8ij1QHEH/rO2Ycb5iJyQXM4U40BlA/3WBPwgieZwEbF2Q99U1UTRzi2T2yM3C4Tq3cVZcTmeQaxxvkVF2HKh7IyIQQ/UZk0HJICrNReA1fmxqjaVEXTqhqgXxdta8/n3ALjInfTlbcOF42afuegDo3KsQ06pNNvhGDpEOXKaIO9SaaAnRCRJJwADEU8v+6s0v4Ob5Xs4ASgs5A5jMvc+CgkRpUe4RScIShcrryum7uJp534Nc47jHWXr3VQ5U098FMVTvghhiBtFYpKItVBALltZ4c1VZEIRf5Cf3AOXG6aFV00WZifGaFfGXclpA8gvHa3Qlkd8RDHBD8Uq24MJZZYuzHgDc9eseEE5BU3L4liefCrUdM87Xpb96phATPgP49V+/GFgAC9U1UTRz62QOvdi0OzREEy6npt+DXOO4x8HedzIH6kBm58h6Q/UZk9GRQdx1/tbuATROSg+ei3hNlcKyC1eDHzYpd039wnGaSTAD23XS9eVswYXjZUzd+ABQvirEvC6PJnKIdGF3GNY5Pdw0IRriqRIYgKjmQMB7AJl5Ypqy+2cgJbIZyMqKvwpuXL6c1wImRuvk9e8DlniV19Li12db5uYuiPh37LsghphBNBapaAsVxIKlNZYSFd1ZtiDerpon94DRVY8e7Qwx1TITpWQF8ZfSWkfN77Be03YGAZEyBMuUV7IFN8xVFpz4AGAWr3vAdjY4fPTEk2DEtM9vNskzHbZ9jNPkYB8mmctWJT70n34Z0GXSlLrrcGuiaOZmIxpkzgVSPbcEKy6npt6DXOO4x4HOtyIH6kBm69kNhuozJqMjg7jr/K3dA8Ye1QMYJ3kpLLtwkV78pdw19QvHaSbBDGzXSdeXswUXjpc5dU8HgPJVIeZ1eTSRQ6QLu8OwzunhpgnREE+VwABENccCTwY/52HQ/TOQEtkMJGDFiyG6BwSNnSpIlA/gDCCaZt73a+BawPY4LjCrggPVtHdBDNW7IIaWQTQWqWgLFcSCpTWWEhXdWbYg3q6aJ/cA5cbpoVUFb0KZifGaFfGXclpA8gvHa3Qlkd8RDHBD8Uq24MJZ5fbZQEbkdQ8Ip6B92E4/c9OXjWDMTQ9rFts4X5f+MpDRnPqV9/3O68dpYwp+PXQB31TXRNHMLZLZwA71lfRVJFxOTbkHucZxj6NdHwQO1IHMwbcNAs3PmAwkg4joKL+1ewCNjdKD5yJeU6WwYIgWWfylXMxa9QvHaSbBDExRI6GcLbhwvNxT4UhE+aoQ0VlyOW5itVGvkc56jRqGde07IRriqRIYgKhmELqZp4GfeBg0mRuARySWyCZMBJdoyBnAvxgafB8gbc+lTxRqP6gWyWQdnO07q5n3/Rq4xnGPs6Oheg5Uq94FMVTvgiifzsTUoor2qcKxVTeWEtXDHHvA5k/uAYzDc0EZElMtM0FWIIu/lGCaol84XqMridyOYBM2lq5kCy4cIw/ojMjrHhDPAd4DeD7w+V7OACVKh0E/D8w94FnSvPczAJdTG+h+OFlGa5i6sMex7eIar6gDmdhNtIbqMyYD0iBKN2v51u4Br+8D1hmGOi4clDkJesNj0uihqgKAg3gEgXYqRg6RTh1QwKNsPU0TogjjZWAAom83OuVF29767YdCTdP9ExB5uY46mLoMZLZUqRPTe0A7Ca78YKKwTN7v/QwgDmbe9zvmtYDtcdKYaXA+qjNAw6NCNFBrvLmqLEjUzdA9uQcoN04PrZruykyM16yIv5TTApJfOF6jK4n8jmCAG4pX8hYXzpANZkbkdQ8w4ZqVvvXzTPjnN38GEIf+7t+ebbts3wdQwZ8LNdZMcvI/ST5p3vsZgMvpPJwso+3Ar4TFerYaB+pSbBHEUH3GZMAaROwK5Z665y3I4sQbK0KGsgUJm5Dy+b8TJhBKD56LmGqNyY7h3K4zHL9wnGYSzMD2dPqAj+ZpxIXDMk//bJFlwuA5iYPrFC+PJnKIdLMLkDCsc3q4QUIUUAIRGIAYNNSoxZcA8uj+CQg1yloIUsTB6vqOj/s+H97tSGBTgyp011q1Zvhs1dqILKdNrUbDO5t534OUBqnoexxtshM4RM16F8RQvQti6BlEY5GKtlBBLFhaYylR0Z1lC+LtqnlyDxhd9ehRhsRUy0yUkhXEX0prHTVcMjtZVxL5HMHCHkB5JVtw4bgDoEDkdQ+AwFuRp2F58qlQ2zHjfLWdVDMFc4Jf//vuPy4EZB3EFvS4apKmO773MwAXVSON47WDuLa09jgWNa5xoA5kYjfRGqrPmAxIgyjdrOVbuwe8vg9YZxjquHCiA4CaHpNGNykVABzEIwi0UzFyiHTqgALuUOsAEqII42VgAKJvNzW8ser2ysu4Vbt/BlIim4FMMigREz0JWF/eYjBpWCaAQfUeGSTWsG6imHnfg1xD3+MsrH1Vg3N7RIbqAyaTm0GcapC0hQpgVNEaS4mqvipYEFV74ck9QLlxemjV9FJmYrxmRfylnBaQ/MLxGl1J5HcEA9xQvJItY+GEOE2ZEXndA/ah67GjycCTYMwNm7aubIjzdXHKJmg0h5wY7/70aXXhL0MsvXEVd1uztIpkQlBVAlXVpQIup9Z4D3KN4x4npUQNODgHMmcQQ/UZk9GRQdx1/tbuATROSg+TqMvQS2FZfLAq/lKiDWW/cJxmLvoMDIGdXM4WXjibGwDDHokoXxUcl644gkQukUOki3zHwhvLbznEEqIhniqBAYhqjgWeDH7Ow6D7ZyAlshnIwmr8OlBbFa+/F7TEJqqW15J35tXV9HdBzNzeBTHEDKKxSEVbqCAWLK2xlKjozrIF8XbVPLkHjK569GhPiKmWmSglK4i/lNY6aviaspMpV3THOoKFPYDySrYcDwDCzIi87gEQeBR7YOemLxvBmJse1iy2Mx0QeJEzkNGc+mUyXCfZ/TvhUnfd3b28SOYWySxDWKpX0lddcVE15R7kGsc9jnZ9EMaLyF0QQ/UuiKFnEI0FKm/tHvD6PgAmdxWzA4DaH5NGdw0V1h64fgSJXCKHSBf5fgj3gM6VFy0/8TBoMjcI6U9lElVuWAwL0ej7vj75t0LHx0FX9hfcbVkmIoNqkcwcYiRdIYP+eDJ9CGeABudABvl72YTzblgMrEE0FqloCxXEgqU1lhIV3Vm2IN6umif3AOXG6aFVBW9CmYnxmhXxl3JaQPILx2t0JZHfEQxwQ7GWLYUDoEDkdQ8Ip6B92E4/vPXzfODzvZwBQnTs+3e/E+7DaqPDPfe9nwG4nNpA92vg2tLa47Resp/XPeAUodpMvP59wCmGO1shb2sHAHVwnCc9VFWIKR1BIpfIIdJFvmZvWgeQEA3xVAkMQFQzCN3M07DeAPhg4AbgEYklsgmTFVe/BtB/Jta2SzyrVo+1jrsty9RiUL1IZoXmeiF9Q0c8kz6EM0CDcyATDkSVJpx3w6JoTTCIxiIVbaGCWLC0xlKiojvLFsTbVfPkHjC66tGjDImplpkoJSuIv5TWOmp+4XiNriTyOYKFPYAyy5byAVAg8roHQOBR7EHmmfBPnt9skuN8xU4KEzSaMwf5OIg/CKK96fXvA5ZwrtVsLa3tbf11D7DxsLUs/7n183vA2KP6VMZrqsbEssea+EuJNpTxNWUjT4IZGAI7+Zi3Vw4AQj4SUb4qOC5dcQSJXCKHSBf5fjD3ACIXXwLI0AeTjSiJKg8+A9mEqP2NoHEnGDhVoOjlhcZTGlFIZlUe03dtDHVcVIdX7+o4GfkuGfJ+3QNgciKxPBNP7gG6iDg9tGoIlZkYr1kRfymnBSS/cLym7QwCIiVA1MV93l48AKjLjMjrHrCdF56G5cmnQm3HnOmw7SOfoOFKNPAS0GmMLwYO4BsT7rZmaWXZssGz6n362namhsupGfYg1zjucUz3mwoH50Bm4zfUhuozJhHirnPeJUzna1NrLCXqClFN3ef3AOqZ0sMk6kLGDmcxFqriL+XOxS8cp5mxzMB2nXT9JluuHwCEdiSifFWIeR1BIpfIIdJFvh/CPUB44T2AdDwxTdkHk40oiSp3koEMKtS1nAGNBn8hTBcV/u56kzEyDFPibssymQfVIhmD5ypXyKAzLqfDtnuN410yLSbqqwLSLciG6l0Q049BNBapaAsVxIKlNZYSFd1ZtiDerpon94DRVY8eZUhMtcxEKVlB/KW01lHzC8drdCWRzxEs7AGUUbbcOgAKRF73AAi8FXka6IknwZibPr/ZJMf5ajupZgrT6L2Pff/1e0FLJMPqmK/Qliv5WDocSGcIkyDPmIyODOKu87d2Dxh7VA9gvKZKYdmFi/TiL+WuKb6mbORJMAPbddL1LlvuHgAwurBD5atC2ExDFFsDbTT8SBe42t9ZnNPDTROiIZ4qgQGIao4Fngx+zsOg+2cgJbIZyGBFBHrvr98LKgZsxi2e11z7ugckMSrPxJN7gC4i3nO1ariVmRivWRF/KacFJP/W7zXv6B7w4ACgARxHRfbXPQBmGcUe9rnpUyR7KPnJYc1iG+crdkJyBjKa8xlAfLrw+r2gJYrb6pivrf1seN0DTvGppe7r+4BTDHc2yNtnBwB1cJwn3aRUiCkdQSKXyCHSRb70vttGPZbfMoCEaIinSmAAoppB6GaeBn7iYdBkbgAekVgimzARXKJB/8kZYO4E3IR5SvNDGb280HhKIzrATlOZyXTpkpn3PUgxYAN8j7P07quve4CPidGUZ+LJPYB75LmgDInXVJmJ4T8r4i/ltIDkF47XtJ1BQKQEiLooefv4AKAuMyKve8BmXnrweevn+cBnbcec6bDpo6mzCZquRIDPAP5nAXKHmw3KEu62LL/3MwCXUxuHrAE/pnrAzjge2Ws4OAcy3gU1hup+ROiSyAZx15b3jWNTaywlqu/Ngng7a57fA35kvw/ot/5dXOv64zzp3KsQAx9BIpfIIdJFvuMGMJbfskcmREM8VQIDENUMQjfzouVjYH1yA/CIxBLZhInDld8I0i8GxsFADels4F8Tck6owN2W5eZaO9UQZyvf3ezwZDpsu9cCdpdMi4n6qrAdc2wwVO+CGGiDaCxS0RYqiAVLaywlKrqzbEG8XTVP7gHKzbysKPRFJoufVGUkUorelH7heI2uJPI8ghnkoNLWcsN4BDJwM4zXPSCYgKaCKeCJwGdtx9T03XTR1dkEDV9MBjqQ+oVg+XMRpe46HO62ZmkVyZzGczNvcTk1eByv7e4axz2ORY1rHJwDmdhNtIbqMyYD0iBKN2v51u4BND5KD5Ooy5BLYVl8sCr+UqINZb9wnGauwgwMgVeZp/C0DFaPQ/1IRPmqECMdQSKXyCHSRb4fzD2AyK2v/6L55s8AjFTfTcJ7ALbaybjbskwtRwKU52gH3vR3NztcTgeQaxzvkunjkK7ugoh/j9ZdkO4sD4MoSlNqCxWMeVSsMVn+EUDTWZBdK9I/uQcwLCcqZUhMtcxkQ1L8pQyb+YXjNbqSCOEIFvYwlHIANIzbINBBhvG6B0CwrMjxX558KnzzZwDR6O/+fCzxDWC5B1j2pxrutiy/9zMAl1Ojvk/+LKPtwPc4tl1c4+AcyMRuojVUnzEZkAZRulnLt3YPGHtUD+B7PAMozH7hOM0kWJqrde6WD3PffdIoXxUcpa64PJrIIdKF3WFY19M0IRriqRIYgKjmQMB7AJl5Rpqy+2cgJbIZyGBFXcsZwL8YGtwDggEEKtxtWW4jq40ogPOqu3lr5n0PUgzY4LXH8cQXjQbnozoDNDwqLMPqVWssJaqHsSDerpon9wDlxumhVQVvQpmJ8ZoV8ZdyWkDyC8drdCWR3xEMcEGEGwBrH6TvhM2IvO4BM1aLxPGnJ54EY1J6WLPYxvm69rLUN1VMBuLTzwNzD8AGGwxV425rllY2IkU4CVeYKA4up6bcg1zjuMfRrg8CB+dA5uDbBoHmZ0wGkkFEdJTf2j2AxkbpYRIVh9vMS/1qVfyl3Pn7heM0c9FnYGsn/x9hHWP3gOe7RAAAAABJRU5ErkJggg==;" vertex="1" parent="ohknaUU2VE4TiwLYlM5e-7">
          <mxGeometry x="30" y="35" width="30" height="30" as="geometry" />
        </mxCell>
        <mxCell id="ohknaUU2VE4TiwLYlM5e-22" value="Github Actions Runner" style="shape=image;verticalLabelPosition=bottom;labelBackgroundColor=default;verticalAlign=top;aspect=fixed;imageAspect=0;image=https://avatars.githubusercontent.com/u/44036562?v=4;fontSize=10;" vertex="1" parent="ohknaUU2VE4TiwLYlM5e-7">
          <mxGeometry x="94.25" y="81" width="57" height="57" as="geometry" />
        </mxCell>
        <mxCell id="ohknaUU2VE4TiwLYlM5e-24" value="&lt;font color=&quot;#3d4bc7&quot;&gt;Codebuid project&lt;br&gt;&lt;/font&gt;" style="text;whiteSpace=wrap;html=1;" vertex="1" parent="ohknaUU2VE4TiwLYlM5e-7">
          <mxGeometry x="63.5" y="35" width="112.5" height="25" as="geometry" />
        </mxCell>
      </root>
    </mxGraphModel>
  </diagram>
</mxfile>
